{
.appVersion = "907";
copyright = "Copyright (c) 2011, Peter Hull (peter.hull@oikoi.com), with Reserved Font Name \"VT323\".";
customParameters = (
{
name = isFixedPitch;
value = 1;
}
);
date = "2016-07-06 08:15:39 +0000";
designer = "Peter Hull";
familyName = VT323_v3;
featurePrefixes = (
{
automatic = 1;
code = "languagesystem DFLT dflt;\012languagesystem latn dflt;\012languagesystem latn CAT;\012languagesystem latn ROM;\012languagesystem latn MOL;\012languagesystem latn KAZ;\012languagesystem latn TAT;\012languagesystem latn TRK;\012languagesystem latn CRT;\012languagesystem latn AZE;\012";
name = Languagesystems;
}
);
features = (
{
automatic = 1;
code = "feature ccmp;\012feature locl;\012feature sups;\012feature frac;\012feature ordn;\012feature zero;\012";
name = aalt;
},
{
automatic = 1;
code = "lookup ccmp_Other_1 {\012	@CombiningTopAccents = [acutecomb brevecomb breveinvertedcomb caroncomb circumflexcomb commaturnedabovecomb dblgravecomb dieresiscomb dotaccentcomb gravecomb hookabovecomb hungarumlautcomb macroncomb ringcomb tildecomb];\012	@CombiningNonTopAccents = [brevebelowcomb cedillacomb dieresisbelowcomb dotbelowcomb macronbelowcomb ogonekcomb horncomb];\012	sub [i j]' @CombiningTopAccents by [idotless jdotless];\012	sub [i j]' @CombiningNonTopAccents @CombiningTopAccents by [idotless jdotless];\012} ccmp_Other_1;\012";
name = ccmp;
},
{
automatic = 1;

glyphs = (
{
color = 3;
glyphname = A;
lastChange = "2016-07-06 09:11:00 +0000";
layers = (
{
anchors = (
{
name = bottom;
position = "{200, 0}";
},
{
name = ogonek;
position = "{340, 10}";
},
{
name = top;
position = "{200, 560}";
}
);
background = {
paths = (
{
closed = 1;
nodes = (
"143 545 OFFCURVE",
"142 501 OFFCURVE",
"146 484 CURVE",
"148 480 LINE",
"135 480 LINE SMOOTH",
"119 480 OFFCURVE",
"120 481 OFFCURVE",
"118 462 CURVE SMOOTH",
"115 437 OFFCURVE",
"116 418 OFFCURVE",
"120 404 CURVE",
"121 400 LINE",
"108 400 LINE SMOOTH",
"92 400 OFFCURVE",
"93 400 OFFCURVE",
"91 381 CURVE SMOOTH",
"89 358 OFFCURVE",
"89 338 OFFCURVE",
"93 324 CURVE",
"94 319 LINE",
"81 319 LINE SMOOTH",
"66 319 OFFCURVE",
"66 320 OFFCURVE",
"64 301 CURVE SMOOTH",
"61 277 OFFCURVE",
"62 258 OFFCURVE",
"67 243 CURVE",
"67 241 OFFCURVE",
"67 238 OFFCURVE",
"67 235 CURVE",
"64 229 OFFCURVE",
"63 217 OFFCURVE",
"63 201 CURVE SMOOTH",
"63 184 OFFCURVE",
"64 172 OFFCURVE",
"67 163 CURVE",
"67 159 LINE",
"54 159 LINE SMOOTH",
"39 159 OFFCURVE",
"39 159 OFFCURVE",
"37 140 CURVE SMOOTH",
"35 117 OFFCURVE",
"35 98 OFFCURVE",
"40 83 CURVE",
"40 80 OFFCURVE",
"40 77 OFFCURVE",
"40 75 CURVE",
"37 69 OFFCURVE",
"36 57 OFFCURVE",
"36 40 CURVE SMOOTH",
"36 23 OFFCURVE",
"37 11 OFFCURVE",
"40 3 CURVE",
"41 -1 LINE",
"81 -2 LINE SMOOTH",
"107 -3 OFFCURVE",
"121 -1 OFFCURVE",
"122 -1 CURVE SMOOTH",
"128 -1 OFFCURVE",
"127 53 OFFCURVE",
"123 73 CURVE",
"122 77 OFFCURVE",
"122 80 OFFCURVE",
"123 85 CURVE",
"127 103 OFFCURVE",
"126 151 OFFCURVE",
"122 158 CURVE",
"124 158 LINE",
"125 158 OFFCURVE",
"127 158 OFFCURVE",
"130 158 CURVE SMOOTH",
"132 158 OFFCURVE",
"136 158 OFFCURVE",
"139 158 CURVE SMOOTH",
"143 158 OFFCURVE",
"147 158 OFFCURVE",
"152 159 CURVE",
"156 159 OFFCURVE",
"162 159 OFFCURVE",
"167 159 CURVE SMOOTH",
"172 159 OFFCURVE",
"177 159 OFFCURVE",
"183 159 CURVE SMOOTH",
"189 159 OFFCURVE",
"195 159 OFFCURVE",
"201 159 CURVE SMOOTH",
"281 159 LINE",
"280 155 LINE",
"278 148 OFFCURVE",
"277 137 OFFCURVE",
"277 121 CURVE SMOOTH",
"277 104 OFFCURVE",
"278 92 OFFCURVE",
"280 83 CURVE",
"281 80 OFFCURVE",
"281 77 OFFCURVE",
"280 75 CURVE",
"278 69 OFFCURVE",
"277 57 OFFCURVE",
"277 40 CURVE SMOOTH",
"277 23 OFFCURVE",
"278 11 OFFCURVE",
"280 3 CURVE",
"281 -1 LINE",
"321 -2 LINE SMOOTH",
"348 -3 OFFCURVE",
"362 -1 OFFCURVE",
"362 -1 CURVE SMOOTH",
"367 4 OFFCURVE",
"368 53 OFFCURVE",
"364 73 CURVE",
"363 77 OFFCURVE",
"363 80 OFFCURVE",
"364 85 CURVE",
"368 108 OFFCURVE",
"368 130 OFFCURVE",
"364 152 CURVE",
"364 156 OFFCURVE",
"363 157 OFFCURVE",
"363 158 CURVE SMOOTH",
"363 159 OFFCURVE",
"358 159 OFFCURVE",
"349 159 CURVE SMOOTH",
"340 159 OFFCURVE",
"336 159 OFFCURVE",
"336 160 CURVE",
"340 167 OFFCURVE",
"341 214 OFFCURVE",
"337 233 CURVE",
"336 237 OFFCURVE",
"336 241 OFFCURVE",
"337 245 CURVE",
"341 268 OFFCURVE",
"342 291 OFFCURVE",
"337 313 CURVE",
"337 316 OFFCURVE",
"336 318 OFFCURVE",
"336 318 CURVE SMOOTH",
"336 319 OFFCURVE",
"331 319 OFFCURVE",
"322 319 CURVE SMOOTH",
"320 319 LINE",
"309 321 LINE",
"310 321 OFFCURVE",
"311 326 OFFCURVE",
"312 335 CURVE SMOOTH",
"314 352 OFFCURVE",
"313 393 OFFCURVE",
"309 399 CURVE",
"309 399 OFFCURVE",
"304 400 OFFCURVE",
"295 400 CURVE SMOOTH",
"286 400 OFFCURVE",
"282 400 OFFCURVE",
"282 401 CURVE SMOOTH",
"282 402 OFFCURVE",
"284 406 OFFCURVE",
"285 415 CURVE SMOOTH",
"287 433 OFFCURVE",
"286 473 OFFCURVE",
"282 479 CURVE",
"281 480 OFFCURVE",
"277 480 OFFCURVE",
"268 480 CURVE SMOOTH",
"259 480 OFFCURVE",
"255 481 OFFCURVE",
"256 481 CURVE SMOOTH",
"256 481 OFFCURVE",
"257 486 OFFCURVE",
"258 495 CURVE SMOOTH",
"260 513 OFFCURVE",
"259 553 OFFCURVE",
"256 559 CURVE",
"255 560 OFFCURVE",
"237 560 OFFCURVE",
"201 560 CURVE SMOOTH",
"148 560 LINE",
"147 557 LINE SMOOTH"
);
},
{
closed = 1;
nodes = (
"225 389 OFFCURVE",
"224 378 OFFCURVE",
"224 361 CURVE SMOOTH",
"224 345 OFFCURVE",
"225 332 OFFCURVE",
"227 324 CURVE",
"228 320 LINE",
"241 320 LINE",
"255 319 LINE",
"254 315 LINE SMOOTH",
"252 308 OFFCURVE",
"250 298 OFFCURVE",
"250 281 CURVE SMOOTH",
"250 265 OFFCURVE",
"251 252 OFFCURVE",
"254 243 CURVE",
"255 239 LINE",
"201 239 LINE SMOOTH",
"182 239 OFFCURVE",
"164 240 OFFCURVE",
"155 240 CURVE",
"148 240 LINE",
"151 245 OFFCURVE",
"153 259 OFFCURVE",
"153 280 CURVE SMOOTH",
"153 300 OFFCURVE",
"151 313 OFFCURVE",
"148 318 CURVE",
"148 319 OFFCURVE",
"152 319 OFFCURVE",
"161 319 CURVE SMOOTH",
"170 319 OFFCURVE",
"174 320 OFFCURVE",
"175 321 CURVE",
"178 326 OFFCURVE",
"179 339 OFFCURVE",
"179 360 CURVE SMOOTH",
"179 381 OFFCURVE",
"178 394 OFFCURVE",
"175 399 CURVE",
"177 399 LINE",
"177 399 OFFCURVE",
"178 399 OFFCURVE",
"180 399 CURVE SMOOTH",
"182 399 OFFCURVE",
"184 399 OFFCURVE",
"186 400 CURVE",
"188 400 OFFCURVE",
"191 400 OFFCURVE",
"193 400 CURVE SMOOTH",
"196 400 OFFCURVE",
"199 400 OFFCURVE",
"201 400 CURVE SMOOTH",
"228 400 LINE",
"227 396 LINE SMOOTH"
);
}
);
};
layerId = "DA6254B3-9514-4A47-8309-1A9185AEAC97";
paths = (
{
closed = 1;
nodes = (
"37 68 OFFCURVE",
"36 51 OFFCURVE",
"36 40 CURVE SMOOTH",
"36 29 OFFCURVE",
"37 13 OFFCURVE",
"40 0 CURVE",
"120 0 LINE",
"123 13 OFFCURVE",
"124 29 OFFCURVE",
"124 40 CURVE SMOOTH",
"124 51 OFFCURVE",
"123 68 OFFCURVE",
"120 80 CURVE",
"40 80 LINE"
);
},
{
closed = 1;
nodes = (
"37 148 OFFCURVE",
"36 131 OFFCURVE",
"36 120 CURVE SMOOTH",
"36 109 OFFCURVE",
"37 93 OFFCURVE",
"40 80 CURVE",
"120 80 LINE",
"123 93 OFFCURVE",
"124 109 OFFCURVE",
"124 120 CURVE SMOOTH",
"124 131 OFFCURVE",
"123 148 OFFCURVE",
"120 160 CURVE",
"40 160 LINE"
);
},
{
closed = 1;
nodes = (
"67 308 OFFCURVE",
"66 291 OFFCURVE",
"66 280 CURVE SMOOTH",
"66 269 OFFCURVE",
"67 253 OFFCURVE",
"70 240 CURVE",
"150 240 LINE",
"153 253 OFFCURVE",
"154 269 OFFCURVE",
"154 280 CURVE SMOOTH",
"154 291 OFFCURVE",
"153 308 OFFCURVE",
"150 320 CURVE",
"70 320 LINE"
);
},
{
closed = 1;
nodes = (
"87 388 OFFCURVE",
"86 371 OFFCURVE",
"86 360 CURVE SMOOTH",
"86 349 OFFCURVE",
"87 333 OFFCURVE",
"90 320 CURVE",
"170 320 LINE",
"173 333 OFFCURVE",
"174 349 OFFCURVE",
"174 360 CURVE SMOOTH",
"174 371 OFFCURVE",
"173 388 OFFCURVE",
"170 400 CURVE",
"90 400 LINE"
);
},
{
closed = 1;
nodes = (
"67 228 OFFCURVE",
"66 211 OFFCURVE",
"66 200 CURVE SMOOTH",
"66 189 OFFCURVE",
"67 173 OFFCURVE",
"70 160 CURVE",
"200 160 LINE",
"203 173 OFFCURVE",
"204 189 OFFCURVE",
"204 200 CURVE SMOOTH",
"204 211 OFFCURVE",
"203 228 OFFCURVE",
"200 240 CURVE",
"70 240 LINE"
);
},
{
closed = 1;
nodes = (
"117 468 OFFCURVE",
"116 451 OFFCURVE",
"116 440 CURVE SMOOTH",
"116 429 OFFCURVE",
"117 413 OFFCURVE",
"120 400 CURVE",
"280 400 LINE",
"283 413 OFFCURVE",
"284 429 OFFCURVE",
"284 440 CURVE SMOOTH",
"284 451 OFFCURVE",
"283 468 OFFCURVE",
"280 480 CURVE",
"120 480 LINE"
);
},
{
closed = 1;
nodes = (
"227 388 OFFCURVE",
"226 371 OFFCURVE",
"226 360 CURVE SMOOTH",
"226 349 OFFCURVE",
"227 333 OFFCURVE",
"230 320 CURVE",
"310 320 LINE",
"313 333 OFFCURVE",
"314 349 OFFCURVE",
"314 360 CURVE SMOOTH",
"314 371 OFFCURVE",
"313 388 OFFCURVE",
"310 400 CURVE",
"230 400 LINE"
);
},
{
closed = 1;
nodes = (
"247 308 OFFCURVE",
"246 291 OFFCURVE",
"246 280 CURVE SMOOTH",
"246 269 OFFCURVE",
"247 253 OFFCURVE",
"250 240 CURVE",
"330 240 LINE",
"333 253 OFFCURVE",
"334 269 OFFCURVE",
"334 280 CURVE SMOOTH",
"334 291 OFFCURVE",
"333 308 OFFCURVE",
"330 320 CURVE",
"250 320 LINE"
);
},
{
closed = 1;
nodes = (
"197 228 OFFCURVE",
"196 211 OFFCURVE",
"196 200 CURVE SMOOTH",
"196 189 OFFCURVE",
"197 173 OFFCURVE",
"200 160 CURVE",
"330 160 LINE",
"333 173 OFFCURVE",
"334 189 OFFCURVE",
"334 200 CURVE SMOOTH",
"334 211 OFFCURVE",
"333 228 OFFCURVE",
"330 240 CURVE",
"200 240 LINE"
);
},
{
closed = 1;
nodes = (
"277 68 OFFCURVE",
"276 51 OFFCURVE",
"276 40 CURVE SMOOTH",
"276 29 OFFCURVE",
"277 13 OFFCURVE",
"280 0 CURVE",
"360 0 LINE",
"363 13 OFFCURVE",
"364 29 OFFCURVE",
"364 40 CURVE SMOOTH",
"364 51 OFFCURVE",
"363 68 OFFCURVE",
"360 80 CURVE",
"280 80 LINE"
);
},
{
closed = 1;
nodes = (
"277 148 OFFCURVE",
"276 131 OFFCURVE",
"276 120 CURVE SMOOTH",
"276 109 OFFCURVE",
"277 93 OFFCURVE",
"280 80 CURVE",
"360 80 LINE",
"363 93 OFFCURVE",
"364 109 OFFCURVE",
"364 120 CURVE SMOOTH",
"364 131 OFFCURVE",
"363 148 OFFCURVE",
"360 160 CURVE",
"280 160 LINE"
);
},
{
closed = 1;
nodes = (
"137 548 OFFCURVE",
"136 531 OFFCURVE",
"136 520 CURVE SMOOTH",
"136 509 OFFCURVE",
"137 493 OFFCURVE",
"140 480 CURVE",
"260 480 LINE",
"263 493 OFFCURVE",
"264 509 OFFCURVE",
"264 520 CURVE SMOOTH",
"264 531 OFFCURVE",
"263 548 OFFCURVE",
"260 560 CURVE",
"140 560 LINE"
);
}
);
width = 400;
}
);
unicode = 0041;
},
{
color = 3;
glyphname = AE;
lastChange = "2016-07-06 09:11:00 +0000";
layers = (
{
anchors = (
{
name = bottom;
position = "{200, 0}";
},
{
name = top;
position = "{200, 560}";
}
);
layerId = "DA6254B3-9514-4A47-8309-1A9185AEAC97";
paths = (
{
closed = 1;
nodes = (
"37 68 OFFCURVE",
"36 51 OFFCURVE",
"36 40 CURVE SMOOTH",
"36 29 OFFCURVE",
"37 13 OFFCURVE",
"40 0 CURVE",
"120 0 LINE",
"123 13 OFFCURVE",
"124 29 OFFCURVE",
"124 40 CURVE SMOOTH",
"124 51 OFFCURVE",
"123 68 OFFCURVE",
"120 80 CURVE",
"40 80 LINE"
);
},
{
closed = 1;
nodes = (
"37 148 OFFCURVE",
"36 131 OFFCURVE",
"36 120 CURVE SMOOTH",
"36 109 OFFCURVE",
"37 93 OFFCURVE",
"40 80 CURVE",
"120 80 LINE",
"123 93 OFFCURVE",
"124 109 OFFCURVE",
"124 120 CURVE SMOOTH",
"124 131 OFFCURVE",
"123 148 OFFCURVE",
"120 160 CURVE",
"40 160 LINE"
);
},
{
closed = 1;
nodes = (
"77 468 OFFCURVE",
"76 451 OFFCURVE",
"76 440 CURVE SMOOTH",
"76 429 OFFCURVE",
"77 413 OFFCURVE",
"80 400 CURVE",
"140 400 LINE",
"143 413 OFFCURVE",
"144 429 OFFCURVE",
"144 440 CURVE SMOOTH",
"144 451 OFFCURVE",
"143 468 OFFCURVE",
"140 480 CURVE",
"80 480 LINE"
);
},
{
closed = 1;
nodes = (
"37 228 OFFCURVE",
"36 211 OFFCURVE",
"36 200 CURVE SMOOTH",
"36 189 OFFCURVE",
"37 173 OFFCURVE",
"40 160 CURVE",
"200 160 LINE",
"203 173 OFFCURVE",
"204 189 OFFCURVE",
"204 200 CURVE SMOOTH",
"204 211 OFFCURVE",
"203 228 OFFCURVE",
"200 240 CURVE",
"40 240 LINE"
);
},
{
closed = 1;
nodes = (
"197 68 OFFCURVE",
"196 51 OFFCURVE",
"196 40 CURVE SMOOTH",
"196 29 OFFCURVE",
"197 13 OFFCURVE",
"200 0 CURVE",
"360 0 LINE",
"363 13 OFFCURVE",
"364 29 OFFCURVE",
"364 40 CURVE SMOOTH",
"364 51 OFFCURVE",
"363 68 OFFCURVE",
"360 80 CURVE",
"200 80 LINE"
);
},
{
closed = 1;
nodes = (
"197 148 OFFCURVE",
"196 131 OFFCURVE",
"196 120 CURVE SMOOTH",
"196 109 OFFCURVE",
"197 93 OFFCURVE",
"200 80 CURVE",
"280 80 LINE",
"283 93 OFFCURVE",
"284 109 OFFCURVE",
"284 120 CURVE SMOOTH",
"284 131 OFFCURVE",
"283 148 OFFCURVE",
"280 160 CURVE",
"200 160 LINE"
);
},
{
closed = 1;
nodes = (
"197 228 OFFCURVE",
"196 211 OFFCURVE",
"196 200 CURVE SMOOTH",
"196 189 OFFCURVE",
"197 173 OFFCURVE",
"200 160 CURVE",
"280 160 LINE",
"283 173 OFFCURVE",
"284 189 OFFCURVE",
"284 200 CURVE SMOOTH",
"284 211 OFFCURVE",
"283 228 OFFCURVE",
"280 240 CURVE",
"200 240 LINE"
);
},
{
closed = 1;
nodes = (
"197 308 OFFCURVE",
"196 291 OFFCURVE",
"196 280 CURVE SMOOTH",
"196 269 OFFCURVE",
"197 253 OFFCURVE",
"200 240 CURVE",
"360 240 LINE",
"363 253 OFFCURVE",
"364 269 OFFCURVE",
"364 280 CURVE SMOOTH",
"364 291 OFFCURVE",
"363 308 OFFCURVE",
"360 320 CURVE",
"200 320 LINE"
);
},
{
closed = 1;
nodes = (
"197 388 OFFCURVE",
"196 371 OFFCURVE",
"196 360 CURVE SMOOTH",
"196 349 OFFCURVE",
"197 333 OFFCURVE",
"200 320 CURVE",
"280 320 LINE",
"283 333 OFFCURVE",
"284 349 OFFCURVE",
"284 360 CURVE SMOOTH",
"284 371 OFFCURVE",
"283 388 OFFCURVE",
"280 400 CURVE",
"200 400 LINE"
);
},
{
closed = 1;
nodes = (
"97 548 OFFCURVE",
"96 531 OFFCURVE",
"96 520 CURVE SMOOTH",
"96 509 OFFCURVE",
"97 493 OFFCURVE",
"100 480 CURVE",
"200 480 LINE",
"203 493 OFFCURVE",
"204 509 OFFCURVE",
"204 520 CURVE SMOOTH",
"204 531 OFFCURVE",
"203 548 OFFCURVE",
"200 560 CURVE",
"100 560 LINE"
);
},
{
closed = 1;
nodes = (
"197 468 OFFCURVE",
"196 451 OFFCURVE",
"196 440 CURVE SMOOTH",
"196 429 OFFCURVE",
"197 413 OFFCURVE",
"200 400 CURVE",
"280 400 LINE",
"283 413 OFFCURVE",
"284 429 OFFCURVE",
"284 440 CURVE SMOOTH",
"284 451 OFFCURVE",
"283 468 OFFCURVE",
"280 480 CURVE",
"200 480 LINE"
);
},
{
closed = 1;
nodes = (
"57 388 OFFCURVE",
"56 371 OFFCURVE",
"56 360 CURVE SMOOTH",
"56 349 OFFCURVE",
"57 333 OFFCURVE",
"60 320 CURVE",
"140 320 LINE",
"143 333 OFFCURVE",
"144 349 OFFCURVE",
"144 360 CURVE SMOOTH",
"144 371 OFFCURVE",
"143 388 OFFCURVE",
"140 400 CURVE",
"60 400 LINE"
);
},
{
closed = 1;
nodes = (
"57 308 OFFCURVE",
"56 291 OFFCURVE",
"56 280 CURVE SMOOTH",
"56 269 OFFCURVE",
"57 253 OFFCURVE",
"60 240 CURVE",
"140 240 LINE",
"143 253 OFFCURVE",
"144 269 OFFCURVE",
"144 280 CURVE SMOOTH",
"144 291 OFFCURVE",
"143 308 OFFCURVE",
"140 320 CURVE",
"60 320 LINE"
);
},
{
closed = 1;
nodes = (
"197 548 OFFCURVE",
"196 531 OFFCURVE",
"196 520 CURVE SMOOTH",
"196 509 OFFCURVE",
"197 493 OFFCURVE",
"200 480 CURVE",
"360 480 LINE",
"363 493 OFFCURVE",
"364 509 OFFCURVE",
"364 520 CURVE SMOOTH",
"364 531 OFFCURVE",
"363 548 OFFCURVE",
"360 560 CURVE",
"200 560 LINE"
);
}
);
width = 400;
}
);
unicode = 00C6;
},
{
color = 3;
glyphname = B;
lastChange = "2016-07-06 09:11:00 +0000";
layers = (
{
anchors = (
{
name = bottom;
position = "{200, 0}";
},
{
name = top;
position = "{200, 560}";
}
);
layerId = "DA6254B3-9514-4A47-8309-1A9185AEAC97";
paths = (
{
closed = 1;
nodes = (
"37 148 OFFCURVE",
"36 131 OFFCURVE",
"36 120 CURVE SMOOTH",
"36 109 OFFCURVE",
"37 93 OFFCURVE",
"40 80 CURVE",
"120 80 LINE",
"123 93 OFFCURVE",
"124 109 OFFCURVE",
"124 120 CURVE SMOOTH",
"124 131 OFFCURVE",
"123 148 OFFCURVE",
"120 160 CURVE",
"40 160 LINE"
);
},
{
closed = 1;
nodes = (
"37 228 OFFCURVE",
"36 211 OFFCURVE",
"36 200 CURVE SMOOTH",
"36 189 OFFCURVE",
"37 173 OFFCURVE",
"40 160 CURVE",
"120 160 LINE",
"123 173 OFFCURVE",
"124 189 OFFCURVE",
"124 200 CURVE SMOOTH",
"124 211 OFFCURVE",
"123 228 OFFCURVE",
"120 240 CURVE",
"40 240 LINE"
);
},
{
closed = 1;
nodes = (
"37 308 OFFCURVE",
"36 291 OFFCURVE",
"36 280 CURVE SMOOTH",
"36 269 OFFCURVE",
"37 253 OFFCURVE",
"40 240 CURVE",
"200 240 LINE",
"203 253 OFFCURVE",
"204 269 OFFCURVE",
"204 280 CURVE SMOOTH",
"204 291 OFFCURVE",
"203 308 OFFCURVE",
"200 320 CURVE",
"40 320 LINE"
);
},
{
closed = 1;
nodes = (
"37 388 OFFCURVE",
"36 371 OFFCURVE",
"36 360 CURVE SMOOTH",
"36 349 OFFCURVE",
"37 333 OFFCURVE",
"40 320 CURVE",
"120 320 LINE",
"123 333 OFFCURVE",
"124 349 OFFCURVE",
"124 360 CURVE SMOOTH",
"124 371 OFFCURVE",
"123 388 OFFCURVE",
"120 400 CURVE",
"40 400 LINE"
);
},
{
closed = 1;
nodes = (
"37 468 OFFCURVE",
"36 451 OFFCURVE",
"36 440 CURVE SMOOTH",
"36 429 OFFCURVE",
"37 413 OFFCURVE",
"40 400 CURVE",
"120 400 LINE",
"123 413 OFFCURVE",
"124 429 OFFCURVE",
"124 440 CURVE SMOOTH",
"124 451 OFFCURVE",
"123 468 OFFCURVE",
"120 480 CURVE",
"40 480 LINE"
);
},
{
closed = 1;
nodes = (
"197 308 OFFCURVE",
"196 291 OFFCURVE",
"196 280 CURVE SMOOTH",
"196 269 OFFCURVE",
"197 253 OFFCURVE",
"200 240 CURVE",
"320 240 LINE",
"323 253 OFFCURVE",
"324 269 OFFCURVE",
"324 280 CURVE SMOOTH",
"324 291 OFFCURVE",
"323 308 OFFCURVE",
"320 320 CURVE",
"200 320 LINE"
);
},
{
closed = 1;
nodes = (
"37 548 OFFCURVE",
"36 531 OFFCURVE",
"36 520 CURVE SMOOTH",
"36 509 OFFCURVE",
"37 493 OFFCURVE",
"40 480 CURVE",
"200 480 LINE",
"203 493 OFFCURVE",
"204 509 OFFCURVE",
"204 520 CURVE SMOOTH",
"204 531 OFFCURVE",
"203 548 OFFCURVE",
"200 560 CURVE",
"40 560 LINE"
);
},
{
closed = 1;
nodes = (
"197 548 OFFCURVE",
"196 531 OFFCURVE",
"196 520 CURVE SMOOTH",
"196 509 OFFCURVE",
"197 493 OFFCURVE",
"200 480 CURVE",
"320 480 LINE",
"323 493 OFFCURVE",
"324 509 OFFCURVE",
"324 520 CURVE SMOOTH",
"324 531 OFFCURVE",
"323 548 OFFCURVE",
"320 560 CURVE",
"200 560 LINE"
);
},
{
closed = 1;
nodes = (
"37 68 OFFCURVE",
"36 51 OFFCURVE",
"36 40 CURVE SMOOTH",
"36 29 OFFCURVE",
"37 13 OFFCURVE",
"40 0 CURVE",
"200 0 LINE",
"203 13 OFFCURVE",
"204 29 OFFCURVE",
"204 40 CURVE SMOOTH",
"204 51 OFFCURVE",
"203 68 OFFCURVE",
"200 80 CURVE",
"40 80 LINE"
);
},
{
closed = 1;
nodes = (
"197 68 OFFCURVE",
"196 51 OFFCURVE",
"196 40 CURVE SMOOTH",
"196 29 OFFCURVE",
"197 13 OFFCURVE",
"200 0 CURVE",
"320 0 LINE",
"323 13 OFFCURVE",
"324 29 OFFCURVE",
"324 40 CURVE SMOOTH",
"324 51 OFFCURVE",
"323 68 OFFCURVE",
"320 80 CURVE",
"200 80 LINE"
);
},
{
closed = 1;
nodes = (
"277 148 OFFCURVE",
"276 131 OFFCURVE",
"276 120 CURVE SMOOTH",
"276 109 OFFCURVE",
"277 93 OFFCURVE",
"280 80 CURVE",
"360 80 LINE",
"363 93 OFFCURVE",
"364 109 OFFCURVE",
"364 120 CURVE SMOOTH",
"364 131 OFFCURVE",
"363 148 OFFCURVE",
"360 160 CURVE",
"280 160 LINE"
);
},
{
closed = 1;
nodes = (
"277 228 OFFCURVE",
"276 211 OFFCURVE",
"276 200 CURVE SMOOTH",
"276 189 OFFCURVE",
"277 173 OFFCURVE",
"280 160 CURVE",
"360 160 LINE",
"363 173 OFFCURVE",
"364 189 OFFCURVE",
"364 200 CURVE SMOOTH",
"364 211 OFFCURVE",
"363 228 OFFCURVE",
"360 240 CURVE",
"280 240 LINE"
);
},
{
closed = 1;
nodes = (
"277 388 OFFCURVE",
"276 371 OFFCURVE",
"276 360 CURVE SMOOTH",
"276 349 OFFCURVE",
"277 333 OFFCURVE",
"280 320 CURVE",
"360 320 LINE",
"363 333 OFFCURVE",
"364 349 OFFCURVE",
"364 360 CURVE SMOOTH",
"364 371 OFFCURVE",
"363 388 OFFCURVE",
"360 400 CURVE",
"280 400 LINE"
);
},
{
closed = 1;
nodes = (
"277 468 OFFCURVE",
"276 451 OFFCURVE",
"276 440 CURVE SMOOTH",
"276 429 OFFCURVE",
"277 413 OFFCURVE",
"280 400 CURVE",
"360 400 LINE",
"363 413 OFFCURVE",
"364 429 OFFCURVE",
"364 440 CURVE SMOOTH",
"364 451 OFFCURVE",
"363 468 OFFCURVE",
"360 480 CURVE",
"280 480 LINE"
);
}
);
width = 400;
}
);
unicode = 0042;
},
{
color = 3;
glyphname = C;
lastChange = "2016-07-06 09:11:00 +0000";
layers = (
{
anchors = (
{
name = bottom;
position = "{200, 0}";
},
{
name = top;
position = "{220, 560}";
}
);
layerId = "DA6254B3-9514-4A47-8309-1A9185AEAC97";
paths = (
{
closed = 1;
nodes = (
"37 228 OFFCURVE",
"36 211 OFFCURVE",
"36 200 CURVE SMOOTH",
"36 189 OFFCURVE",
"37 173 OFFCURVE",
"40 160 CURVE",
"120 160 LINE",
"123 173 OFFCURVE",
"124 189 OFFCURVE",
"124 200 CURVE SMOOTH",
"124 211 OFFCURVE",
"123 228 OFFCURVE",
"120 240 CURVE",
"40 240 LINE"
);
},
{
closed = 1;
nodes = (
"37 388 OFFCURVE",
"36 371 OFFCURVE",
"36 360 CURVE SMOOTH",
"36 349 OFFCURVE",
"37 333 OFFCURVE",
"40 320 CURVE",
"120 320 LINE",
"123 333 OFFCURVE",
"124 349 OFFCURVE",
"124 360 CURVE SMOOTH",
"124 371 OFFCURVE",
"123 388 OFFCURVE",
"120 400 CURVE",
"40 400 LINE"
);
},
{
closed = 1;
nodes = (
"77 468 OFFCURVE",
"76 451 OFFCURVE",
"76 440 CURVE SMOOTH",
"76 429 OFFCURVE",
"77 413 OFFCURVE",
"80 400 CURVE",
"160 400 LINE",
"163 413 OFFCURVE",
"164 429 OFFCURVE",
"164 440 CURVE SMOOTH",
"164 451 OFFCURVE",
"163 468 OFFCURVE",
"160 480 CURVE",
"80 480 LINE"
);
},
{
closed = 1;
nodes = (
"117 548 OFFCURVE",
"116 531 OFFCURVE",
"116 520 CURVE SMOOTH",
"116 509 OFFCURVE",
"117 493 OFFCURVE",
"120 480 CURVE",
"240 480 LINE",
"243 493 OFFCURVE",
"244 509 OFFCURVE",
"244 520 CURVE SMOOTH",
"244 531 OFFCURVE",
"243 548 OFFCURVE",
"240 560 CURVE",
"120 560 LINE"
);
},
{
closed = 1;
nodes = (
"37 308 OFFCURVE",
"36 291 OFFCURVE",
"36 280 CURVE SMOOTH",
"36 269 OFFCURVE",
"37 253 OFFCURVE",
"40 240 CURVE",
"120 240 LINE",
"123 253 OFFCURVE",
"124 269 OFFCURVE",
"124 280 CURVE SMOOTH",
"124 291 OFFCURVE",
"123 308 OFFCURVE",
"120 320 CURVE",
"40 320 LINE"
);
},
{
closed = 1;
nodes = (
"77 148 OFFCURVE",
"76 131 OFFCURVE",
"76 120 CURVE SMOOTH",
"76 109 OFFCURVE",
"77 93 OFFCURVE",
"80 80 CURVE",
"160 80 LINE",
"163 93 OFFCURVE",
"164 109 OFFCURVE",
"164 120 CURVE SMOOTH",
"164 131 OFFCURVE",
"163 148 OFFCURVE",
"160 160 CURVE",
"80 160 LINE"
);
},
{
closed = 1;
nodes = (
"277 468 OFFCURVE",
"276 451 OFFCURVE",
"276 440 CURVE SMOOTH",
"276 429 OFFCURVE",
"277 413 OFFCURVE",
"280 400 CURVE",
"360 400 LINE",
"363 413 OFFCURVE",
"364 429 OFFCURVE",
"364 440 CURVE SMOOTH",
"364 451 OFFCURVE",
"363 468 OFFCURVE",
"360 480 CURVE",
"280 480 LINE"
);
},
{
closed = 1;
nodes = (
"277 148 OFFCURVE",
"276 131 OFFCURVE",
"276 120 CURVE SMOOTH",
"276 109 OFFCURVE",
"277 93 OFFCURVE",
"280 80 CURVE",
"360 80 LINE",
"363 93 OFFCURVE",
"364 109 OFFCURVE",
"364 120 CURVE SMOOTH",
"364 131 OFFCURVE",
"363 148 OFFCURVE",
"360 160 CURVE",
"280 160 LINE"
);
},
{
closed = 1;
nodes = (
"237 548 OFFCURVE",
"236 531 OFFCURVE",
"236 520 CURVE SMOOTH",
"236 509 OFFCURVE",
"237 493 OFFCURVE",
"240 480 CURVE",
"320 480 LINE",
"323 493 OFFCURVE",
"324 509 OFFCURVE",
"324 520 CURVE SMOOTH",
"324 531 OFFCURVE",
"323 548 OFFCURVE",
"320 560 CURVE",
"240 560 LINE"
);
},
{
closed = 1;
nodes = (
"117 68 OFFCURVE",
"116 51 OFFCURVE",
"116 40 CURVE SMOOTH",
"116 29 OFFCURVE",
"117 13 OFFCURVE",
"120 0 CURVE",
"240 0 LINE",
"243 13 OFFCURVE",
"244 29 OFFCURVE",
"244 40 CURVE SMOOTH",
"244 51 OFFCURVE",
"243 68 OFFCURVE",
"240 80 CURVE",
"120 80 LINE"
);
},
{
closed = 1;
nodes = (
"237 68 OFFCURVE",
"236 51 OFFCURVE",
"236 40 CURVE SMOOTH",
"236 29 OFFCURVE",
"237 13 OFFCURVE",
"240 0 CURVE",
"320 0 LINE",
"323 13 OFFCURVE",
"324 29 OFFCURVE",
"324 40 CURVE SMOOTH",
"324 51 OFFCURVE",
"323 68 OFFCURVE",
"320 80 CURVE",
"240 80 LINE"
);
}
);
width = 400;
}
);
unicode = 0043;
},
{
color = 3;
glyphname = D;
lastChange = "2016-07-06 09:11:00 +0000";
layers = (
{
anchors = (
{
name = bottom;
position = "{200, 0}";
},
{
name = center;
position = "{200, 280}";
},
{
name = top;
position = "{200, 560}";
}
);
layerId = "DA6254B3-9514-4A47-8309-1A9185AEAC97";
paths = (
{
closed = 1;
nodes = (
"37 148 OFFCURVE",
"36 131 OFFCURVE",
"36 120 CURVE SMOOTH",
"36 109 OFFCURVE",
"37 93 OFFCURVE",
"40 80 CURVE",
"120 80 LINE",
"123 93 OFFCURVE",
"124 109 OFFCURVE",
"124 120 CURVE SMOOTH",
"124 131 OFFCURVE",
"123 148 OFFCURVE",
"120 160 CURVE",
"40 160 LINE"
);
},
{
closed = 1;
nodes = (
"37 228 OFFCURVE",
"36 211 OFFCURVE",
"36 200 CURVE SMOOTH",
"36 189 OFFCURVE",
"37 173 OFFCURVE",
"40 160 CURVE",
"120 160 LINE",
"123 173 OFFCURVE",
"124 189 OFFCURVE",
"124 200 CURVE SMOOTH",
"124 211 OFFCURVE",
"123 228 OFFCURVE",
"120 240 CURVE",
"40 240 LINE"
);
},
{
closed = 1;
nodes = (
"37 388 OFFCURVE",
"36 371 OFFCURVE",
"36 360 CURVE SMOOTH",
"36 349 OFFCURVE",
"37 333 OFFCURVE",
"40 320 CURVE",
"120 320 LINE",
"123 333 OFFCURVE",
"124 349 OFFCURVE",
"124 360 CURVE SMOOTH",
"124 371 OFFCURVE",
"123 388 OFFCURVE",
"120 400 CURVE",
"40 400 LINE"
);
},
{
closed = 1;
nodes = (
"37 468 OFFCURVE",
"36 451 OFFCURVE",
"36 440 CURVE SMOOTH",
"36 429 OFFCURVE",
"37 413 OFFCURVE",
"40 400 CURVE",
"120 400 LINE",
"123 413 OFFCURVE",
"124 429 OFFCURVE",
"124 440 CURVE SMOOTH",
"124 451 OFFCURVE",
"123 468 OFFCURVE",
"120 480 CURVE",
"40 480 LINE"
);
},
{
closed = 1;
nodes = (
"37 548 OFFCURVE",
"36 531 OFFCURVE",
"36 520 CURVE SMOOTH",
"36 509 OFFCURVE",
"37 493 OFFCURVE",
"40 480 CURVE",
"200 480 LINE",
"203 493 OFFCURVE",
"204 509 OFFCURVE",
"204 520 CURVE SMOOTH",
"204 531 OFFCURVE",
"203 548 OFFCURVE",
"200 560 CURVE",
"40 560 LINE"
);
},
{
closed = 1;
nodes = (
"197 548 OFFCURVE",
"196 531 OFFCURVE",
"196 520 CURVE SMOOTH",
"196 509 OFFCURVE",
"197 493 OFFCURVE",
"200 480 CURVE",
"280 480 LINE",
"283 493 OFFCURVE",
"284 509 OFFCURVE",
"284 520 CURVE SMOOTH",
"284 531 OFFCURVE",
"283 548 OFFCURVE",
"280 560 CURVE",
"200 560 LINE"
);
},
{
closed = 1;
nodes = (
"37 68 OFFCURVE",
"36 51 OFFCURVE",
"36 40 CURVE SMOOTH",
"36 29 OFFCURVE",
"37 13 OFFCURVE",
"40 0 CURVE",
"200 0 LINE",
"203 13 OFFCURVE",
"204 29 OFFCURVE",
"204 40 CURVE SMOOTH",
"204 51 OFFCURVE",
"203 68 OFFCURVE",
"200 80 CURVE",
"40 80 LINE"
);
},
{
closed = 1;
nodes = (
"197 68 OFFCURVE",
"196 51 OFFCURVE",
"196 40 CURVE SMOOTH",
"196 29 OFFCURVE",
"197 13 OFFCURVE",
"200 0 CURVE",
"280 0 LINE",
"283 13 OFFCURVE",
"284 29 OFFCURVE",
"284 40 CURVE SMOOTH",
"284 51 OFFCURVE",
"283 68 OFFCURVE",
"280 80 CURVE",
"200 80 LINE"
);
},
{
closed = 1;
nodes = (
"237 148 OFFCURVE",
"236 131 OFFCURVE",
"236 120 CURVE SMOOTH",
"236 109 OFFCURVE",
"237 93 OFFCURVE",
"240 80 CURVE",
"320 80 LINE",
"323 93 OFFCURVE",
"324 109 OFFCURVE",
"324 120 CURVE SMOOTH",
"324 131 OFFCURVE",
"323 148 OFFCURVE",
"320 160 CURVE",
"240 160 LINE"
);
},
{
closed = 1;
nodes = (
"277 228 OFFCURVE",
"276 211 OFFCURVE",
"276 200 CURVE SMOOTH",
"276 189 OFFCURVE",
"277 173 OFFCURVE",
"280 160 CURVE",
"360 160 LINE",
"363 173 OFFCURVE",
"364 189 OFFCURVE",
"364 200 CURVE SMOOTH",
"364 211 OFFCURVE",
"363 228 OFFCURVE",
"360 240 CURVE",
"280 240 LINE"
);
},
{
closed = 1;
nodes = (
"277 388 OFFCURVE",
"276 371 OFFCURVE",
"276 360 CURVE SMOOTH",
"276 349 OFFCURVE",
"277 333 OFFCURVE",
"280 320 CURVE",
"360 320 LINE",
"363 333 OFFCURVE",
"364 349 OFFCURVE",
"364 360 CURVE SMOOTH",
"364 371 OFFCURVE",
"363 388 OFFCURVE",
"360 400 CURVE",
"280 400 LINE"
);
},
{
closed = 1;
nodes = (
"237 468 OFFCURVE",
"236 451 OFFCURVE",
"236 440 CURVE SMOOTH",
"236 429 OFFCURVE",
"237 413 OFFCURVE",
"240 400 CURVE",
"320 400 LINE",
"323 413 OFFCURVE",
"324 429 OFFCURVE",
"324 440 CURVE SMOOTH",
"324 451 OFFCURVE",
"323 468 OFFCURVE",
"320 480 CURVE",
"240 480 LINE"
);
},
{
closed = 1;
nodes = (
"37 308 OFFCURVE",
"36 291 OFFCURVE",
"36 280 CURVE SMOOTH",
"36 269 OFFCURVE",
"37 253 OFFCURVE",
"40 240 CURVE",
"120 240 LINE",
"123 253 OFFCURVE",
"124 269 OFFCURVE",
"124 280 CURVE SMOOTH",
"124 291 OFFCURVE",
"123 308 OFFCURVE",
"120 320 CURVE",
"40 320 LINE"
);
},
{
closed = 1;
nodes = (
"277 308 OFFCURVE",
"276 291 OFFCURVE",
"276 280 CURVE SMOOTH",
"276 269 OFFCURVE",
"277 253 OFFCURVE",
"280 240 CURVE",
"360 240 LINE",
"363 253 OFFCURVE",
"364 269 OFFCURVE",
"364 280 CURVE SMOOTH",
"364 291 OFFCURVE",
"363 308 OFFCURVE",
"360 320 CURVE",
"280 320 LINE"
);
}
);
width = 400;
}
);
unicode = 0044;
},
{
color = 3;
glyphname = DZcaron;
lastChange = "2016-07-06 09:11:00 +0000";
layers = (
{
layerId = "DA6254B3-9514-4A47-8309-1A9185AEAC97";
paths = (
{
closed = 1;
nodes = (
"37 148 OFFCURVE",
"36 131 OFFCURVE",
"36 120 CURVE SMOOTH",
"36 109 OFFCURVE",
"37 93 OFFCURVE",
"40 80 CURVE",
"100 80 LINE",
"103 93 OFFCURVE",
"104 109 OFFCURVE",
"104 120 CURVE SMOOTH",
"104 131 OFFCURVE",
"103 148 OFFCURVE",
"100 160 CURVE",
"40 160 LINE"
);
},
{
closed = 1;
nodes = (
"37 228 OFFCURVE",
"36 211 OFFCURVE",
"36 200 CURVE SMOOTH",
"36 189 OFFCURVE",
"37 173 OFFCURVE",
"40 160 CURVE",
"100 160 LINE",
"103 173 OFFCURVE",
"104 189 OFFCURVE",
"104 200 CURVE SMOOTH",
"104 211 OFFCURVE",
"103 228 OFFCURVE",
"100 240 CURVE",
"40 240 LINE"
);
},
{
closed = 1;
nodes = (
"37 388 OFFCURVE",
"36 371 OFFCURVE",
"36 360 CURVE SMOOTH",
"36 349 OFFCURVE",
"37 333 OFFCURVE",
"40 320 CURVE",
"100 320 LINE",
"103 333 OFFCURVE",
"104 349 OFFCURVE",
"104 360 CURVE SMOOTH",
"104 371 OFFCURVE",
"103 388 OFFCURVE",
"100 400 CURVE",
"40 400 LINE"
);
},
{
closed = 1;
nodes = (
"37 468 OFFCURVE",
"36 451 OFFCURVE",
"36 440 CURVE SMOOTH",
"36 429 OFFCURVE",
"37 413 OFFCURVE",
"40 400 CURVE",
"100 400 LINE",
"103 413 OFFCURVE",
"104 429 OFFCURVE",
"104 440 CURVE SMOOTH",
"104 451 OFFCURVE",
"103 468 OFFCURVE",
"100 480 CURVE",
"40 480 LINE"
);
},
{
closed = 1;
nodes = (
"37 548 OFFCURVE",
"36 531 OFFCURVE",
"36 520 CURVE SMOOTH",
"36 509 OFFCURVE",
"37 493 OFFCURVE",
"40 480 CURVE",
"170 480 LINE",
"173 493 OFFCURVE",
"174 509 OFFCURVE",
"174 520 CURVE SMOOTH",
"174 531 OFFCURVE",
"173 548 OFFCURVE",
"170 560 CURVE",
"40 560 LINE"
);
},
{
closed = 1;
nodes = (
"37 68 OFFCURVE",
"36 51 OFFCURVE",
"36 40 CURVE SMOOTH",
"36 29 OFFCURVE",
"37 13 OFFCURVE",
"40 0 CURVE",
"170 0 LINE",
"173 13 OFFCURVE",
"174 29 OFFCURVE",
"174 40 CURVE SMOOTH",
"174 51 OFFCURVE",
"173 68 OFFCURVE",
"170 80 CURVE",
"40 80 LINE"
);
},
{
closed = 1;
nodes = (
"37 308 OFFCURVE",
"36 291 OFFCURVE",
"36 280 CURVE SMOOTH",
"36 269 OFFCURVE",
"37 253 OFFCURVE",
"40 240 CURVE",
"100 240 LINE",
"103 253 OFFCURVE",
"104 269 OFFCURVE",
"104 280 CURVE SMOOTH",
"104 291 OFFCURVE",
"103 308 OFFCURVE",
"100 320 CURVE",
"40 320 LINE"
);
},
{
closed = 1;
nodes = (
"137 148 OFFCURVE",
"136 131 OFFCURVE",
"136 120 CURVE SMOOTH",
"136 109 OFFCURVE",
"137 93 OFFCURVE",
"140 80 CURVE",
"200 80 LINE",
"203 93 OFFCURVE",
"204 109 OFFCURVE",
"204 120 CURVE SMOOTH",
"204 131 OFFCURVE",
"203 148 OFFCURVE",
"200 160 CURVE",
"140 160 LINE"
);
},
{
closed = 1;
nodes = (
"167 228 OFFCURVE",
"166 211 OFFCURVE",
"166 200 CURVE SMOOTH",
"166 189 OFFCURVE",
"167 173 OFFCURVE",
"170 160 CURVE",
"230 160 LINE",
"233 173 OFFCURVE",
"234 189 OFFCURVE",
"234 200 CURVE SMOOTH",
"234 211 OFFCURVE",
"233 228 OFFCURVE",
"230 240 CURVE",
"170 240 LINE"
);
},
{
closed = 1;
nodes = (
"167 388 OFFCURVE",
"166 371 OFFCURVE",
"166 360 CURVE SMOOTH",
"166 349 OFFCURVE",
"167 333 OFFCURVE",
"170 320 CURVE",
"230 320 LINE",
"233 333 OFFCURVE",
"234 349 OFFCURVE",
"234 360 CURVE SMOOTH",
"234 371 OFFCURVE",
"233 388 OFFCURVE",
"230 400 CURVE",
"170 400 LINE"
);
},
{
closed = 1;
nodes = (
"137 468 OFFCURVE",
"136 451 OFFCURVE",
"136 440 CURVE SMOOTH",
"136 429 OFFCURVE",
"137 413 OFFCURVE",
"140 400 CURVE",
"200 400 LINE",
"203 413 OFFCURVE",
"204 429 OFFCURVE",
"204 440 CURVE SMOOTH",
"204 451 OFFCURVE",
"203 468 OFFCURVE",
"200 480 CURVE",
"140 480 LINE"
);
},
{
closed = 1;
nodes = (
"167 308 OFFCURVE",
"166 291 OFFCURVE",
"166 280 CURVE SMOOTH",
"166 269 OFFCURVE",
"167 253 OFFCURVE",
"170 240 CURVE",
"230 240 LINE",
"233 253 OFFCURVE",
"234 269 OFFCURVE",
"234 280 CURVE SMOOTH",
"234 291 OFFCURVE",
"233 308 OFFCURVE",
"230 320 CURVE",
"170 320 LINE"
);
},
{
closed = 1;
nodes = (
"227 68 OFFCURVE",
"226 51 OFFCURVE",
"226 40 CURVE SMOOTH",
"226 29 OFFCURVE",
"227 13 OFFCURVE",
"230 0 CURVE",
"360 0 LINE",
"363 13 OFFCURVE",
"364 29 OFFCURVE",
"364 40 CURVE SMOOTH",
"364 51 OFFCURVE",
"363 68 OFFCURVE",
"360 80 CURVE",
"230 80 LINE"
);
},
{
closed = 1;
nodes = (
"247 148 OFFCURVE",
"246 131 OFFCURVE",
"246 120 CURVE SMOOTH",
"246 109 OFFCURVE",
"247 93 OFFCURVE",
"250 80 CURVE",
"310 80 LINE",
"313 93 OFFCURVE",
"314 109 OFFCURVE",
"314 120 CURVE SMOOTH",
"314 131 OFFCURVE",
"313 148 OFFCURVE",
"310 160 CURVE",
"250 160 LINE"
);
},
{
closed = 1;
nodes = (
"277 308 OFFCURVE",
"276 291 OFFCURVE",
"276 280 CURVE SMOOTH",
"276 269 OFFCURVE",
"277 253 OFFCURVE",
"280 240 CURVE",
"340 240 LINE",
"343 253 OFFCURVE",
"344 269 OFFCURVE",
"344 280 CURVE SMOOTH",
"344 291 OFFCURVE",
"343 308 OFFCURVE",
"340 320 CURVE",
"280 320 LINE"
);
},
{
closed = 1;
nodes = (
"297 468 OFFCURVE",
"296 451 OFFCURVE",
"296 440 CURVE SMOOTH",
"296 429 OFFCURVE",
"297 413 OFFCURVE",
"300 400 CURVE",
"360 400 LINE",
"363 413 OFFCURVE",
"364 429 OFFCURVE",
"364 440 CURVE SMOOTH",
"364 451 OFFCURVE",
"363 468 OFFCURVE",
"360 480 CURVE",
"300 480 LINE"
);
},
{
closed = 1;
nodes = (
"227 548 OFFCURVE",
"226 531 OFFCURVE",
"226 520 CURVE SMOOTH",
"226 509 OFFCURVE",
"227 493 OFFCURVE",
"230 480 CURVE",
"360 480 LINE",
"363 493 OFFCURVE",
"364 509 OFFCURVE",
"364 520 CURVE SMOOTH",
"364 531 OFFCURVE",
"363 548 OFFCURVE",
"360 560 CURVE",
"230 560 LINE"
);
},
{
closed = 1;
nodes = (
"297 388 OFFCURVE",
"296 371 OFFCURVE",
"296 360 CURVE SMOOTH",
"296 349 OFFCURVE",
"297 333 OFFCURVE",
"300 320 CURVE",
"360 320 LINE",
"363 333 OFFCURVE",
"364 349 OFFCURVE",
"364 360 CURVE SMOOTH",
"364 371 OFFCURVE",
"363 388 OFFCURVE",
"360 400 CURVE",
"300 400 LINE"
);
},
{
closed = 1;
nodes = (
"277 228 OFFCURVE",
"276 211 OFFCURVE",
"276 200 CURVE SMOOTH",
"276 189 OFFCURVE",
"277 173 OFFCURVE",
"280 160 CURVE",
"340 160 LINE",
"343 173 OFFCURVE",
"344 189 OFFCURVE",
"344 200 CURVE SMOOTH",
"344 211 OFFCURVE",
"343 228 OFFCURVE",
"340 240 CURVE",
"280 240 LINE"
);
},
{
closed = 1;
nodes = (
"137 708 OFFCURVE",
"136 691 OFFCURVE",
"136 680 CURVE SMOOTH",
"136 669 OFFCURVE",
"137 653 OFFCURVE",
"140 640 CURVE",
"260 640 LINE",
"263 653 OFFCURVE",
"264 669 OFFCURVE",
"264 680 CURVE SMOOTH",
"264 691 OFFCURVE",
"263 708 OFFCURVE",
"260 720 CURVE",
"140 720 LINE"
);
},
{
closed = 1;
nodes = (
"227 788 OFFCURVE",
"226 771 OFFCURVE",
"226 760 CURVE SMOOTH",
"226 749 OFFCURVE",
"227 733 OFFCURVE",
"230 720 CURVE",
"310 720 LINE",
"313 733 OFFCURVE",
"314 749 OFFCURVE",
"314 760 CURVE SMOOTH",
"314 771 OFFCURVE",
"313 788 OFFCURVE",
"310 800 CURVE",
"230 800 LINE"
);
},
{
closed = 1;
nodes = (
"87 788 OFFCURVE",
"86 771 OFFCURVE",
"86 760 CURVE SMOOTH",
"86 749 OFFCURVE",
"87 733 OFFCURVE",
"90 720 CURVE",
"170 720 LINE",
"173 733 OFFCURVE",
"174 749 OFFCURVE",
"174 760 CURVE SMOOTH",
"174 771 OFFCURVE",
"173 788 OFFCURVE",
"170 800 CURVE",
"90 800 LINE"
);
}
);
width = 400;
}
);
unicode = 01C4;
},
{
color = 3;
glyphname = Eth;
lastChange = "2016-07-06 09:11:00 +0000";
layers = (
{
layerId = "DA6254B3-9514-4A47-8309-1A9185AEAC97";
paths = (
{
closed = 1;
nodes = (
"77 148 OFFCURVE",
"76 131 OFFCURVE",
"76 120 CURVE SMOOTH",
"76 109 OFFCURVE",
"77 93 OFFCURVE",
"80 80 CURVE",
"160 80 LINE",
"163 93 OFFCURVE",
"164 109 OFFCURVE",
"164 120 CURVE SMOOTH",
"164 131 OFFCURVE",
"163 148 OFFCURVE",
"160 160 CURVE",
"80 160 LINE"
);
},
{
closed = 1;
nodes = (
"77 228 OFFCURVE",
"76 211 OFFCURVE",
"76 200 CURVE SMOOTH",
"76 189 OFFCURVE",
"77 173 OFFCURVE",
"80 160 CURVE",
"160 160 LINE",
"163 173 OFFCURVE",
"164 189 OFFCURVE",
"164 200 CURVE SMOOTH",
"164 211 OFFCURVE",
"163 228 OFFCURVE",
"160 240 CURVE",
"80 240 LINE"
);
},
{
closed = 1;
nodes = (
"77 388 OFFCURVE",
"76 371 OFFCURVE",
"76 360 CURVE SMOOTH",
"76 349 OFFCURVE",
"77 333 OFFCURVE",
"80 320 CURVE",
"160 320 LINE",
"163 333 OFFCURVE",
"164 349 OFFCURVE",
"164 360 CURVE SMOOTH",
"164 371 OFFCURVE",
"163 388 OFFCURVE",
"160 400 CURVE",
"80 400 LINE"
);
},
{
closed = 1;
nodes = (
"77 468 OFFCURVE",
"76 451 OFFCURVE",
"76 440 CURVE SMOOTH",
"76 429 OFFCURVE",
"77 413 OFFCURVE",
"80 400 CURVE",
"160 400 LINE",
"163 413 OFFCURVE",
"164 429 OFFCURVE",
"164 440 CURVE SMOOTH",
"164 451 OFFCURVE",
"163 468 OFFCURVE",
"160 480 CURVE",
"80 480 LINE"
);
},
{
closed = 1;
nodes = (
"37 548 OFFCURVE",
"36 531 OFFCURVE",
"36 520 CURVE SMOOTH",
"36 509 OFFCURVE",
"37 493 OFFCURVE",
"40 480 CURVE",
"200 480 LINE",
"203 493 OFFCURVE",
"204 509 OFFCURVE",
"204 520 CURVE SMOOTH",
"204 531 OFFCURVE",
"203 548 OFFCURVE",
"200 560 CURVE",
"40 560 LINE"
);
},
{
closed = 1;
nodes = (
"197 548 OFFCURVE",
"196 531 OFFCURVE",
"196 520 CURVE SMOOTH",
"196 509 OFFCURVE",
"197 493 OFFCURVE",
"200 480 CURVE",
"280 480 LINE",
"283 493 OFFCURVE",
"284 509 OFFCURVE",
"284 520 CURVE SMOOTH",
"284 531 OFFCURVE",
"283 548 OFFCURVE",
"280 560 CURVE",
"200 560 LINE"
);
},
{
closed = 1;
nodes = (
"37 68 OFFCURVE",
"36 51 OFFCURVE",
"36 40 CURVE SMOOTH",
"36 29 OFFCURVE",
"37 13 OFFCURVE",
"40 0 CURVE",
"200 0 LINE",
"203 13 OFFCURVE",
"204 29 OFFCURVE",
"204 40 CURVE SMOOTH",
"204 51 OFFCURVE",
"203 68 OFFCURVE",
"200 80 CURVE",
"40 80 LINE"
);
},
{
closed = 1;
nodes = (
"197 68 OFFCURVE",
"196 51 OFFCURVE",
"196 40 CURVE SMOOTH",
"196 29 OFFCURVE",
"197 13 OFFCURVE",
"200 0 CURVE",
"280 0 LINE",
"283 13 OFFCURVE",
"284 29 OFFCURVE",
"284 40 CURVE SMOOTH",
"284 51 OFFCURVE",
"283 68 OFFCURVE",
"280 80 CURVE",
"200 80 LINE"
);
},
{
closed = 1;
nodes = (
"237 148 OFFCURVE",
"236 131 OFFCURVE",
"236 120 CURVE SMOOTH",
"236 109 OFFCURVE",
"237 93 OFFCURVE",
"240 80 CURVE",
"320 80 LINE",
"323 93 OFFCURVE",
"324 109 OFFCURVE",
"324 120 CURVE SMOOTH",
"324 131 OFFCURVE",
"323 148 OFFCURVE",
"320 160 CURVE",
"240 160 LINE"
);
},
{
closed = 1;
nodes = (
"277 228 OFFCURVE",
"276 211 OFFCURVE",
"276 200 CURVE SMOOTH",
"276 189 OFFCURVE",
"277 173 OFFCURVE",
"280 160 CURVE",
"360 160 LINE",
"363 173 OFFCURVE",
"364 189 OFFCURVE",
"364 200 CURVE SMOOTH",
"364 211 OFFCURVE",
"363 228 OFFCURVE",
"360 240 CURVE",
"280 240 LINE"
);
},
{
closed = 1;
nodes = (
"277 388 OFFCURVE",
"276 371 OFFCURVE",
"276 360 CURVE SMOOTH",
"276 349 OFFCURVE",
"277 333 OFFCURVE",
"280 320 CURVE",
"360 320 LINE",
"363 333 OFFCURVE",
"364 349 OFFCURVE",
"364 360 CURVE SMOOTH",
"364 371 OFFCURVE",
"363 388 OFFCURVE",
"360 400 CURVE",
"280 400 LINE"
);
},
{
closed = 1;
nodes = (
"237 468 OFFCURVE",
"236 451 OFFCURVE",
"236 440 CURVE SMOOTH",
"236 429 OFFCURVE",
"237 413 OFFCURVE",
"240 400 CURVE",
"320 400 LINE",
"323 413 OFFCURVE",
"324 429 OFFCURVE",
"324 440 CURVE SMOOTH",
"324 451 OFFCURVE",
"323 468 OFFCURVE",
"320 480 CURVE",
"240 480 LINE"
);
},
{
closed = 1;
nodes = (
"37 308 OFFCURVE",
"36 291 OFFCURVE",
"36 280 CURVE SMOOTH",
"36 269 OFFCURVE",
"37 253 OFFCURVE",
"40 240 CURVE",
"200 240 LINE",
"203 253 OFFCURVE",
"204 269 OFFCURVE",
"204 280 CURVE SMOOTH",
"204 291 OFFCURVE",
"203 308 OFFCURVE",
"200 320 CURVE",
"40 320 LINE"
);
},
{
closed = 1;
nodes = (
"277 308 OFFCURVE",
"276 291 OFFCURVE",
"276 280 CURVE SMOOTH",
"276 269 OFFCURVE",
"277 253 OFFCURVE",
"280 240 CURVE",
"360 240 LINE",
"363 253 OFFCURVE",
"364 269 OFFCURVE",
"364 280 CURVE SMOOTH",
"364 291 OFFCURVE",
"363 308 OFFCURVE",
"360 320 CURVE",
"280 320 LINE"
);
}
);
width = 400;
}
);
unicode = 00D0;
},
{
color = 3;
glyphname = Dzcaron;
lastChange = "2016-07-06 09:11:00 +0000";
layers = (
{
layerId = "DA6254B3-9514-4A47-8309-1A9185AEAC97";
paths = (
{
closed = 1;
nodes = (
"37 148 OFFCURVE",
"36 131 OFFCURVE",
"36 120 CURVE SMOOTH",
"36 109 OFFCURVE",
"37 93 OFFCURVE",
"40 80 CURVE",
"100 80 LINE",
"103 93 OFFCURVE",
"104 109 OFFCURVE",
"104 120 CURVE SMOOTH",
"104 131 OFFCURVE",
"103 148 OFFCURVE",
"100 160 CURVE",
"40 160 LINE"
);
},
{
closed = 1;
nodes = (
"37 228 OFFCURVE",
"36 211 OFFCURVE",
"36 200 CURVE SMOOTH",
"36 189 OFFCURVE",
"37 173 OFFCURVE",
"40 160 CURVE",
"100 160 LINE",
"103 173 OFFCURVE",
"104 189 OFFCURVE",
"104 200 CURVE SMOOTH",
"104 211 OFFCURVE",
"103 228 OFFCURVE",
"100 240 CURVE",
"40 240 LINE"
);
},
{
closed = 1;
nodes = (
"37 388 OFFCURVE",
"36 371 OFFCURVE",
"36 360 CURVE SMOOTH",
"36 349 OFFCURVE",
"37 333 OFFCURVE",
"40 320 CURVE",
"100 320 LINE",
"103 333 OFFCURVE",
"104 349 OFFCURVE",
"104 360 CURVE SMOOTH",
"104 371 OFFCURVE",
"103 388 OFFCURVE",
"100 400 CURVE",
"40 400 LINE"
);
},
{
closed = 1;
nodes = (
"37 468 OFFCURVE",
"36 451 OFFCURVE",
"36 440 CURVE SMOOTH",
"36 429 OFFCURVE",
"37 413 OFFCURVE",
"40 400 CURVE",
"100 400 LINE",
"103 413 OFFCURVE",
"104 429 OFFCURVE",
"104 440 CURVE SMOOTH",
"104 451 OFFCURVE",
"103 468 OFFCURVE",
"100 480 CURVE",
"40 480 LINE"
);
},
{
closed = 1;
nodes = (
"37 548 OFFCURVE",
"36 531 OFFCURVE",
"36 520 CURVE SMOOTH",
"36 509 OFFCURVE",
"37 493 OFFCURVE",
"40 480 CURVE",
"170 480 LINE",
"173 493 OFFCURVE",
"174 509 OFFCURVE",
"174 520 CURVE SMOOTH",
"174 531 OFFCURVE",
"173 548 OFFCURVE",
"170 560 CURVE",
"40 560 LINE"
);
},
{
closed = 1;
nodes = (
"37 68 OFFCURVE",
"36 51 OFFCURVE",
"36 40 CURVE SMOOTH",
"36 29 OFFCURVE",
"37 13 OFFCURVE",
"40 0 CURVE",
"170 0 LINE",
"173 13 OFFCURVE",
"174 29 OFFCURVE",
"174 40 CURVE SMOOTH",
"174 51 OFFCURVE",
"173 68 OFFCURVE",
"170 80 CURVE",
"40 80 LINE"
);
},
{
closed = 1;
nodes = (
"37 308 OFFCURVE",
"36 291 OFFCURVE",
"36 280 CURVE SMOOTH",
"36 269 OFFCURVE",
"37 253 OFFCURVE",
"40 240 CURVE",
"100 240 LINE",
"103 253 OFFCURVE",
"104 269 OFFCURVE",
"104 280 CURVE SMOOTH",
"104 291 OFFCURVE",
"103 308 OFFCURVE",
"100 320 CURVE",
"40 320 LINE"
);
},
{
closed = 1;
nodes = (
"137 148 OFFCURVE",
"136 131 OFFCURVE",
"136 120 CURVE SMOOTH",
"136 109 OFFCURVE",
"137 93 OFFCURVE",
"140 80 CURVE",
"200 80 LINE",
"203 93 OFFCURVE",
"204 109 OFFCURVE",
"204 120 CURVE SMOOTH",
"204 131 OFFCURVE",
"203 148 OFFCURVE",
"200 160 CURVE",
"140 160 LINE"
);
},
{
closed = 1;
nodes = (
"167 228 OFFCURVE",
"166 211 OFFCURVE",
"166 200 CURVE SMOOTH",
"166 189 OFFCURVE",
"167 173 OFFCURVE",
"170 160 CURVE",
"230 160 LINE",
"233 173 OFFCURVE",
"234 189 OFFCURVE",
"234 200 CURVE SMOOTH",
"234 211 OFFCURVE",
"233 228 OFFCURVE",
"230 240 CURVE",
"170 240 LINE"
);
},
{
closed = 1;
nodes = (
"167 388 OFFCURVE",
"166 371 OFFCURVE",
"166 360 CURVE SMOOTH",
"166 349 OFFCURVE",
"167 333 OFFCURVE",
"170 320 CURVE",
"230 320 LINE",
"233 333 OFFCURVE",
"234 349 OFFCURVE",
"234 360 CURVE SMOOTH",
"234 371 OFFCURVE",
"233 388 OFFCURVE",
"230 400 CURVE",
"170 400 LINE"
);
},
{
closed = 1;
nodes = (
"137 468 OFFCURVE",
"136 451 OFFCURVE",
"136 440 CURVE SMOOTH",
"136 429 OFFCURVE",
"137 413 OFFCURVE",
"140 400 CURVE",
"200 400 LINE",
"203 413 OFFCURVE",
"204 429 OFFCURVE",
"204 440 CURVE SMOOTH",
"204 451 OFFCURVE",
"203 468 OFFCURVE",
"200 480 CURVE",
"140 480 LINE"
);
},
{
closed = 1;
nodes = (
"167 308 OFFCURVE",
"166 291 OFFCURVE",
"166 280 CURVE SMOOTH",
"166 269 OFFCURVE",
"167 253 OFFCURVE",
"170 240 CURVE",
"230 240 LINE",
"233 253 OFFCURVE",
"234 269 OFFCURVE",
"234 280 CURVE SMOOTH",
"234 291 OFFCURVE",
"233 308 OFFCURVE",
"230 320 CURVE",
"170 320 LINE"
);
},
{
closed = 1;
nodes = (
"227 68 OFFCURVE",
"226 51 OFFCURVE",
"226 40 CURVE SMOOTH",
"226 29 OFFCURVE",
"227 13 OFFCURVE",
"230 0 CURVE",
"360 0 LINE",
"363 13 OFFCURVE",
"364 29 OFFCURVE",
"364 40 CURVE SMOOTH",
"364 51 OFFCURVE",
"363 68 OFFCURVE",
"360 80 CURVE",
"230 80 LINE"
);
},
{
closed = 1;
nodes = (
"247 148 OFFCURVE",
"246 131 OFFCURVE",
"246 120 CURVE SMOOTH",
"246 109 OFFCURVE",
"247 93 OFFCURVE",
"250 80 CURVE",
"310 80 LINE",
"313 93 OFFCURVE",
"314 109 OFFCURVE",
"314 120 CURVE SMOOTH",
"314 131 OFFCURVE",
"313 148 OFFCURVE",
"310 160 CURVE",
"250 160 LINE"
);
},
{
closed = 1;
nodes = (
"277 228 OFFCURVE",
"276 211 OFFCURVE",
"276 200 CURVE SMOOTH",
"276 189 OFFCURVE",
"277 173 OFFCURVE",
"280 160 CURVE",
"340 160 LINE",
"343 173 OFFCURVE",
"344 189 OFFCURVE",
"344 200 CURVE SMOOTH",
"344 211 OFFCURVE",
"343 228 OFFCURVE",
"340 240 CURVE",
"280 240 LINE"
);
},
{
closed = 1;
nodes = (
"297 308 OFFCURVE",
"296 291 OFFCURVE",
"296 280 CURVE SMOOTH",
"296 269 OFFCURVE",
"297 253 OFFCURVE",
"300 240 CURVE",
"360 240 LINE",
"363 253 OFFCURVE",
"364 269 OFFCURVE",
"364 280 CURVE SMOOTH",
"364 291 OFFCURVE",
"363 308 OFFCURVE",
"360 320 CURVE",
"300 320 LINE"
);
},
{
closed = 1;
nodes = (
"227 388 OFFCURVE",
"226 371 OFFCURVE",
"226 360 CURVE SMOOTH",
"226 349 OFFCURVE",
"227 333 OFFCURVE",
"230 320 CURVE",
"360 320 LINE",
"363 333 OFFCURVE",
"364 349 OFFCURVE",
"364 360 CURVE SMOOTH",
"364 371 OFFCURVE",
"363 388 OFFCURVE",
"360 400 CURVE",
"230 400 LINE"
);
},
{
closed = 1;
nodes = (
"137 708 OFFCURVE",
"136 691 OFFCURVE",
"136 680 CURVE SMOOTH",
"136 669 OFFCURVE",
"137 653 OFFCURVE",
"140 640 CURVE",
"260 640 LINE",
"263 653 OFFCURVE",
"264 669 OFFCURVE",
"264 680 CURVE SMOOTH",
"264 691 OFFCURVE",
"263 708 OFFCURVE",
"260 720 CURVE",
"140 720 LINE"
);
},
{
closed = 1;
nodes = (
"227 788 OFFCURVE",
"226 771 OFFCURVE",
"226 760 CURVE SMOOTH",
"226 749 OFFCURVE",
"227 733 OFFCURVE",
"230 720 CURVE",
"310 720 LINE",
"313 733 OFFCURVE",
"314 749 OFFCURVE",
"314 760 CURVE SMOOTH",
"314 771 OFFCURVE",
"313 788 OFFCURVE",
"310 800 CURVE",
"230 800 LINE"
);
},
{
closed = 1;
nodes = (
"87 788 OFFCURVE",
"86 771 OFFCURVE",
"86 760 CURVE SMOOTH",
"86 749 OFFCURVE",
"87 733 OFFCURVE",
"90 720 CURVE",
"170 720 LINE",
"173 733 OFFCURVE",
"174 749 OFFCURVE",
"174 760 CURVE SMOOTH",
"174 771 OFFCURVE",
"173 788 OFFCURVE",
"170 800 CURVE",
"90 800 LINE"
);
}
);
width = 400;
}
);
unicode = 01C5;
},
{
color = 3;
glyphname = E;
lastChange = "2016-07-06 09:11:00 +0000";
layers = (
{
anchors = (
{
name = bottom;
position = "{200, 0}";
},
{
name = ogonek;
position = "{300, 10}";
},
{
name = top;
position = "{200, 560}";
},
{
name = topleft;
position = "{40, 560}";
}
);
layerId = "DA6254B3-9514-4A47-8309-1A9185AEAC97";
paths = (
{
closed = 1;
nodes = (
"77 68 OFFCURVE",
"76 51 OFFCURVE",
"76 40 CURVE SMOOTH",
"76 29 OFFCURVE",
"77 13 OFFCURVE",
"80 0 CURVE",
"240 0 LINE",
"243 13 OFFCURVE",
"244 29 OFFCURVE",
"244 40 CURVE SMOOTH",
"244 51 OFFCURVE",
"243 68 OFFCURVE",
"240 80 CURVE",
"80 80 LINE"
);
},
{
closed = 1;
nodes = (
"77 148 OFFCURVE",
"76 131 OFFCURVE",
"76 120 CURVE SMOOTH",
"76 109 OFFCURVE",
"77 93 OFFCURVE",
"80 80 CURVE",
"160 80 LINE",
"163 93 OFFCURVE",
"164 109 OFFCURVE",
"164 120 CURVE SMOOTH",
"164 131 OFFCURVE",
"163 148 OFFCURVE",
"160 160 CURVE",
"80 160 LINE"
);
},
{
closed = 1;
nodes = (
"77 228 OFFCURVE",
"76 211 OFFCURVE",
"76 200 CURVE SMOOTH",
"76 189 OFFCURVE",
"77 173 OFFCURVE",
"80 160 CURVE",
"160 160 LINE",
"163 173 OFFCURVE",
"164 189 OFFCURVE",
"164 200 CURVE SMOOTH",
"164 211 OFFCURVE",
"163 228 OFFCURVE",
"160 240 CURVE",
"80 240 LINE"
);
},
{
closed = 1;
nodes = (
"77 308 OFFCURVE",
"76 291 OFFCURVE",
"76 280 CURVE SMOOTH",
"76 269 OFFCURVE",
"77 253 OFFCURVE",
"80 240 CURVE",
"240 240 LINE",
"243 253 OFFCURVE",
"244 269 OFFCURVE",
"244 280 CURVE SMOOTH",
"244 291 OFFCURVE",
"243 308 OFFCURVE",
"240 320 CURVE",
"80 320 LINE"
);
},
{
closed = 1;
nodes = (
"77 388 OFFCURVE",
"76 371 OFFCURVE",
"76 360 CURVE SMOOTH",
"76 349 OFFCURVE",
"77 333 OFFCURVE",
"80 320 CURVE",
"160 320 LINE",
"163 333 OFFCURVE",
"164 349 OFFCURVE",
"164 360 CURVE SMOOTH",
"164 371 OFFCURVE",
"163 388 OFFCURVE",
"160 400 CURVE",
"80 400 LINE"
);
},
{
closed = 1;
nodes = (
"77 468 OFFCURVE",
"76 451 OFFCURVE",
"76 440 CURVE SMOOTH",
"76 429 OFFCURVE",
"77 413 OFFCURVE",
"80 400 CURVE",
"160 400 LINE",
"163 413 OFFCURVE",
"164 429 OFFCURVE",
"164 440 CURVE SMOOTH",
"164 451 OFFCURVE",
"163 468 OFFCURVE",
"160 480 CURVE",
"80 480 LINE"
);
},
{
closed = 1;
nodes = (
"77 548 OFFCURVE",
"76 531 OFFCURVE",
"76 520 CURVE SMOOTH",
"76 509 OFFCURVE",
"77 493 OFFCURVE",
"80 480 CURVE",
"240 480 LINE",
"243 493 OFFCURVE",
"244 509 OFFCURVE",
"244 520 CURVE SMOOTH",
"244 531 OFFCURVE",
"243 548 OFFCURVE",
"240 560 CURVE",
"80 560 LINE"
);
},
{
closed = 1;
nodes = (
"237 548 OFFCURVE",
"236 531 OFFCURVE",
"236 520 CURVE SMOOTH",
"236 509 OFFCURVE",
"237 493 OFFCURVE",
"240 480 CURVE",
"320 480 LINE",
"323 493 OFFCURVE",
"324 509 OFFCURVE",
"324 520 CURVE SMOOTH",
"324 531 OFFCURVE",
"323 548 OFFCURVE",
"320 560 CURVE",
"240 560 LINE"
);
},
{
closed = 1;
nodes = (
"237 308 OFFCURVE",
"236 291 OFFCURVE",
"236 280 CURVE SMOOTH",
"236 269 OFFCURVE",
"237 253 OFFCURVE",
"240 240 CURVE",
"320 240 LINE",
"323 253 OFFCURVE",
"324 269 OFFCURVE",
"324 280 CURVE SMOOTH",
"324 291 OFFCURVE",
"323 308 OFFCURVE",
"320 320 CURVE",
"240 320 LINE"
);
},
{
closed = 1;
nodes = (
"237 68 OFFCURVE",
"236 51 OFFCURVE",
"236 40 CURVE SMOOTH",
"236 29 OFFCURVE",
"237 13 OFFCURVE",
"240 0 CURVE",
"320 0 LINE",
"323 13 OFFCURVE",
"324 29 OFFCURVE",
"324 40 CURVE SMOOTH",
"324 51 OFFCURVE",
"323 68 OFFCURVE",
"320 80 CURVE",
"240 80 LINE"
);
}
);
width = 400;
}
);
unicode = 0045;
},
{
color = 3;
glyphname = F;
lastChange = "2016-07-06 09:11:00 +0000";
layers = (
{
anchors = (
{
name = bottom;
position = "{200, 0}";
},
{
name = top;
position = "{200, 560}";
}
);
layerId = "DA6254B3-9514-4A47-8309-1A9185AEAC97";
paths = (
{
closed = 1;
nodes = (
"77 148 OFFCURVE",
"76 131 OFFCURVE",
"76 120 CURVE SMOOTH",
"76 109 OFFCURVE",
"77 93 OFFCURVE",
"80 80 CURVE",
"160 80 LINE",
"163 93 OFFCURVE",
"164 109 OFFCURVE",
"164 120 CURVE SMOOTH",
"164 131 OFFCURVE",
"163 148 OFFCURVE",
"160 160 CURVE",
"80 160 LINE"
);
},
{
closed = 1;
nodes = (
"77 228 OFFCURVE",
"76 211 OFFCURVE",
"76 200 CURVE SMOOTH",
"76 189 OFFCURVE",
"77 173 OFFCURVE",
"80 160 CURVE",
"160 160 LINE",
"163 173 OFFCURVE",
"164 189 OFFCURVE",
"164 200 CURVE SMOOTH",
"164 211 OFFCURVE",
"163 228 OFFCURVE",
"160 240 CURVE",
"80 240 LINE"
);
},
{
closed = 1;
nodes = (
"77 308 OFFCURVE",
"76 291 OFFCURVE",
"76 280 CURVE SMOOTH",
"76 269 OFFCURVE",
"77 253 OFFCURVE",
"80 240 CURVE",
"240 240 LINE",
"243 253 OFFCURVE",
"244 269 OFFCURVE",
"244 280 CURVE SMOOTH",
"244 291 OFFCURVE",
"243 308 OFFCURVE",
"240 320 CURVE",
"80 320 LINE"
);
},
{
closed = 1;
nodes = (
"77 388 OFFCURVE",
"76 371 OFFCURVE",
"76 360 CURVE SMOOTH",
"76 349 OFFCURVE",
"77 333 OFFCURVE",
"80 320 CURVE",
"160 320 LINE",
"163 333 OFFCURVE",
"164 349 OFFCURVE",
"164 360 CURVE SMOOTH",
"164 371 OFFCURVE",
"163 388 OFFCURVE",
"160 400 CURVE",
"80 400 LINE"
);
},
{
closed = 1;
nodes = (
"77 468 OFFCURVE",
"76 451 OFFCURVE",
"76 440 CURVE SMOOTH",
"76 429 OFFCURVE",
"77 413 OFFCURVE",
"80 400 CURVE",
"160 400 LINE",
"163 413 OFFCURVE",
"164 429 OFFCURVE",
"164 440 CURVE SMOOTH",
"164 451 OFFCURVE",
"163 468 OFFCURVE",
"160 480 CURVE",
"80 480 LINE"
);
},
{
closed = 1;
nodes = (
"77 548 OFFCURVE",
"76 531 OFFCURVE",
"76 520 CURVE SMOOTH",
"76 509 OFFCURVE",
"77 493 OFFCURVE",
"80 480 CURVE",
"240 480 LINE",
"243 493 OFFCURVE",
"244 509 OFFCURVE",
"244 520 CURVE SMOOTH",
"244 531 OFFCURVE",
"243 548 OFFCURVE",
"240 560 CURVE",
"80 560 LINE"
);
},
{
closed = 1;
nodes = (
"237 548 OFFCURVE",
"236 531 OFFCURVE",
"236 520 CURVE SMOOTH",
"236 509 OFFCURVE",
"237 493 OFFCURVE",
"240 480 CURVE",
"320 480 LINE",
"323 493 OFFCURVE",
"324 509 OFFCURVE",
"324 520 CURVE SMOOTH",
"324 531 OFFCURVE",
"323 548 OFFCURVE",
"320 560 CURVE",
"240 560 LINE"
);
},
{
closed = 1;
nodes = (
"237 308 OFFCURVE",
"236 291 OFFCURVE",
"236 280 CURVE SMOOTH",
"236 269 OFFCURVE",
"237 253 OFFCURVE",
"240 240 CURVE",
"320 240 LINE",
"323 253 OFFCURVE",
"324 269 OFFCURVE",
"324 280 CURVE SMOOTH",
"324 291 OFFCURVE",
"323 308 OFFCURVE",
"320 320 CURVE",
"240 320 LINE"
);
},
{
closed = 1;
nodes = (
"77 68 OFFCURVE",
"76 51 OFFCURVE",
"76 40 CURVE SMOOTH",
"76 29 OFFCURVE",
"77 13 OFFCURVE",
"80 0 CURVE",
"160 0 LINE",
"163 13 OFFCURVE",
"164 29 OFFCURVE",
"164 40 CURVE SMOOTH",
"164 51 OFFCURVE",
"163 68 OFFCURVE",
"160 80 CURVE",
"80 80 LINE"
);
}
);
width = 400;
}
);
unicode = 0046;
},
{
color = 3;
glyphname = G;
lastChange = "2016-07-06 09:11:00 +0000";
layers = (
{
anchors = (
{
name = bottom;
position = "{220, 0}";
},
{
name = top;
position = "{220, 560}";
}
);
layerId = "DA6254B3-9514-4A47-8309-1A9185AEAC97";
paths = (
{
closed = 1;
nodes = (
"37 228 OFFCURVE",
"36 211 OFFCURVE",
"36 200 CURVE SMOOTH",
"36 189 OFFCURVE",
"37 173 OFFCURVE",
"40 160 CURVE",
"120 160 LINE",
"123 173 OFFCURVE",
"124 189 OFFCURVE",
"124 200 CURVE SMOOTH",
"124 211 OFFCURVE",
"123 228 OFFCURVE",
"120 240 CURVE",
"40 240 LINE"
);
},
{
closed = 1;
nodes = (
"37 388 OFFCURVE",
"36 371 OFFCURVE",
"36 360 CURVE SMOOTH",
"36 349 OFFCURVE",
"37 333 OFFCURVE",
"40 320 CURVE",
"120 320 LINE",
"123 333 OFFCURVE",
"124 349 OFFCURVE",
"124 360 CURVE SMOOTH",
"124 371 OFFCURVE",
"123 388 OFFCURVE",
"120 400 CURVE",
"40 400 LINE"
);
},
{
closed = 1;
nodes = (
"77 468 OFFCURVE",
"76 451 OFFCURVE",
"76 440 CURVE SMOOTH",
"76 429 OFFCURVE",
"77 413 OFFCURVE",
"80 400 CURVE",
"160 400 LINE",
"163 413 OFFCURVE",
"164 429 OFFCURVE",
"164 440 CURVE SMOOTH",
"164 451 OFFCURVE",
"163 468 OFFCURVE",
"160 480 CURVE",
"80 480 LINE"
);
},
{
closed = 1;
nodes = (
"117 548 OFFCURVE",
"116 531 OFFCURVE",
"116 520 CURVE SMOOTH",
"116 509 OFFCURVE",
"117 493 OFFCURVE",
"120 480 CURVE",
"240 480 LINE",
"243 493 OFFCURVE",
"244 509 OFFCURVE",
"244 520 CURVE SMOOTH",
"244 531 OFFCURVE",
"243 548 OFFCURVE",
"240 560 CURVE",
"120 560 LINE"
);
},
{
closed = 1;
nodes = (
"37 308 OFFCURVE",
"36 291 OFFCURVE",
"36 280 CURVE SMOOTH",
"36 269 OFFCURVE",
"37 253 OFFCURVE",
"40 240 CURVE",
"120 240 LINE",
"123 253 OFFCURVE",
"124 269 OFFCURVE",
"124 280 CURVE SMOOTH",
"124 291 OFFCURVE",
"123 308 OFFCURVE",
"120 320 CURVE",
"40 320 LINE"
);
},
{
closed = 1;
nodes = (
"77 148 OFFCURVE",
"76 131 OFFCURVE",
"76 120 CURVE SMOOTH",
"76 109 OFFCURVE",
"77 93 OFFCURVE",
"80 80 CURVE",
"160 80 LINE",
"163 93 OFFCURVE",
"164 109 OFFCURVE",
"164 120 CURVE SMOOTH",
"164 131 OFFCURVE",
"163 148 OFFCURVE",
"160 160 CURVE",
"80 160 LINE"
);
},
{
closed = 1;
nodes = (
"277 468 OFFCURVE",
"276 451 OFFCURVE",
"276 440 CURVE SMOOTH",
"276 429 OFFCURVE",
"277 413 OFFCURVE",
"280 400 CURVE",
"360 400 LINE",
"363 413 OFFCURVE",
"364 429 OFFCURVE",
"364 440 CURVE SMOOTH",
"364 451 OFFCURVE",
"363 468 OFFCURVE",
"360 480 CURVE",
"280 480 LINE"
);
},
{
closed = 1;
nodes = (
"277 148 OFFCURVE",
"276 131 OFFCURVE",
"276 120 CURVE SMOOTH",
"276 109 OFFCURVE",
"277 93 OFFCURVE",
"280 80 CURVE",
"360 80 LINE",
"363 93 OFFCURVE",
"364 109 OFFCURVE",
"364 120 CURVE SMOOTH",
"364 131 OFFCURVE",
"363 148 OFFCURVE",
"360 160 CURVE",
"280 160 LINE"
);
},
{
closed = 1;
nodes = (
"237 548 OFFCURVE",
"236 531 OFFCURVE",
"236 520 CURVE SMOOTH",
"236 509 OFFCURVE",
"237 493 OFFCURVE",
"240 480 CURVE",
"320 480 LINE",
"323 493 OFFCURVE",
"324 509 OFFCURVE",
"324 520 CURVE SMOOTH",
"324 531 OFFCURVE",
"323 548 OFFCURVE",
"320 560 CURVE",
"240 560 LINE"
);
},
{
closed = 1;
nodes = (
"117 68 OFFCURVE",
"116 51 OFFCURVE",
"116 40 CURVE SMOOTH",
"116 29 OFFCURVE",
"117 13 OFFCURVE",
"120 0 CURVE",
"240 0 LINE",
"243 13 OFFCURVE",
"244 29 OFFCURVE",
"244 40 CURVE SMOOTH",
"244 51 OFFCURVE",
"243 68 OFFCURVE",
"240 80 CURVE",
"120 80 LINE"
);
},
{
closed = 1;
nodes = (
"237 68 OFFCURVE",
"236 51 OFFCURVE",
"236 40 CURVE SMOOTH",
"236 29 OFFCURVE",
"237 13 OFFCURVE",
"240 0 CURVE",
"320 0 LINE",
"323 13 OFFCURVE",
"324 29 OFFCURVE",
"324 40 CURVE SMOOTH",
"324 51 OFFCURVE",
"323 68 OFFCURVE",
"320 80 CURVE",
"240 80 LINE"
);
},
{
closed = 1;
nodes = (
"277 228 OFFCURVE",
"276 211 OFFCURVE",
"276 200 CURVE SMOOTH",
"276 189 OFFCURVE",
"277 173 OFFCURVE",
"280 160 CURVE",
"360 160 LINE",
"363 173 OFFCURVE",
"364 189 OFFCURVE",
"364 200 CURVE SMOOTH",
"364 211 OFFCURVE",
"363 228 OFFCURVE",
"360 240 CURVE",
"280 240 LINE"
);
},
{
closed = 1;
nodes = (
"217 308 OFFCURVE",
"216 291 OFFCURVE",
"216 280 CURVE SMOOTH",
"216 269 OFFCURVE",
"217 253 OFFCURVE",
"220 240 CURVE",
"360 240 LINE",
"363 253 OFFCURVE",
"364 269 OFFCURVE",
"364 280 CURVE SMOOTH",
"364 291 OFFCURVE",
"363 308 OFFCURVE",
"360 320 CURVE",
"220 320 LINE"
);
}
);
width = 400;
}
);
unicode = 0047;
},
{
color = 3;
glyphname = H;
lastChange = "2016-07-06 09:11:00 +0000";
layers = (
{
anchors = (
{
name = bottom;
position = "{200, 0}";
},
{
name = center;
position = "{200, 280}";
},
{
name = top;
position = "{200, 560}";
},
{
name = topleft;
position = "{40, 560}";
}
);
layerId = "DA6254B3-9514-4A47-8309-1A9185AEAC97";
paths = (
{
closed = 1;
nodes = (
"37 148 OFFCURVE",
"36 131 OFFCURVE",
"36 120 CURVE SMOOTH",
"36 109 OFFCURVE",
"37 93 OFFCURVE",
"40 80 CURVE",
"120 80 LINE",
"123 93 OFFCURVE",
"124 109 OFFCURVE",
"124 120 CURVE SMOOTH",
"124 131 OFFCURVE",
"123 148 OFFCURVE",
"120 160 CURVE",
"40 160 LINE"
);
},
{
closed = 1;
nodes = (
"37 228 OFFCURVE",
"36 211 OFFCURVE",
"36 200 CURVE SMOOTH",
"36 189 OFFCURVE",
"37 173 OFFCURVE",
"40 160 CURVE",
"120 160 LINE",
"123 173 OFFCURVE",
"124 189 OFFCURVE",
"124 200 CURVE SMOOTH",
"124 211 OFFCURVE",
"123 228 OFFCURVE",
"120 240 CURVE",
"40 240 LINE"
);
},
{
closed = 1;
nodes = (
"37 308 OFFCURVE",
"36 291 OFFCURVE",
"36 280 CURVE SMOOTH",
"36 269 OFFCURVE",
"37 253 OFFCURVE",
"40 240 CURVE",
"200 240 LINE",
"203 253 OFFCURVE",
"204 269 OFFCURVE",
"204 280 CURVE SMOOTH",
"204 291 OFFCURVE",
"203 308 OFFCURVE",
"200 320 CURVE",
"40 320 LINE"
);
},
{
closed = 1;
nodes = (
"37 388 OFFCURVE",
"36 371 OFFCURVE",
"36 360 CURVE SMOOTH",
"36 349 OFFCURVE",
"37 333 OFFCURVE",
"40 320 CURVE",
"120 320 LINE",
"123 333 OFFCURVE",
"124 349 OFFCURVE",
"124 360 CURVE SMOOTH",
"124 371 OFFCURVE",
"123 388 OFFCURVE",
"120 400 CURVE",
"40 400 LINE"
);
},
{
closed = 1;
nodes = (
"37 468 OFFCURVE",
"36 451 OFFCURVE",
"36 440 CURVE SMOOTH",
"36 429 OFFCURVE",
"37 413 OFFCURVE",
"40 400 CURVE",
"120 400 LINE",
"123 413 OFFCURVE",
"124 429 OFFCURVE",
"124 440 CURVE SMOOTH",
"124 451 OFFCURVE",
"123 468 OFFCURVE",
"120 480 CURVE",
"40 480 LINE"
);
},
{
closed = 1;
nodes = (
"37 68 OFFCURVE",
"36 51 OFFCURVE",
"36 40 CURVE SMOOTH",
"36 29 OFFCURVE",
"37 13 OFFCURVE",
"40 0 CURVE",
"120 0 LINE",
"123 13 OFFCURVE",
"124 29 OFFCURVE",
"124 40 CURVE SMOOTH",
"124 51 OFFCURVE",
"123 68 OFFCURVE",
"120 80 CURVE",
"40 80 LINE"
);
},
{
closed = 1;
nodes = (
"37 548 OFFCURVE",
"36 531 OFFCURVE",
"36 520 CURVE SMOOTH",
"36 509 OFFCURVE",
"37 493 OFFCURVE",
"40 480 CURVE",
"120 480 LINE",
"123 493 OFFCURVE",
"124 509 OFFCURVE",
"124 520 CURVE SMOOTH",
"124 531 OFFCURVE",
"123 548 OFFCURVE",
"120 560 CURVE",
"40 560 LINE"
);
},
{
closed = 1;
nodes = (
"277 148 OFFCURVE",
"276 131 OFFCURVE",
"276 120 CURVE SMOOTH",
"276 109 OFFCURVE",
"277 93 OFFCURVE",
"280 80 CURVE",
"360 80 LINE",
"363 93 OFFCURVE",
"364 109 OFFCURVE",
"364 120 CURVE SMOOTH",
"364 131 OFFCURVE",
"363 148 OFFCURVE",
"360 160 CURVE",
"280 160 LINE"
);
},
{
closed = 1;
nodes = (
"277 228 OFFCURVE",
"276 211 OFFCURVE",
"276 200 CURVE SMOOTH",
"276 189 OFFCURVE",
"277 173 OFFCURVE",
"280 160 CURVE",
"360 160 LINE",
"363 173 OFFCURVE",
"364 189 OFFCURVE",
"364 200 CURVE SMOOTH",
"364 211 OFFCURVE",
"363 228 OFFCURVE",
"360 240 CURVE",
"280 240 LINE"
);
},
{
closed = 1;
nodes = (
"197 308 OFFCURVE",
"196 291 OFFCURVE",
"196 280 CURVE SMOOTH",
"196 269 OFFCURVE",
"197 253 OFFCURVE",
"200 240 CURVE",
"360 240 LINE",
"363 253 OFFCURVE",
"364 269 OFFCURVE",
"364 280 CURVE SMOOTH",
"364 291 OFFCURVE",
"363 308 OFFCURVE",
"360 320 CURVE",
"200 320 LINE"
);
},
{
closed = 1;
nodes = (
"277 388 OFFCURVE",
"276 371 OFFCURVE",
"276 360 CURVE SMOOTH",
"276 349 OFFCURVE",
"277 333 OFFCURVE",
"280 320 CURVE",
"360 320 LINE",
"363 333 OFFCURVE",
"364 349 OFFCURVE",
"364 360 CURVE SMOOTH",
"364 371 OFFCURVE",
"363 388 OFFCURVE",
"360 400 CURVE",
"280 400 LINE"
);
},
{
closed = 1;
nodes = (
"277 468 OFFCURVE",
"276 451 OFFCURVE",
"276 440 CURVE SMOOTH",
"276 429 OFFCURVE",
"277 413 OFFCURVE",
"280 400 CURVE",
"360 400 LINE",
"363 413 OFFCURVE",
"364 429 OFFCURVE",
"364 440 CURVE SMOOTH",
"364 451 OFFCURVE",
"363 468 OFFCURVE",
"360 480 CURVE",
"280 480 LINE"
);
},
{
closed = 1;
nodes = (
"277 68 OFFCURVE",
"276 51 OFFCURVE",
"276 40 CURVE SMOOTH",
"276 29 OFFCURVE",
"277 13 OFFCURVE",
"280 0 CURVE",
"360 0 LINE",
"363 13 OFFCURVE",
"364 29 OFFCURVE",
"364 40 CURVE SMOOTH",
"364 51 OFFCURVE",
"363 68 OFFCURVE",
"360 80 CURVE",
"280 80 LINE"
);
},
{
closed = 1;
nodes = (
"277 548 OFFCURVE",
"276 531 OFFCURVE",
"276 520 CURVE SMOOTH",
"276 509 OFFCURVE",
"277 493 OFFCURVE",
"280 480 CURVE",
"360 480 LINE",
"363 493 OFFCURVE",
"364 509 OFFCURVE",
"364 520 CURVE SMOOTH",
"364 531 OFFCURVE",
"363 548 OFFCURVE",
"360 560 CURVE",
"280 560 LINE"
);
}
);
width = 400;
}
);
unicode = 0048;
},
{
color = 3;
glyphname = Hbar;
lastChange = "2016-07-06 09:11:00 +0000";
layers = (
{
layerId = "DA6254B3-9514-4A47-8309-1A9185AEAC97";
paths = (
{
closed = 1;
nodes = (
"77 148 OFFCURVE",
"76 131 OFFCURVE",
"76 120 CURVE SMOOTH",
"76 109 OFFCURVE",
"77 93 OFFCURVE",
"80 80 CURVE",
"160 80 LINE",
"163 93 OFFCURVE",
"164 109 OFFCURVE",
"164 120 CURVE SMOOTH",
"164 131 OFFCURVE",
"163 148 OFFCURVE",
"160 160 CURVE",
"80 160 LINE"
);
},
{
closed = 1;
nodes = (
"77 228 OFFCURVE",
"76 211 OFFCURVE",
"76 200 CURVE SMOOTH",
"76 189 OFFCURVE",
"77 173 OFFCURVE",
"80 160 CURVE",
"160 160 LINE",
"163 173 OFFCURVE",
"164 189 OFFCURVE",
"164 200 CURVE SMOOTH",
"164 211 OFFCURVE",
"163 228 OFFCURVE",
"160 240 CURVE",
"80 240 LINE"
);
},
{
closed = 1;
nodes = (
"77 308 OFFCURVE",
"76 291 OFFCURVE",
"76 280 CURVE SMOOTH",
"76 269 OFFCURVE",
"77 253 OFFCURVE",
"80 240 CURVE",
"200 240 LINE",
"203 253 OFFCURVE",
"204 269 OFFCURVE",
"204 280 CURVE SMOOTH",
"204 291 OFFCURVE",
"203 308 OFFCURVE",
"200 320 CURVE",
"80 320 LINE"
);
},
{
closed = 1;
nodes = (
"77 388 OFFCURVE",
"76 371 OFFCURVE",
"76 360 CURVE SMOOTH",
"76 349 OFFCURVE",
"77 333 OFFCURVE",
"80 320 CURVE",
"160 320 LINE",
"163 333 OFFCURVE",
"164 349 OFFCURVE",
"164 360 CURVE SMOOTH",
"164 371 OFFCURVE",
"163 388 OFFCURVE",
"160 400 CURVE",
"80 400 LINE"
);
},
{
closed = 1;
nodes = (
"77 68 OFFCURVE",
"76 51 OFFCURVE",
"76 40 CURVE SMOOTH",
"76 29 OFFCURVE",
"77 13 OFFCURVE",
"80 0 CURVE",
"160 0 LINE",
"163 13 OFFCURVE",
"164 29 OFFCURVE",
"164 40 CURVE SMOOTH",
"164 51 OFFCURVE",
"163 68 OFFCURVE",
"160 80 CURVE",
"80 80 LINE"
);
},
{
closed = 1;
nodes = (
"77 548 OFFCURVE",
"76 531 OFFCURVE",
"76 520 CURVE SMOOTH",
"76 509 OFFCURVE",
"77 493 OFFCURVE",
"80 480 CURVE",
"160 480 LINE",
"163 493 OFFCURVE",
"164 509 OFFCURVE",
"164 520 CURVE SMOOTH",
"164 531 OFFCURVE",
"163 548 OFFCURVE",
"160 560 CURVE",
"80 560 LINE"
);
},
{
closed = 1;
nodes = (
"237 148 OFFCURVE",
"236 131 OFFCURVE",
"236 120 CURVE SMOOTH",
"236 109 OFFCURVE",
"237 93 OFFCURVE",
"240 80 CURVE",
"320 80 LINE",
"323 93 OFFCURVE",
"324 109 OFFCURVE",
"324 120 CURVE SMOOTH",
"324 131 OFFCURVE",
"323 148 OFFCURVE",
"320 160 CURVE",
"240 160 LINE"
);
},
{
closed = 1;
nodes = (
"237 228 OFFCURVE",
"236 211 OFFCURVE",
"236 200 CURVE SMOOTH",
"236 189 OFFCURVE",
"237 173 OFFCURVE",
"240 160 CURVE",
"320 160 LINE",
"323 173 OFFCURVE",
"324 189 OFFCURVE",
"324 200 CURVE SMOOTH",
"324 211 OFFCURVE",
"323 228 OFFCURVE",
"320 240 CURVE",
"240 240 LINE"
);
},
{
closed = 1;
nodes = (
"237 388 OFFCURVE",
"236 371 OFFCURVE",
"236 360 CURVE SMOOTH",
"236 349 OFFCURVE",
"237 333 OFFCURVE",
"240 320 CURVE",
"320 320 LINE",
"323 333 OFFCURVE",
"324 349 OFFCURVE",
"324 360 CURVE SMOOTH",
"324 371 OFFCURVE",
"323 388 OFFCURVE",
"320 400 CURVE",
"240 400 LINE"
);
},
{
closed = 1;
nodes = (
"237 68 OFFCURVE",
"236 51 OFFCURVE",
"236 40 CURVE SMOOTH",
"236 29 OFFCURVE",
"237 13 OFFCURVE",
"240 0 CURVE",
"320 0 LINE",
"323 13 OFFCURVE",
"324 29 OFFCURVE",
"324 40 CURVE SMOOTH",
"324 51 OFFCURVE",
"323 68 OFFCURVE",
"320 80 CURVE",
"240 80 LINE"
);
},
{
closed = 1;
nodes = (
"237 548 OFFCURVE",
"236 531 OFFCURVE",
"236 520 CURVE SMOOTH",
"236 509 OFFCURVE",
"237 493 OFFCURVE",
"240 480 CURVE",
"320 480 LINE",
"323 493 OFFCURVE",
"324 509 OFFCURVE",
"324 520 CURVE SMOOTH",
"324 531 OFFCURVE",
"323 548 OFFCURVE",
"320 560 CURVE",
"240 560 LINE"
);
},
{
closed = 1;
nodes = (
"37 468 OFFCURVE",
"36 451 OFFCURVE",
"36 440 CURVE SMOOTH",
"36 429 OFFCURVE",
"37 413 OFFCURVE",
"40 400 CURVE",
"200 400 LINE",
"203 413 OFFCURVE",
"204 429 OFFCURVE",
"204 440 CURVE SMOOTH",
"204 451 OFFCURVE",
"203 468 OFFCURVE",
"200 480 CURVE",
"40 480 LINE"
);
},
{
closed = 1;
nodes = (
"197 468 OFFCURVE",
"196 451 OFFCURVE",
"196 440 CURVE SMOOTH",
"196 429 OFFCURVE",
"197 413 OFFCURVE",
"200 400 CURVE",
"360 400 LINE",
"363 413 OFFCURVE",
"364 429 OFFCURVE",
"364 440 CURVE SMOOTH",
"364 451 OFFCURVE",
"363 468 OFFCURVE",
"360 480 CURVE",
"200 480 LINE"
);
},
{
closed = 1;
nodes = (
"197 308 OFFCURVE",
"196 291 OFFCURVE",
"196 280 CURVE SMOOTH",
"196 269 OFFCURVE",
"197 253 OFFCURVE",
"200 240 CURVE",
"320 240 LINE",
"323 253 OFFCURVE",
"324 269 OFFCURVE",
"324 280 CURVE SMOOTH",
"324 291 OFFCURVE",
"323 308 OFFCURVE",
"320 320 CURVE",
"200 320 LINE"
);
}
);
width = 400;
}
);
unicode = 0126;
},
{
color = 3;
glyphname = I;
lastChange = "2016-07-06 09:11:00 +0000";
layers = (
{
anchors = (
{
name = bottom;
position = "{200, 0}";
},
{
name = ogonek;
position = "{230, 10}";
},
{
name = top;
position = "{200, 560}";
},
{
name = topleft;
position = "{40, 560}";
}
);
layerId = "DA6254B3-9514-4A47-8309-1A9185AEAC97";
paths = (
{
closed = 1;
nodes = (
"157 308 OFFCURVE",
"156 291 OFFCURVE",
"156 280 CURVE SMOOTH",
"156 269 OFFCURVE",
"157 253 OFFCURVE",
"160 240 CURVE",
"240 240 LINE",
"243 253 OFFCURVE",
"244 269 OFFCURVE",
"244 280 CURVE SMOOTH",
"244 291 OFFCURVE",
"243 308 OFFCURVE",
"240 320 CURVE",
"160 320 LINE"
);
},
{
closed = 1;
nodes = (
"157 388 OFFCURVE",
"156 371 OFFCURVE",
"156 360 CURVE SMOOTH",
"156 349 OFFCURVE",
"157 333 OFFCURVE",
"160 320 CURVE",
"240 320 LINE",
"243 333 OFFCURVE",
"244 349 OFFCURVE",
"244 360 CURVE SMOOTH",
"244 371 OFFCURVE",
"243 388 OFFCURVE",
"240 400 CURVE",
"160 400 LINE"
);
},
{
closed = 1;
nodes = (
"157 468 OFFCURVE",
"156 451 OFFCURVE",
"156 440 CURVE SMOOTH",
"156 429 OFFCURVE",
"157 413 OFFCURVE",
"160 400 CURVE",
"240 400 LINE",
"243 413 OFFCURVE",
"244 429 OFFCURVE",
"244 440 CURVE SMOOTH",
"244 451 OFFCURVE",
"243 468 OFFCURVE",
"240 480 CURVE",
"160 480 LINE"
);
},
{
closed = 1;
nodes = (
"97 548 OFFCURVE",
"96 531 OFFCURVE",
"96 520 CURVE SMOOTH",
"96 509 OFFCURVE",
"97 493 OFFCURVE",
"100 480 CURVE",
"200 480 LINE",
"203 493 OFFCURVE",
"204 509 OFFCURVE",
"204 520 CURVE SMOOTH",
"204 531 OFFCURVE",
"203 548 OFFCURVE",
"200 560 CURVE",
"100 560 LINE"
);
},
{
closed = 1;
nodes = (
"197 548 OFFCURVE",
"196 531 OFFCURVE",
"196 520 CURVE SMOOTH",
"196 509 OFFCURVE",
"197 493 OFFCURVE",
"200 480 CURVE",
"300 480 LINE",
"303 493 OFFCURVE",
"304 509 OFFCURVE",
"304 520 CURVE SMOOTH",
"304 531 OFFCURVE",
"303 548 OFFCURVE",
"300 560 CURVE",
"200 560 LINE"
);
},
{
closed = 1;
nodes = (
"97 68 OFFCURVE",
"96 51 OFFCURVE",
"96 40 CURVE SMOOTH",
"96 29 OFFCURVE",
"97 13 OFFCURVE",
"100 0 CURVE",
"200 0 LINE",
"203 13 OFFCURVE",
"204 29 OFFCURVE",
"204 40 CURVE SMOOTH",
"204 51 OFFCURVE",
"203 68 OFFCURVE",
"200 80 CURVE",
"100 80 LINE"
);
},
{
closed = 1;
nodes = (
"197 68 OFFCURVE",
"196 51 OFFCURVE",
"196 40 CURVE SMOOTH",
"196 29 OFFCURVE",
"197 13 OFFCURVE",
"200 0 CURVE",
"300 0 LINE",
"303 13 OFFCURVE",
"304 29 OFFCURVE",
"304 40 CURVE SMOOTH",
"304 51 OFFCURVE",
"303 68 OFFCURVE",
"300 80 CURVE",
"200 80 LINE"
);
},
{
closed = 1;
nodes = (
"157 148 OFFCURVE",
"156 131 OFFCURVE",
"156 120 CURVE SMOOTH",
"156 109 OFFCURVE",
"157 93 OFFCURVE",
"160 80 CURVE",
"240 80 LINE",
"243 93 OFFCURVE",
"244 109 OFFCURVE",
"244 120 CURVE SMOOTH",
"244 131 OFFCURVE",
"243 148 OFFCURVE",
"240 160 CURVE",
"160 160 LINE"
);
},
{
closed = 1;
nodes = (
"157 228 OFFCURVE",
"156 211 OFFCURVE",
"156 200 CURVE SMOOTH",
"156 189 OFFCURVE",
"157 173 OFFCURVE",
"160 160 CURVE",
"240 160 LINE",
"243 173 OFFCURVE",
"244 189 OFFCURVE",
"244 200 CURVE SMOOTH",
"244 211 OFFCURVE",
"243 228 OFFCURVE",
"240 240 CURVE",
"160 240 LINE"
);
}
);
width = 400;
}
);
unicode = 0049;
},
{
color = 3;
glyphname = IJ;
lastChange = "2016-07-06 09:11:00 +0000";
layers = (
{
layerId = "DA6254B3-9514-4A47-8309-1A9185AEAC97";
paths = (
{
closed = 1;
nodes = (
"277 308 OFFCURVE",
"276 291 OFFCURVE",
"276 280 CURVE SMOOTH",
"276 269 OFFCURVE",
"277 253 OFFCURVE",
"280 240 CURVE",
"360 240 LINE",
"363 253 OFFCURVE",
"364 269 OFFCURVE",
"364 280 CURVE SMOOTH",
"364 291 OFFCURVE",
"363 308 OFFCURVE",
"360 320 CURVE",
"280 320 LINE"
);
},
{
closed = 1;
nodes = (
"277 388 OFFCURVE",
"276 371 OFFCURVE",
"276 360 CURVE SMOOTH",
"276 349 OFFCURVE",
"277 333 OFFCURVE",
"280 320 CURVE",
"360 320 LINE",
"363 333 OFFCURVE",
"364 349 OFFCURVE",
"364 360 CURVE SMOOTH",
"364 371 OFFCURVE",
"363 388 OFFCURVE",
"360 400 CURVE",
"280 400 LINE"
);
},
{
closed = 1;
nodes = (
"277 468 OFFCURVE",
"276 451 OFFCURVE",
"276 440 CURVE SMOOTH",
"276 429 OFFCURVE",
"277 413 OFFCURVE",
"280 400 CURVE",
"360 400 LINE",
"363 413 OFFCURVE",
"364 429 OFFCURVE",
"364 440 CURVE SMOOTH",
"364 451 OFFCURVE",
"363 468 OFFCURVE",
"360 480 CURVE",
"280 480 LINE"
);
},
{
closed = 1;
nodes = (
"277 228 OFFCURVE",
"276 211 OFFCURVE",
"276 200 CURVE SMOOTH",
"276 189 OFFCURVE",
"277 173 OFFCURVE",
"280 160 CURVE",
"360 160 LINE",
"363 173 OFFCURVE",
"364 189 OFFCURVE",
"364 200 CURVE SMOOTH",
"364 211 OFFCURVE",
"363 228 OFFCURVE",
"360 240 CURVE",
"280 240 LINE"
);
},
{
closed = 1;
nodes = (
"277 148 OFFCURVE",
"276 131 OFFCURVE",
"276 120 CURVE SMOOTH",
"276 109 OFFCURVE",
"277 93 OFFCURVE",
"280 80 CURVE",
"360 80 LINE",
"363 93 OFFCURVE",
"364 109 OFFCURVE",
"364 120 CURVE SMOOTH",
"364 131 OFFCURVE",
"363 148 OFFCURVE",
"360 160 CURVE",
"280 160 LINE"
);
},
{
closed = 1;
nodes = (
"177 68 OFFCURVE",
"176 51 OFFCURVE",
"176 40 CURVE SMOOTH",
"176 29 OFFCURVE",
"177 13 OFFCURVE",
"180 0 CURVE",
"320 0 LINE",
"323 13 OFFCURVE",
"324 29 OFFCURVE",
"324 40 CURVE SMOOTH",
"324 51 OFFCURVE",
"323 68 OFFCURVE",
"320 80 CURVE",
"180 80 LINE"
);
},
{
closed = 1;
nodes = (
"277 548 OFFCURVE",
"276 531 OFFCURVE",
"276 520 CURVE SMOOTH",
"276 509 OFFCURVE",
"277 493 OFFCURVE",
"280 480 CURVE",
"360 480 LINE",
"363 493 OFFCURVE",
"364 509 OFFCURVE",
"364 520 CURVE SMOOTH",
"364 531 OFFCURVE",
"363 548 OFFCURVE",
"360 560 CURVE",
"280 560 LINE"
);
},
{
closed = 1;
nodes = (
"37 388 OFFCURVE",
"36 371 OFFCURVE",
"36 360 CURVE SMOOTH",
"36 349 OFFCURVE",
"37 333 OFFCURVE",
"40 320 CURVE",
"120 320 LINE",
"123 333 OFFCURVE",
"124 349 OFFCURVE",
"124 360 CURVE SMOOTH",
"124 371 OFFCURVE",
"123 388 OFFCURVE",
"120 400 CURVE",
"40 400 LINE"
);
},
{
closed = 1;
nodes = (
"37 468 OFFCURVE",
"36 451 OFFCURVE",
"36 440 CURVE SMOOTH",
"36 429 OFFCURVE",
"37 413 OFFCURVE",
"40 400 CURVE",
"120 400 LINE",
"123 413 OFFCURVE",
"124 429 OFFCURVE",
"124 440 CURVE SMOOTH",
"124 451 OFFCURVE",
"123 468 OFFCURVE",
"120 480 CURVE",
"40 480 LINE"
);
},
{
closed = 1;
nodes = (
"37 548 OFFCURVE",
"36 531 OFFCURVE",
"36 520 CURVE SMOOTH",
"36 509 OFFCURVE",
"37 493 OFFCURVE",
"40 480 CURVE",
"120 480 LINE",
"123 493 OFFCURVE",
"124 509 OFFCURVE",
"124 520 CURVE SMOOTH",
"124 531 OFFCURVE",
"123 548 OFFCURVE",
"120 560 CURVE",
"40 560 LINE"
);
},
{
closed = 1;
nodes = (
"37 228 OFFCURVE",
"36 211 OFFCURVE",
"36 200 CURVE SMOOTH",
"36 189 OFFCURVE",
"37 173 OFFCURVE",
"40 160 CURVE",
"120 160 LINE",
"123 173 OFFCURVE",
"124 189 OFFCURVE",
"124 200 CURVE SMOOTH",
"124 211 OFFCURVE",
"123 228 OFFCURVE",
"120 240 CURVE",
"40 240 LINE"
);
},
{
closed = 1;
nodes = (
"37 308 OFFCURVE",
"36 291 OFFCURVE",
"36 280 CURVE SMOOTH",
"36 269 OFFCURVE",
"37 253 OFFCURVE",
"40 240 CURVE",
"120 240 LINE",
"123 253 OFFCURVE",
"124 269 OFFCURVE",
"124 280 CURVE SMOOTH",
"124 291 OFFCURVE",
"123 308 OFFCURVE",
"120 320 CURVE",
"40 320 LINE"
);
},
{
closed = 1;
nodes = (
"37 148 OFFCURVE",
"36 131 OFFCURVE",
"36 120 CURVE SMOOTH",
"36 109 OFFCURVE",
"37 93 OFFCURVE",
"40 80 CURVE",
"120 80 LINE",
"123 93 OFFCURVE",
"124 109 OFFCURVE",
"124 120 CURVE SMOOTH",
"124 131 OFFCURVE",
"123 148 OFFCURVE",
"120 160 CURVE",
"40 160 LINE"
);
},
{
closed = 1;
nodes = (
"37 68 OFFCURVE",
"36 51 OFFCURVE",
"36 40 CURVE SMOOTH",
"36 29 OFFCURVE",
"37 13 OFFCURVE",
"40 0 CURVE",
"120 0 LINE",
"123 13 OFFCURVE",
"124 29 OFFCURVE",
"124 40 CURVE SMOOTH",
"124 51 OFFCURVE",
"123 68 OFFCURVE",
"120 80 CURVE",
"40 80 LINE"
);
}
);
width = 400;
}
);
unicode = 0132;
},
{
color = 3;
glyphname = J;
lastChange = "2016-07-06 09:11:00 +0000";
layers = (
{
anchors = (
{
name = bottom;
position = "{200, 0}";
},
{
name = top;
position = "{240, 560}";
}
);
layerId = "DA6254B3-9514-4A47-8309-1A9185AEAC97";
paths = (
{
closed = 1;
nodes = (
"197 308 OFFCURVE",
"196 291 OFFCURVE",
"196 280 CURVE SMOOTH",
"196 269 OFFCURVE",
"197 253 OFFCURVE",
"200 240 CURVE",
"280 240 LINE",
"283 253 OFFCURVE",
"284 269 OFFCURVE",
"284 280 CURVE SMOOTH",
"284 291 OFFCURVE",
"283 308 OFFCURVE",
"280 320 CURVE",
"200 320 LINE"
);
},
{
closed = 1;
nodes = (
"197 388 OFFCURVE",
"196 371 OFFCURVE",
"196 360 CURVE SMOOTH",
"196 349 OFFCURVE",
"197 333 OFFCURVE",
"200 320 CURVE",
"280 320 LINE",
"283 333 OFFCURVE",
"284 349 OFFCURVE",
"284 360 CURVE SMOOTH",
"284 371 OFFCURVE",
"283 388 OFFCURVE",
"280 400 CURVE",
"200 400 LINE"
);
},
{
closed = 1;
nodes = (
"197 468 OFFCURVE",
"196 451 OFFCURVE",
"196 440 CURVE SMOOTH",
"196 429 OFFCURVE",
"197 413 OFFCURVE",
"200 400 CURVE",
"280 400 LINE",
"283 413 OFFCURVE",
"284 429 OFFCURVE",
"284 440 CURVE SMOOTH",
"284 451 OFFCURVE",
"283 468 OFFCURVE",
"280 480 CURVE",
"200 480 LINE"
);
},
{
closed = 1;
nodes = (
"137 548 OFFCURVE",
"136 531 OFFCURVE",
"136 520 CURVE SMOOTH",
"136 509 OFFCURVE",
"137 493 OFFCURVE",
"140 480 CURVE",
"240 480 LINE",
"243 493 OFFCURVE",
"244 509 OFFCURVE",
"244 520 CURVE SMOOTH",
"244 531 OFFCURVE",
"243 548 OFFCURVE",
"240 560 CURVE",
"140 560 LINE"
);
},
{
closed = 1;
nodes = (
"237 548 OFFCURVE",
"236 531 OFFCURVE",
"236 520 CURVE SMOOTH",
"236 509 OFFCURVE",
"237 493 OFFCURVE",
"240 480 CURVE",
"340 480 LINE",
"343 493 OFFCURVE",
"344 509 OFFCURVE",
"344 520 CURVE SMOOTH",
"344 531 OFFCURVE",
"343 548 OFFCURVE",
"340 560 CURVE",
"240 560 LINE"
);
},
{
closed = 1;
nodes = (
"197 228 OFFCURVE",
"196 211 OFFCURVE",
"196 200 CURVE SMOOTH",
"196 189 OFFCURVE",
"197 173 OFFCURVE",
"200 160 CURVE",
"280 160 LINE",
"283 173 OFFCURVE",
"284 189 OFFCURVE",
"284 200 CURVE SMOOTH",
"284 211 OFFCURVE",
"283 228 OFFCURVE",
"280 240 CURVE",
"200 240 LINE"
);
},
{
closed = 1;
nodes = (
"37 148 OFFCURVE",
"36 131 OFFCURVE",
"36 120 CURVE SMOOTH",
"36 109 OFFCURVE",
"37 93 OFFCURVE",
"40 80 CURVE",
"120 80 LINE",
"123 93 OFFCURVE",
"124 109 OFFCURVE",
"124 120 CURVE SMOOTH",
"124 131 OFFCURVE",
"123 148 OFFCURVE",
"120 160 CURVE",
"40 160 LINE"
);
},
{
closed = 1;
nodes = (
"197 148 OFFCURVE",
"196 131 OFFCURVE",
"196 120 CURVE SMOOTH",
"196 109 OFFCURVE",
"197 93 OFFCURVE",
"200 80 CURVE",
"280 80 LINE",
"283 93 OFFCURVE",
"284 109 OFFCURVE",
"284 120 CURVE SMOOTH",
"284 131 OFFCURVE",
"283 148 OFFCURVE",
"280 160 CURVE",
"200 160 LINE"
);
},
{
closed = 1;
nodes = (
"77 68 OFFCURVE",
"76 51 OFFCURVE",
"76 40 CURVE SMOOTH",
"76 29 OFFCURVE",
"77 13 OFFCURVE",
"80 0 CURVE",
"240 0 LINE",
"243 13 OFFCURVE",
"244 29 OFFCURVE",
"244 40 CURVE SMOOTH",
"244 51 OFFCURVE",
"243 68 OFFCURVE",
"240 80 CURVE",
"80 80 LINE"
);
}
);
width = 400;
}
);
unicode = 004A;
},
{
color = 3;
glyphname = K;
lastChange = "2016-07-06 09:11:00 +0000";
layers = (
{
anchors = (
{
name = bottom;
position = "{200, 0}";
},
{
name = top;
position = "{200, 560}";
}
);
layerId = "DA6254B3-9514-4A47-8309-1A9185AEAC97";
paths = (
{
closed = 1;
nodes = (
"37 148 OFFCURVE",
"36 131 OFFCURVE",
"36 120 CURVE SMOOTH",
"36 109 OFFCURVE",
"37 93 OFFCURVE",
"40 80 CURVE",
"120 80 LINE",
"123 93 OFFCURVE",
"124 109 OFFCURVE",
"124 120 CURVE SMOOTH",
"124 131 OFFCURVE",
"123 148 OFFCURVE",
"120 160 CURVE",
"40 160 LINE"
);
},
{
closed = 1;
nodes = (
"37 68 OFFCURVE",
"36 51 OFFCURVE",
"36 40 CURVE SMOOTH",
"36 29 OFFCURVE",
"37 13 OFFCURVE",
"40 0 CURVE",
"120 0 LINE",
"123 13 OFFCURVE",
"124 29 OFFCURVE",
"124 40 CURVE SMOOTH",
"124 51 OFFCURVE",
"123 68 OFFCURVE",
"120 80 CURVE",
"40 80 LINE"
);
},
{
closed = 1;
nodes = (
"37 228 OFFCURVE",
"36 211 OFFCURVE",
"36 200 CURVE SMOOTH",
"36 189 OFFCURVE",
"37 173 OFFCURVE",
"40 160 CURVE",
"120 160 LINE",
"123 173 OFFCURVE",
"124 189 OFFCURVE",
"124 200 CURVE SMOOTH",
"124 211 OFFCURVE",
"123 228 OFFCURVE",
"120 240 CURVE",
"40 240 LINE"
);
},
{
closed = 1;
nodes = (
"37 308 OFFCURVE",
"36 291 OFFCURVE",
"36 280 CURVE SMOOTH",
"36 269 OFFCURVE",
"37 253 OFFCURVE",
"40 240 CURVE",
"120 240 LINE",
"123 253 OFFCURVE",
"124 269 OFFCURVE",
"124 280 CURVE SMOOTH",
"124 291 OFFCURVE",
"123 308 OFFCURVE",
"120 320 CURVE",
"40 320 LINE"
);
},
{
closed = 1;
nodes = (
"37 388 OFFCURVE",
"36 371 OFFCURVE",
"36 360 CURVE SMOOTH",
"36 349 OFFCURVE",
"37 333 OFFCURVE",
"40 320 CURVE",
"120 320 LINE",
"123 333 OFFCURVE",
"124 349 OFFCURVE",
"124 360 CURVE SMOOTH",
"124 371 OFFCURVE",
"123 388 OFFCURVE",
"120 400 CURVE",
"40 400 LINE"
);
},
{
closed = 1;
nodes = (
"37 468 OFFCURVE",
"36 451 OFFCURVE",
"36 440 CURVE SMOOTH",
"36 429 OFFCURVE",
"37 413 OFFCURVE",
"40 400 CURVE",
"120 400 LINE",
"123 413 OFFCURVE",
"124 429 OFFCURVE",
"124 440 CURVE SMOOTH",
"124 451 OFFCURVE",
"123 468 OFFCURVE",
"120 480 CURVE",
"40 480 LINE"
);
},
{
closed = 1;
nodes = (
"37 548 OFFCURVE",
"36 531 OFFCURVE",
"36 520 CURVE SMOOTH",
"36 509 OFFCURVE",
"37 493 OFFCURVE",
"40 480 CURVE",
"120 480 LINE",
"123 493 OFFCURVE",
"124 509 OFFCURVE",
"124 520 CURVE SMOOTH",
"124 531 OFFCURVE",
"123 548 OFFCURVE",
"120 560 CURVE",
"40 560 LINE"
);
},
{
closed = 1;
nodes = (
"117 308 OFFCURVE",
"116 291 OFFCURVE",
"116 280 CURVE SMOOTH",
"116 269 OFFCURVE",
"117 253 OFFCURVE",
"120 240 CURVE",
"220 240 LINE",
"223 253 OFFCURVE",
"224 269 OFFCURVE",
"224 280 CURVE SMOOTH",
"224 291 OFFCURVE",
"223 308 OFFCURVE",
"220 320 CURVE",
"120 320 LINE"
);
},
{
closed = 1;
nodes = (
"187 388 OFFCURVE",
"186 371 OFFCURVE",
"186 360 CURVE SMOOTH",
"186 349 OFFCURVE",
"187 333 OFFCURVE",
"190 320 CURVE",
"270 320 LINE",
"273 333 OFFCURVE",
"274 349 OFFCURVE",
"274 360 CURVE SMOOTH",
"274 371 OFFCURVE",
"273 388 OFFCURVE",
"270 400 CURVE",
"190 400 LINE"
);
},
{
closed = 1;
nodes = (
"187 228 OFFCURVE",
"186 211 OFFCURVE",
"186 200 CURVE SMOOTH",
"186 189 OFFCURVE",
"187 173 OFFCURVE",
"190 160 CURVE",
"270 160 LINE",
"273 173 OFFCURVE",
"274 189 OFFCURVE",
"274 200 CURVE SMOOTH",
"274 211 OFFCURVE",
"273 228 OFFCURVE",
"270 240 CURVE",
"190 240 LINE"
);
},
{
closed = 1;
nodes = (
"247 468 OFFCURVE",
"246 451 OFFCURVE",
"246 440 CURVE SMOOTH",
"246 429 OFFCURVE",
"247 413 OFFCURVE",
"250 400 CURVE",
"330 400 LINE",
"333 413 OFFCURVE",
"334 429 OFFCURVE",
"334 440 CURVE SMOOTH",
"334 451 OFFCURVE",
"333 468 OFFCURVE",
"330 480 CURVE",
"250 480 LINE"
);
},
{
closed = 1;
nodes = (
"277 548 OFFCURVE",
"276 531 OFFCURVE",
"276 520 CURVE SMOOTH",
"276 509 OFFCURVE",
"277 493 OFFCURVE",
"280 480 CURVE",
"360 480 LINE",
"363 493 OFFCURVE",
"364 509 OFFCURVE",
"364 520 CURVE SMOOTH",
"364 531 OFFCURVE",
"363 548 OFFCURVE",
"360 560 CURVE",
"280 560 LINE"
);
},
{
closed = 1;
nodes = (
"247 148 OFFCURVE",
"246 131 OFFCURVE",
"246 120 CURVE SMOOTH",
"246 109 OFFCURVE",
"247 93 OFFCURVE",
"250 80 CURVE",
"330 80 LINE",
"333 93 OFFCURVE",
"334 109 OFFCURVE",
"334 120 CURVE SMOOTH",
"334 131 OFFCURVE",
"333 148 OFFCURVE",
"330 160 CURVE",
"250 160 LINE"
);
},
{
closed = 1;
nodes = (
"277 68 OFFCURVE",
"276 51 OFFCURVE",
"276 40 CURVE SMOOTH",
"276 29 OFFCURVE",
"277 13 OFFCURVE",
"280 0 CURVE",
"360 0 LINE",
"363 13 OFFCURVE",
"364 29 OFFCURVE",
"364 40 CURVE SMOOTH",
"364 51 OFFCURVE",
"363 68 OFFCURVE",
"360 80 CURVE",
"280 80 LINE"
);
}
);
width = 400;
}
);
unicode = 004B;
},
{
color = 3;
glyphname = L;
lastChange = "2016-07-06 09:11:00 +0000";
layers = (
{
anchors = (
{
name = bottom;
position = "{220, 0}";
},
{
name = center;
position = "{200, 320}";
},
{
name = top;
position = "{200, 560}";
},
{
name = topright;
position = "{280, 560}";
}
);
layerId = "DA6254B3-9514-4A47-8309-1A9185AEAC97";
paths = (
{
closed = 1;
nodes = (
"77 68 OFFCURVE",
"76 51 OFFCURVE",
"76 40 CURVE SMOOTH",
"76 29 OFFCURVE",
"77 13 OFFCURVE",
"80 0 CURVE",
"240 0 LINE",
"243 13 OFFCURVE",
"244 29 OFFCURVE",
"244 40 CURVE SMOOTH",
"244 51 OFFCURVE",
"243 68 OFFCURVE",
"240 80 CURVE",
"80 80 LINE"
);
},
{
closed = 1;
nodes = (
"77 148 OFFCURVE",
"76 131 OFFCURVE",
"76 120 CURVE SMOOTH",
"76 109 OFFCURVE",
"77 93 OFFCURVE",
"80 80 CURVE",
"160 80 LINE",
"163 93 OFFCURVE",
"164 109 OFFCURVE",
"164 120 CURVE SMOOTH",
"164 131 OFFCURVE",
"163 148 OFFCURVE",
"160 160 CURVE",
"80 160 LINE"
);
},
{
closed = 1;
nodes = (
"77 228 OFFCURVE",
"76 211 OFFCURVE",
"76 200 CURVE SMOOTH",
"76 189 OFFCURVE",
"77 173 OFFCURVE",
"80 160 CURVE",
"160 160 LINE",
"163 173 OFFCURVE",
"164 189 OFFCURVE",
"164 200 CURVE SMOOTH",
"164 211 OFFCURVE",
"163 228 OFFCURVE",
"160 240 CURVE",
"80 240 LINE"
);
},
{
closed = 1;
nodes = (
"77 388 OFFCURVE",
"76 371 OFFCURVE",
"76 360 CURVE SMOOTH",
"76 349 OFFCURVE",
"77 333 OFFCURVE",
"80 320 CURVE",
"160 320 LINE",
"163 333 OFFCURVE",
"164 349 OFFCURVE",
"164 360 CURVE SMOOTH",
"164 371 OFFCURVE",
"163 388 OFFCURVE",
"160 400 CURVE",
"80 400 LINE"
);
},
{
closed = 1;
nodes = (
"77 468 OFFCURVE",
"76 451 OFFCURVE",
"76 440 CURVE SMOOTH",
"76 429 OFFCURVE",
"77 413 OFFCURVE",
"80 400 CURVE",
"160 400 LINE",
"163 413 OFFCURVE",
"164 429 OFFCURVE",
"164 440 CURVE SMOOTH",
"164 451 OFFCURVE",
"163 468 OFFCURVE",
"160 480 CURVE",
"80 480 LINE"
);
},
{
closed = 1;
nodes = (
"237 68 OFFCURVE",
"236 51 OFFCURVE",
"236 40 CURVE SMOOTH",
"236 29 OFFCURVE",
"237 13 OFFCURVE",
"240 0 CURVE",
"360 0 LINE",
"363 13 OFFCURVE",
"364 29 OFFCURVE",
"364 40 CURVE SMOOTH",
"364 51 OFFCURVE",
"363 68 OFFCURVE",
"360 80 CURVE",
"240 80 LINE"
);
},
{
closed = 1;
nodes = (
"77 308 OFFCURVE",
"76 291 OFFCURVE",
"76 280 CURVE SMOOTH",
"76 269 OFFCURVE",
"77 253 OFFCURVE",
"80 240 CURVE",
"160 240 LINE",
"163 253 OFFCURVE",
"164 269 OFFCURVE",
"164 280 CURVE SMOOTH",
"164 291 OFFCURVE",
"163 308 OFFCURVE",
"160 320 CURVE",
"80 320 LINE"
);
},
{
closed = 1;
nodes = (
"77 548 OFFCURVE",
"76 531 OFFCURVE",
"76 520 CURVE SMOOTH",
"76 509 OFFCURVE",
"77 493 OFFCURVE",
"80 480 CURVE",
"160 480 LINE",
"163 493 OFFCURVE",
"164 509 OFFCURVE",
"164 520 CURVE SMOOTH",
"164 531 OFFCURVE",
"163 548 OFFCURVE",
"160 560 CURVE",
"80 560 LINE"
);
}
);
width = 400;
}
);
unicode = 004C;
},
{
color = 3;
glyphname = LJ;
lastChange = "2016-07-06 09:11:00 +0000";
layers = (
{
layerId = "DA6254B3-9514-4A47-8309-1A9185AEAC97";
paths = (
{
closed = 1;
nodes = (
"277 308 OFFCURVE",
"276 291 OFFCURVE",
"276 280 CURVE SMOOTH",
"276 269 OFFCURVE",
"277 253 OFFCURVE",
"280 240 CURVE",
"360 240 LINE",
"363 253 OFFCURVE",
"364 269 OFFCURVE",
"364 280 CURVE SMOOTH",
"364 291 OFFCURVE",
"363 308 OFFCURVE",
"360 320 CURVE",
"280 320 LINE"
);
},
{
closed = 1;
nodes = (
"277 388 OFFCURVE",
"276 371 OFFCURVE",
"276 360 CURVE SMOOTH",
"276 349 OFFCURVE",
"277 333 OFFCURVE",
"280 320 CURVE",
"360 320 LINE",
"363 333 OFFCURVE",
"364 349 OFFCURVE",
"364 360 CURVE SMOOTH",
"364 371 OFFCURVE",
"363 388 OFFCURVE",
"360 400 CURVE",
"280 400 LINE"
);
},
{
closed = 1;
nodes = (
"277 468 OFFCURVE",
"276 451 OFFCURVE",
"276 440 CURVE SMOOTH",
"276 429 OFFCURVE",
"277 413 OFFCURVE",
"280 400 CURVE",
"360 400 LINE",
"363 413 OFFCURVE",
"364 429 OFFCURVE",
"364 440 CURVE SMOOTH",
"364 451 OFFCURVE",
"363 468 OFFCURVE",
"360 480 CURVE",
"280 480 LINE"
);
},
{
closed = 1;
nodes = (
"277 228 OFFCURVE",
"276 211 OFFCURVE",
"276 200 CURVE SMOOTH",
"276 189 OFFCURVE",
"277 173 OFFCURVE",
"280 160 CURVE",
"360 160 LINE",
"363 173 OFFCURVE",
"364 189 OFFCURVE",
"364 200 CURVE SMOOTH",
"364 211 OFFCURVE",
"363 228 OFFCURVE",
"360 240 CURVE",
"280 240 LINE"
);
},
{
closed = 1;
nodes = (
"277 148 OFFCURVE",
"276 131 OFFCURVE",
"276 120 CURVE SMOOTH",
"276 109 OFFCURVE",
"277 93 OFFCURVE",
"280 80 CURVE",
"360 80 LINE",
"363 93 OFFCURVE",
"364 109 OFFCURVE",
"364 120 CURVE SMOOTH",
"364 131 OFFCURVE",
"363 148 OFFCURVE",
"360 160 CURVE",
"280 160 LINE"
);
},
{
closed = 1;
nodes = (
"37 68 OFFCURVE",
"36 51 OFFCURVE",
"36 40 CURVE SMOOTH",
"36 29 OFFCURVE",
"37 13 OFFCURVE",
"40 0 CURVE",
"190 0 LINE",
"193 13 OFFCURVE",
"194 29 OFFCURVE",
"194 40 CURVE SMOOTH",
"194 51 OFFCURVE",
"193 68 OFFCURVE",
"190 80 CURVE",
"40 80 LINE"
);
},
{
closed = 1;
nodes = (
"277 548 OFFCURVE",
"276 531 OFFCURVE",
"276 520 CURVE SMOOTH",
"276 509 OFFCURVE",
"277 493 OFFCURVE",
"280 480 CURVE",
"360 480 LINE",
"363 493 OFFCURVE",
"364 509 OFFCURVE",
"364 520 CURVE SMOOTH",
"364 531 OFFCURVE",
"363 548 OFFCURVE",
"360 560 CURVE",
"280 560 LINE"
);
},
{
closed = 1;
nodes = (
"37 388 OFFCURVE",
"36 371 OFFCURVE",
"36 360 CURVE SMOOTH",
"36 349 OFFCURVE",
"37 333 OFFCURVE",
"40 320 CURVE",
"120 320 LINE",
"123 333 OFFCURVE",
"124 349 OFFCURVE",
"124 360 CURVE SMOOTH",
"124 371 OFFCURVE",
"123 388 OFFCURVE",
"120 400 CURVE",
"40 400 LINE"
);
},
{
closed = 1;
nodes = (
"37 468 OFFCURVE",
"36 451 OFFCURVE",
"36 440 CURVE SMOOTH",
"36 429 OFFCURVE",
"37 413 OFFCURVE",
"40 400 CURVE",
"120 400 LINE",
"123 413 OFFCURVE",
"124 429 OFFCURVE",
"124 440 CURVE SMOOTH",
"124 451 OFFCURVE",
"123 468 OFFCURVE",
"120 480 CURVE",
"40 480 LINE"
);
},
{
closed = 1;
nodes = (
"37 548 OFFCURVE",
"36 531 OFFCURVE",
"36 520 CURVE SMOOTH",
"36 509 OFFCURVE",
"37 493 OFFCURVE",
"40 480 CURVE",
"120 480 LINE",
"123 493 OFFCURVE",
"124 509 OFFCURVE",
"124 520 CURVE SMOOTH",
"124 531 OFFCURVE",
"123 548 OFFCURVE",
"120 560 CURVE",
"40 560 LINE"
);
},
{
closed = 1;
nodes = (
"37 228 OFFCURVE",
"36 211 OFFCURVE",
"36 200 CURVE SMOOTH",
"36 189 OFFCURVE",
"37 173 OFFCURVE",
"40 160 CURVE",
"120 160 LINE",
"123 173 OFFCURVE",
"124 189 OFFCURVE",
"124 200 CURVE SMOOTH",
"124 211 OFFCURVE",
"123 228 OFFCURVE",
"120 240 CURVE",
"40 240 LINE"
);
},
{
closed = 1;
nodes = (
"37 308 OFFCURVE",
"36 291 OFFCURVE",
"36 280 CURVE SMOOTH",
"36 269 OFFCURVE",
"37 253 OFFCURVE",
"40 240 CURVE",
"120 240 LINE",
"123 253 OFFCURVE",
"124 269 OFFCURVE",
"124 280 CURVE SMOOTH",
"124 291 OFFCURVE",
"123 308 OFFCURVE",
"120 320 CURVE",
"40 320 LINE"
);
},
{
closed = 1;
nodes = (
"37 148 OFFCURVE",
"36 131 OFFCURVE",
"36 120 CURVE SMOOTH",
"36 109 OFFCURVE",
"37 93 OFFCURVE",
"40 80 CURVE",
"120 80 LINE",
"123 93 OFFCURVE",
"124 109 OFFCURVE",
"124 120 CURVE SMOOTH",
"124 131 OFFCURVE",
"123 148 OFFCURVE",
"120 160 CURVE",
"40 160 LINE"
);
},
{
closed = 1;
nodes = (
"237 68 OFFCURVE",
"236 51 OFFCURVE",
"236 40 CURVE SMOOTH",
"236 29 OFFCURVE",
"237 13 OFFCURVE",
"240 0 CURVE",
"320 0 LINE",
"323 13 OFFCURVE",
"324 29 OFFCURVE",
"324 40 CURVE SMOOTH",
"324 51 OFFCURVE",
"323 68 OFFCURVE",
"320 80 CURVE",
"240 80 LINE"
);
}
);
width = 400;
}
);
unicode = 01C7;
},
{
color = 3;
glyphname = Lj;
lastChange = "2016-07-06 09:11:00 +0000";
layers = (
{
layerId = "DA6254B3-9514-4A47-8309-1A9185AEAC97";
paths = (
{
closed = 1;
nodes = (
"37 68 OFFCURVE",
"36 51 OFFCURVE",
"36 40 CURVE SMOOTH",
"36 29 OFFCURVE",
"37 13 OFFCURVE",
"40 0 CURVE",
"200 0 LINE",
"203 13 OFFCURVE",
"204 29 OFFCURVE",
"204 40 CURVE SMOOTH",
"204 51 OFFCURVE",
"203 68 OFFCURVE",
"200 80 CURVE",
"40 80 LINE"
);
},
{
closed = 1;
nodes = (
"37 388 OFFCURVE",
"36 371 OFFCURVE",
"36 360 CURVE SMOOTH",
"36 349 OFFCURVE",
"37 333 OFFCURVE",
"40 320 CURVE",
"120 320 LINE",
"123 333 OFFCURVE",
"124 349 OFFCURVE",
"124 360 CURVE SMOOTH",
"124 371 OFFCURVE",
"123 388 OFFCURVE",
"120 400 CURVE",
"40 400 LINE"
);
},
{
closed = 1;
nodes = (
"37 468 OFFCURVE",
"36 451 OFFCURVE",
"36 440 CURVE SMOOTH",
"36 429 OFFCURVE",
"37 413 OFFCURVE",
"40 400 CURVE",
"120 400 LINE",
"123 413 OFFCURVE",
"124 429 OFFCURVE",
"124 440 CURVE SMOOTH",
"124 451 OFFCURVE",
"123 468 OFFCURVE",
"120 480 CURVE",
"40 480 LINE"
);
},
{
closed = 1;
nodes = (
"37 548 OFFCURVE",
"36 531 OFFCURVE",
"36 520 CURVE SMOOTH",
"36 509 OFFCURVE",
"37 493 OFFCURVE",
"40 480 CURVE",
"120 480 LINE",
"123 493 OFFCURVE",
"124 509 OFFCURVE",
"124 520 CURVE SMOOTH",
"124 531 OFFCURVE",
"123 548 OFFCURVE",
"120 560 CURVE",
"40 560 LINE"
);
},
{
closed = 1;
nodes = (
"37 228 OFFCURVE",
"36 211 OFFCURVE",
"36 200 CURVE SMOOTH",
"36 189 OFFCURVE",
"37 173 OFFCURVE",
"40 160 CURVE",
"120 160 LINE",
"123 173 OFFCURVE",
"124 189 OFFCURVE",
"124 200 CURVE SMOOTH",
"124 211 OFFCURVE",
"123 228 OFFCURVE",
"120 240 CURVE",
"40 240 LINE"
);
},
{
closed = 1;
nodes = (
"37 308 OFFCURVE",
"36 291 OFFCURVE",
"36 280 CURVE SMOOTH",
"36 269 OFFCURVE",
"37 253 OFFCURVE",
"40 240 CURVE",
"120 240 LINE",
"123 253 OFFCURVE",
"124 269 OFFCURVE",
"124 280 CURVE SMOOTH",
"124 291 OFFCURVE",
"123 308 OFFCURVE",
"120 320 CURVE",
"40 320 LINE"
);
},
{
closed = 1;
nodes = (
"37 148 OFFCURVE",
"36 131 OFFCURVE",
"36 120 CURVE SMOOTH",
"36 109 OFFCURVE",
"37 93 OFFCURVE",
"40 80 CURVE",
"120 80 LINE",
"123 93 OFFCURVE",
"124 109 OFFCURVE",
"124 120 CURVE SMOOTH",
"124 131 OFFCURVE",
"123 148 OFFCURVE",
"120 160 CURVE",
"40 160 LINE"
);
},
{
closed = 1;
nodes = (
"157 -92 OFFCURVE",
"156 -109 OFFCURVE",
"156 -120 CURVE SMOOTH",
"156 -131 OFFCURVE",
"157 -147 OFFCURVE",
"160 -160 CURVE",
"280 -160 LINE",
"283 -147 OFFCURVE",
"284 -131 OFFCURVE",
"284 -120 CURVE SMOOTH",
"284 -109 OFFCURVE",
"283 -92 OFFCURVE",
"280 -80 CURVE",
"160 -80 LINE"
);
},
{
closed = 1;
nodes = (
"277 148 OFFCURVE",
"276 131 OFFCURVE",
"276 120 CURVE SMOOTH",
"276 109 OFFCURVE",
"277 93 OFFCURVE",
"280 80 CURVE",
"360 80 LINE",
"363 93 OFFCURVE",
"364 109 OFFCURVE",
"364 120 CURVE SMOOTH",
"364 131 OFFCURVE",
"363 148 OFFCURVE",
"360 160 CURVE",
"280 160 LINE"
);
},
{
closed = 1;
nodes = (
"277 228 OFFCURVE",
"276 211 OFFCURVE",
"276 200 CURVE SMOOTH",
"276 189 OFFCURVE",
"277 173 OFFCURVE",
"280 160 CURVE",
"360 160 LINE",
"363 173 OFFCURVE",
"364 189 OFFCURVE",
"364 200 CURVE SMOOTH",
"364 211 OFFCURVE",
"363 228 OFFCURVE",
"360 240 CURVE",
"280 240 LINE"
);
},
{
closed = 1;
nodes = (
"277 308 OFFCURVE",
"276 291 OFFCURVE",
"276 280 CURVE SMOOTH",
"276 269 OFFCURVE",
"277 253 OFFCURVE",
"280 240 CURVE",
"360 240 LINE",
"363 253 OFFCURVE",
"364 269 OFFCURVE",
"364 280 CURVE SMOOTH",
"364 291 OFFCURVE",
"363 308 OFFCURVE",
"360 320 CURVE",
"280 320 LINE"
);
},
{
closed = 1;
nodes = (
"237 388 OFFCURVE",
"236 371 OFFCURVE",
"236 360 CURVE SMOOTH",
"236 349 OFFCURVE",
"237 333 OFFCURVE",
"240 320 CURVE",
"360 320 LINE",
"363 333 OFFCURVE",
"364 349 OFFCURVE",
"364 360 CURVE SMOOTH",
"364 371 OFFCURVE",
"363 388 OFFCURVE",
"360 400 CURVE",
"240 400 LINE"
);
},
{
closed = 1;
nodes = (
"277 68 OFFCURVE",
"276 51 OFFCURVE",
"276 40 CURVE SMOOTH",
"276 29 OFFCURVE",
"277 13 OFFCURVE",
"280 0 CURVE",
"360 0 LINE",
"363 13 OFFCURVE",
"364 29 OFFCURVE",
"364 40 CURVE SMOOTH",
"364 51 OFFCURVE",
"363 68 OFFCURVE",
"360 80 CURVE",
"280 80 LINE"
);
},
{
closed = 1;
nodes = (
"237 -12 OFFCURVE",
"236 -29 OFFCURVE",
"236 -40 CURVE SMOOTH",
"236 -51 OFFCURVE",
"237 -67 OFFCURVE",
"240 -80 CURVE",
"320 -80 LINE",
"323 -67 OFFCURVE",
"324 -51 OFFCURVE",
"324 -40 CURVE SMOOTH",
"324 -29 OFFCURVE",
"323 -12 OFFCURVE",
"320 0 CURVE",
"240 0 LINE"
);
},
{
closed = 1;
nodes = (
"277 548 OFFCURVE",
"276 531 OFFCURVE",
"276 520 CURVE SMOOTH",
"276 509 OFFCURVE",
"277 493 OFFCURVE",
"280 480 CURVE",
"360 480 LINE",
"363 493 OFFCURVE",
"364 509 OFFCURVE",
"364 520 CURVE SMOOTH",
"364 531 OFFCURVE",
"363 548 OFFCURVE",
"360 560 CURVE",
"280 560 LINE"
);
}
);
width = 400;
}
);
unicode = 01C8;
},
{
color = 3;
glyphname = Lslash;
lastChange = "2016-07-06 09:11:00 +0000";
layers = (
{
layerId = "DA6254B3-9514-4A47-8309-1A9185AEAC97";
paths = (
{
closed = 1;
nodes = (
"77 68 OFFCURVE",
"76 51 OFFCURVE",
"76 40 CURVE SMOOTH",
"76 29 OFFCURVE",
"77 13 OFFCURVE",
"80 0 CURVE",
"240 0 LINE",
"243 13 OFFCURVE",
"244 29 OFFCURVE",
"244 40 CURVE SMOOTH",
"244 51 OFFCURVE",
"243 68 OFFCURVE",
"240 80 CURVE",
"80 80 LINE"
);
},
{
closed = 1;
nodes = (
"77 548 OFFCURVE",
"76 531 OFFCURVE",
"76 520 CURVE SMOOTH",
"76 509 OFFCURVE",
"77 493 OFFCURVE",
"80 480 CURVE",
"160 480 LINE",
"163 493 OFFCURVE",
"164 509 OFFCURVE",
"164 520 CURVE SMOOTH",
"164 531 OFFCURVE",
"163 548 OFFCURVE",
"160 560 CURVE",
"80 560 LINE"
);
},
{
closed = 1;
nodes = (
"77 308 OFFCURVE",
"76 291 OFFCURVE",
"76 280 CURVE SMOOTH",
"76 269 OFFCURVE",
"77 253 OFFCURVE",
"80 240 CURVE",
"200 240 LINE",
"203 253 OFFCURVE",
"204 269 OFFCURVE",
"204 280 CURVE SMOOTH",
"204 291 OFFCURVE",
"203 308 OFFCURVE",
"200 320 CURVE",
"80 320 LINE"
);
},
{
closed = 1;
nodes = (
"37 228 OFFCURVE",
"36 211 OFFCURVE",
"36 200 CURVE SMOOTH",
"36 189 OFFCURVE",
"37 173 OFFCURVE",
"40 160 CURVE",
"160 160 LINE",
"163 173 OFFCURVE",
"164 189 OFFCURVE",
"164 200 CURVE SMOOTH",
"164 211 OFFCURVE",
"163 228 OFFCURVE",
"160 240 CURVE",
"40 240 LINE"
);
},
{
closed = 1;
nodes = (
"197 388 OFFCURVE",
"196 371 OFFCURVE",
"196 360 CURVE SMOOTH",
"196 349 OFFCURVE",
"197 333 OFFCURVE",
"200 320 CURVE",
"260 320 LINE",
"263 333 OFFCURVE",
"264 349 OFFCURVE",
"264 360 CURVE SMOOTH",
"264 371 OFFCURVE",
"263 388 OFFCURVE",
"260 400 CURVE",
"200 400 LINE"
);
},
{
closed = 1;
nodes = (
"77 148 OFFCURVE",
"76 131 OFFCURVE",
"76 120 CURVE SMOOTH",
"76 109 OFFCURVE",
"77 93 OFFCURVE",
"80 80 CURVE",
"160 80 LINE",
"163 93 OFFCURVE",
"164 109 OFFCURVE",
"164 120 CURVE SMOOTH",
"164 131 OFFCURVE",
"163 148 OFFCURVE",
"160 160 CURVE",
"80 160 LINE"
);
},
{
closed = 1;
nodes = (
"77 468 OFFCURVE",
"76 451 OFFCURVE",
"76 440 CURVE SMOOTH",
"76 429 OFFCURVE",
"77 413 OFFCURVE",
"80 400 CURVE",
"160 400 LINE",
"163 413 OFFCURVE",
"164 429 OFFCURVE",
"164 440 CURVE SMOOTH",
"164 451 OFFCURVE",
"163 468 OFFCURVE",
"160 480 CURVE",
"80 480 LINE"
);
},
{
closed = 1;
nodes = (
"77 388 OFFCURVE",
"76 371 OFFCURVE",
"76 360 CURVE SMOOTH",
"76 349 OFFCURVE",
"77 333 OFFCURVE",
"80 320 CURVE",
"160 320 LINE",
"163 333 OFFCURVE",
"164 349 OFFCURVE",
"164 360 CURVE SMOOTH",
"164 371 OFFCURVE",
"163 388 OFFCURVE",
"160 400 CURVE",
"80 400 LINE"
);
},
{
closed = 1;
nodes = (
"237 68 OFFCURVE",
"236 51 OFFCURVE",
"236 40 CURVE SMOOTH",
"236 29 OFFCURVE",
"237 13 OFFCURVE",
"240 0 CURVE",
"360 0 LINE",
"363 13 OFFCURVE",
"364 29 OFFCURVE",
"364 40 CURVE SMOOTH",
"364 51 OFFCURVE",
"363 68 OFFCURVE",
"360 80 CURVE",
"240 80 LINE"
);
}
);
width = 400;
}
);
unicode = 0141;
},
{
color = 3;
glyphname = M;
lastChange = "2016-07-06 09:11:00 +0000";
layers = (
{
anchors = (
{
name = bottom;
position = "{200, 0}";
},
{
name = top;
position = "{200, 560}";
}
);
layerId = "DA6254B3-9514-4A47-8309-1A9185AEAC97";
paths = (
{
closed = 1;
nodes = (
"37 388 OFFCURVE",
"36 371 OFFCURVE",
"36 360 CURVE SMOOTH",
"36 349 OFFCURVE",
"37 333 OFFCURVE",
"40 320 CURVE",
"120 320 LINE",
"123 333 OFFCURVE",
"124 349 OFFCURVE",
"124 360 CURVE SMOOTH",
"124 371 OFFCURVE",
"123 388 OFFCURVE",
"120 400 CURVE",
"40 400 LINE"
);
},
{
closed = 1;
nodes = (
"277 388 OFFCURVE",
"276 371 OFFCURVE",
"276 360 CURVE SMOOTH",
"276 349 OFFCURVE",
"277 333 OFFCURVE",
"280 320 CURVE",
"360 320 LINE",
"363 333 OFFCURVE",
"364 349 OFFCURVE",
"364 360 CURVE SMOOTH",
"364 371 OFFCURVE",
"363 388 OFFCURVE",
"360 400 CURVE",
"280 400 LINE"
);
},
{
closed = 1;
nodes = (
"147 388 OFFCURVE",
"146 371 OFFCURVE",
"146 360 CURVE SMOOTH",
"146 349 OFFCURVE",
"147 333 OFFCURVE",
"150 320 CURVE",
"185 320 LINE",
"188 333 OFFCURVE",
"189 349 OFFCURVE",
"189 360 CURVE SMOOTH",
"189 371 OFFCURVE",
"188 388 OFFCURVE",
"185 400 CURVE",
"150 400 LINE"
);
},
{
closed = 1;
nodes = (
"37 308 OFFCURVE",
"36 291 OFFCURVE",
"36 280 CURVE SMOOTH",
"36 269 OFFCURVE",
"37 253 OFFCURVE",
"40 240 CURVE",
"120 240 LINE",
"123 253 OFFCURVE",
"124 269 OFFCURVE",
"124 280 CURVE SMOOTH",
"124 291 OFFCURVE",
"123 308 OFFCURVE",
"120 320 CURVE",
"40 320 LINE"
);
},
{
closed = 1;
nodes = (
"277 308 OFFCURVE",
"276 291 OFFCURVE",
"276 280 CURVE SMOOTH",
"276 269 OFFCURVE",
"277 253 OFFCURVE",
"280 240 CURVE",
"360 240 LINE",
"363 253 OFFCURVE",
"364 269 OFFCURVE",
"364 280 CURVE SMOOTH",
"364 291 OFFCURVE",
"363 308 OFFCURVE",
"360 320 CURVE",
"280 320 LINE"
);
},
{
closed = 1;
nodes = (
"167 148 OFFCURVE",
"166 131 OFFCURVE",
"166 120 CURVE SMOOTH",
"166 109 OFFCURVE",
"167 93 OFFCURVE",
"170 80 CURVE",
"230 80 LINE",
"233 93 OFFCURVE",
"234 109 OFFCURVE",
"234 120 CURVE SMOOTH",
"234 131 OFFCURVE",
"233 148 OFFCURVE",
"230 160 CURVE",
"170 160 LINE"
);
},
{
closed = 1;
nodes = (
"147 308 OFFCURVE",
"146 291 OFFCURVE",
"146 280 CURVE SMOOTH",
"146 269 OFFCURVE",
"147 253 OFFCURVE",
"150 240 CURVE",
"250 240 LINE",
"253 253 OFFCURVE",
"254 269 OFFCURVE",
"254 280 CURVE SMOOTH",
"254 291 OFFCURVE",
"253 308 OFFCURVE",
"250 320 CURVE",
"150 320 LINE"
);
},
{
closed = 1;
nodes = (
"37 548 OFFCURVE",
"36 531 OFFCURVE",
"36 520 CURVE SMOOTH",
"36 509 OFFCURVE",
"37 493 OFFCURVE",
"40 480 CURVE",
"140 480 LINE",
"143 493 OFFCURVE",
"144 509 OFFCURVE",
"144 520 CURVE SMOOTH",
"144 531 OFFCURVE",
"143 548 OFFCURVE",
"140 560 CURVE",
"40 560 LINE"
);
},
{
closed = 1;
nodes = (
"257 548 OFFCURVE",
"256 531 OFFCURVE",
"256 520 CURVE SMOOTH",
"256 509 OFFCURVE",
"257 493 OFFCURVE",
"260 480 CURVE",
"360 480 LINE",
"363 493 OFFCURVE",
"364 509 OFFCURVE",
"364 520 CURVE SMOOTH",
"364 531 OFFCURVE",
"363 548 OFFCURVE",
"360 560 CURVE",
"260 560 LINE"
);
},
{
closed = 1;
nodes = (
"212 388 OFFCURVE",
"211 371 OFFCURVE",
"211 360 CURVE SMOOTH",
"211 349 OFFCURVE",
"212 333 OFFCURVE",
"215 320 CURVE",
"250 320 LINE",
"253 333 OFFCURVE",
"254 349 OFFCURVE",
"254 360 CURVE SMOOTH",
"254 371 OFFCURVE",
"253 388 OFFCURVE",
"250 400 CURVE",
"215 400 LINE"
);
},
{
closed = 1;
nodes = (
"167 228 OFFCURVE",
"166 211 OFFCURVE",
"166 200 CURVE SMOOTH",
"166 189 OFFCURVE",
"167 173 OFFCURVE",
"170 160 CURVE",
"230 160 LINE",
"233 173 OFFCURVE",
"234 189 OFFCURVE",
"234 200 CURVE SMOOTH",
"234 211 OFFCURVE",
"233 228 OFFCURVE",
"230 240 CURVE",
"170 240 LINE"
);
},
{
closed = 1;
nodes = (
"37 228 OFFCURVE",
"36 211 OFFCURVE",
"36 200 CURVE SMOOTH",
"36 189 OFFCURVE",
"37 173 OFFCURVE",
"40 160 CURVE",
"120 160 LINE",
"123 173 OFFCURVE",
"124 189 OFFCURVE",
"124 200 CURVE SMOOTH",
"124 211 OFFCURVE",
"123 228 OFFCURVE",
"120 240 CURVE",
"40 240 LINE"
);
},
{
closed = 1;
nodes = (
"277 228 OFFCURVE",
"276 211 OFFCURVE",
"276 200 CURVE SMOOTH",
"276 189 OFFCURVE",
"277 173 OFFCURVE",
"280 160 CURVE",
"360 160 LINE",
"363 173 OFFCURVE",
"364 189 OFFCURVE",
"364 200 CURVE SMOOTH",
"364 211 OFFCURVE",
"363 228 OFFCURVE",
"360 240 CURVE",
"280 240 LINE"
);
},
{
closed = 1;
nodes = (
"37 148 OFFCURVE",
"36 131 OFFCURVE",
"36 120 CURVE SMOOTH",
"36 109 OFFCURVE",
"37 93 OFFCURVE",
"40 80 CURVE",
"120 80 LINE",
"123 93 OFFCURVE",
"124 109 OFFCURVE",
"124 120 CURVE SMOOTH",
"124 131 OFFCURVE",
"123 148 OFFCURVE",
"120 160 CURVE",
"40 160 LINE"
);
},
{
closed = 1;
nodes = (
"277 148 OFFCURVE",
"276 131 OFFCURVE",
"276 120 CURVE SMOOTH",
"276 109 OFFCURVE",
"277 93 OFFCURVE",
"280 80 CURVE",
"360 80 LINE",
"363 93 OFFCURVE",
"364 109 OFFCURVE",
"364 120 CURVE SMOOTH",
"364 131 OFFCURVE",
"363 148 OFFCURVE",
"360 160 CURVE",
"280 160 LINE"
);
},
{
closed = 1;
nodes = (
"37 68 OFFCURVE",
"36 51 OFFCURVE",
"36 40 CURVE SMOOTH",
"36 29 OFFCURVE",
"37 13 OFFCURVE",
"40 0 CURVE",
"120 0 LINE",
"123 13 OFFCURVE",
"124 29 OFFCURVE",
"124 40 CURVE SMOOTH",
"124 51 OFFCURVE",
"123 68 OFFCURVE",
"120 80 CURVE",
"40 80 LINE"
);
},
{
closed = 1;
nodes = (
"277 68 OFFCURVE",
"276 51 OFFCURVE",
"276 40 CURVE SMOOTH",
"276 29 OFFCURVE",
"277 13 OFFCURVE",
"280 0 CURVE",
"360 0 LINE",
"363 13 OFFCURVE",
"364 29 OFFCURVE",
"364 40 CURVE SMOOTH",
"364 51 OFFCURVE",
"363 68 OFFCURVE",
"360 80 CURVE",
"280 80 LINE"
);
},
{
closed = 1;
nodes = (
"37 468 OFFCURVE",
"36 451 OFFCURVE",
"36 440 CURVE SMOOTH",
"36 429 OFFCURVE",
"37 413 OFFCURVE",
"40 400 CURVE",
"170 400 LINE",
"173 413 OFFCURVE",
"174 429 OFFCURVE",
"174 440 CURVE SMOOTH",
"174 451 OFFCURVE",
"173 468 OFFCURVE",
"170 480 CURVE",
"40 480 LINE"
);
},
{
closed = 1;
nodes = (
"227 468 OFFCURVE",
"226 451 OFFCURVE",
"226 440 CURVE SMOOTH",
"226 429 OFFCURVE",
"227 413 OFFCURVE",
"230 400 CURVE",
"360 400 LINE",
"363 413 OFFCURVE",
"364 429 OFFCURVE",
"364 440 CURVE SMOOTH",
"364 451 OFFCURVE",
"363 468 OFFCURVE",
"360 480 CURVE",
"230 480 LINE"
);
}
);
width = 400;
}
);
unicode = 004D;
},
{
color = 3;
glyphname = N;
lastChange = "2016-07-06 09:11:00 +0000";
layers = (
{
anchors = (
{
name = bottom;
position = "{200, 0}";
},
{
name = top;
position = "{200, 560}";
}
);
layerId = "DA6254B3-9514-4A47-8309-1A9185AEAC97";
paths = (
{
closed = 1;
nodes = (
"37 388 OFFCURVE",
"36 371 OFFCURVE",
"36 360 CURVE SMOOTH",
"36 349 OFFCURVE",
"37 333 OFFCURVE",
"40 320 CURVE",
"200 320 LINE",
"203 333 OFFCURVE",
"204 349 OFFCURVE",
"204 360 CURVE SMOOTH",
"204 371 OFFCURVE",
"203 388 OFFCURVE",
"200 400 CURVE",
"40 400 LINE"
);
},
{
closed = 1;
nodes = (
"37 308 OFFCURVE",
"36 291 OFFCURVE",
"36 280 CURVE SMOOTH",
"36 269 OFFCURVE",
"37 253 OFFCURVE",
"40 240 CURVE",
"120 240 LINE",
"123 253 OFFCURVE",
"124 269 OFFCURVE",
"124 280 CURVE SMOOTH",
"124 291 OFFCURVE",
"123 308 OFFCURVE",
"120 320 CURVE",
"40 320 LINE"
);
},
{
closed = 1;
nodes = (
"37 548 OFFCURVE",
"36 531 OFFCURVE",
"36 520 CURVE SMOOTH",
"36 509 OFFCURVE",
"37 493 OFFCURVE",
"40 480 CURVE",
"140 480 LINE",
"143 493 OFFCURVE",
"144 509 OFFCURVE",
"144 520 CURVE SMOOTH",
"144 531 OFFCURVE",
"143 548 OFFCURVE",
"140 560 CURVE",
"40 560 LINE"
);
},
{
closed = 1;
nodes = (
"37 228 OFFCURVE",
"36 211 OFFCURVE",
"36 200 CURVE SMOOTH",
"36 189 OFFCURVE",
"37 173 OFFCURVE",
"40 160 CURVE",
"120 160 LINE",
"123 173 OFFCURVE",
"124 189 OFFCURVE",
"124 200 CURVE SMOOTH",
"124 211 OFFCURVE",
"123 228 OFFCURVE",
"120 240 CURVE",
"40 240 LINE"
);
},
{
closed = 1;
nodes = (
"37 148 OFFCURVE",
"36 131 OFFCURVE",
"36 120 CURVE SMOOTH",
"36 109 OFFCURVE",
"37 93 OFFCURVE",
"40 80 CURVE",
"120 80 LINE",
"123 93 OFFCURVE",
"124 109 OFFCURVE",
"124 120 CURVE SMOOTH",
"124 131 OFFCURVE",
"123 148 OFFCURVE",
"120 160 CURVE",
"40 160 LINE"
);
},
{
closed = 1;
nodes = (
"37 68 OFFCURVE",
"36 51 OFFCURVE",
"36 40 CURVE SMOOTH",
"36 29 OFFCURVE",
"37 13 OFFCURVE",
"40 0 CURVE",
"120 0 LINE",
"123 13 OFFCURVE",
"124 29 OFFCURVE",
"124 40 CURVE SMOOTH",
"124 51 OFFCURVE",
"123 68 OFFCURVE",
"120 80 CURVE",
"40 80 LINE"
);
},
{
closed = 1;
nodes = (
"37 468 OFFCURVE",
"36 451 OFFCURVE",
"36 440 CURVE SMOOTH",
"36 429 OFFCURVE",
"37 413 OFFCURVE",
"40 400 CURVE",
"170 400 LINE",
"173 413 OFFCURVE",
"174 429 OFFCURVE",
"174 440 CURVE SMOOTH",
"174 451 OFFCURVE",
"173 468 OFFCURVE",
"170 480 CURVE",
"40 480 LINE"
);
},
{
closed = 1;
nodes = (
"157 308 OFFCURVE",
"156 291 OFFCURVE",
"156 280 CURVE SMOOTH",
"156 269 OFFCURVE",
"157 253 OFFCURVE",
"160 240 CURVE",
"240 240 LINE",
"243 253 OFFCURVE",
"244 269 OFFCURVE",
"244 280 CURVE SMOOTH",
"244 291 OFFCURVE",
"243 308 OFFCURVE",
"240 320 CURVE",
"160 320 LINE"
);
},
{
closed = 1;
nodes = (
"197 228 OFFCURVE",
"196 211 OFFCURVE",
"196 200 CURVE SMOOTH",
"196 189 OFFCURVE",
"197 173 OFFCURVE",
"200 160 CURVE",
"360 160 LINE",
"363 173 OFFCURVE",
"364 189 OFFCURVE",
"364 200 CURVE SMOOTH",
"364 211 OFFCURVE",
"363 228 OFFCURVE",
"360 240 CURVE",
"200 240 LINE"
);
},
{
closed = 1;
nodes = (
"227 148 OFFCURVE",
"226 131 OFFCURVE",
"226 120 CURVE SMOOTH",
"226 109 OFFCURVE",
"227 93 OFFCURVE",
"230 80 CURVE",
"360 80 LINE",
"363 93 OFFCURVE",
"364 109 OFFCURVE",
"364 120 CURVE SMOOTH",
"364 131 OFFCURVE",
"363 148 OFFCURVE",
"360 160 CURVE",
"230 160 LINE"
);
},
{
closed = 1;
nodes = (
"277 68 OFFCURVE",
"276 51 OFFCURVE",
"276 40 CURVE SMOOTH",
"276 29 OFFCURVE",
"277 13 OFFCURVE",
"280 0 CURVE",
"360 0 LINE",
"363 13 OFFCURVE",
"364 29 OFFCURVE",
"364 40 CURVE SMOOTH",
"364 51 OFFCURVE",
"363 68 OFFCURVE",
"360 80 CURVE",
"280 80 LINE"
);
},
{
closed = 1;
nodes = (
"277 308 OFFCURVE",
"276 291 OFFCURVE",
"276 280 CURVE SMOOTH",
"276 269 OFFCURVE",
"277 253 OFFCURVE",
"280 240 CURVE",
"360 240 LINE",
"363 253 OFFCURVE",
"364 269 OFFCURVE",
"364 280 CURVE SMOOTH",
"364 291 OFFCURVE",
"363 308 OFFCURVE",
"360 320 CURVE",
"280 320 LINE"
);
},
{
closed = 1;
nodes = (
"277 388 OFFCURVE",
"276 371 OFFCURVE",
"276 360 CURVE SMOOTH",
"276 349 OFFCURVE",
"277 333 OFFCURVE",
"280 320 CURVE",
"360 320 LINE",
"363 333 OFFCURVE",
"364 349 OFFCURVE",
"364 360 CURVE SMOOTH",
"364 371 OFFCURVE",
"363 388 OFFCURVE",
"360 400 CURVE",
"280 400 LINE"
);
},
{
closed = 1;
nodes = (
"277 468 OFFCURVE",
"276 451 OFFCURVE",
"276 440 CURVE SMOOTH",
"276 429 OFFCURVE",
"277 413 OFFCURVE",
"280 400 CURVE",
"360 400 LINE",
"363 413 OFFCURVE",
"364 429 OFFCURVE",
"364 440 CURVE SMOOTH",
"364 451 OFFCURVE",
"363 468 OFFCURVE",
"360 480 CURVE",
"280 480 LINE"
);
},
{
closed = 1;
nodes = (
"277 548 OFFCURVE",
"276 531 OFFCURVE",
"276 520 CURVE SMOOTH",
"276 509 OFFCURVE",
"277 493 OFFCURVE",
"280 480 CURVE",
"360 480 LINE",
"363 493 OFFCURVE",
"364 509 OFFCURVE",
"364 520 CURVE SMOOTH",
"364 531 OFFCURVE",
"363 548 OFFCURVE",
"360 560 CURVE",
"280 560 LINE"
);
}
);
width = 400;
}
);
unicode = 004E;
},
{
color = 3;
glyphname = NJ;
lastChange = "2016-07-06 09:11:00 +0000";
layers = (
{
layerId = "DA6254B3-9514-4A47-8309-1A9185AEAC97";
paths = (
{
closed = 1;
nodes = (
"297 148 OFFCURVE",
"296 131 OFFCURVE",
"296 120 CURVE SMOOTH",
"296 109 OFFCURVE",
"297 93 OFFCURVE",
"300 80 CURVE",
"360 80 LINE",
"363 93 OFFCURVE",
"364 109 OFFCURVE",
"364 120 CURVE SMOOTH",
"364 131 OFFCURVE",
"363 148 OFFCURVE",
"360 160 CURVE",
"300 160 LINE"
);
},
{
closed = 1;
nodes = (
"297 228 OFFCURVE",
"296 211 OFFCURVE",
"296 200 CURVE SMOOTH",
"296 189 OFFCURVE",
"297 173 OFFCURVE",
"300 160 CURVE",
"360 160 LINE",
"363 173 OFFCURVE",
"364 189 OFFCURVE",
"364 200 CURVE SMOOTH",
"364 211 OFFCURVE",
"363 228 OFFCURVE",
"360 240 CURVE",
"300 240 LINE"
);
},
{
closed = 1;
nodes = (
"297 308 OFFCURVE",
"296 291 OFFCURVE",
"296 280 CURVE SMOOTH",
"296 269 OFFCURVE",
"297 253 OFFCURVE",
"300 240 CURVE",
"360 240 LINE",
"363 253 OFFCURVE",
"364 269 OFFCURVE",
"364 280 CURVE SMOOTH",
"364 291 OFFCURVE",
"363 308 OFFCURVE",
"360 320 CURVE",
"300 320 LINE"
);
},
{
closed = 1;
nodes = (
"297 388 OFFCURVE",
"296 371 OFFCURVE",
"296 360 CURVE SMOOTH",
"296 349 OFFCURVE",
"297 333 OFFCURVE",
"300 320 CURVE",
"360 320 LINE",
"363 333 OFFCURVE",
"364 349 OFFCURVE",
"364 360 CURVE SMOOTH",
"364 371 OFFCURVE",
"363 388 OFFCURVE",
"360 400 CURVE",
"300 400 LINE"
);
},
{
closed = 1;
nodes = (
"297 468 OFFCURVE",
"296 451 OFFCURVE",
"296 440 CURVE SMOOTH",
"296 429 OFFCURVE",
"297 413 OFFCURVE",
"300 400 CURVE",
"360 400 LINE",
"363 413 OFFCURVE",
"364 429 OFFCURVE",
"364 440 CURVE SMOOTH",
"364 451 OFFCURVE",
"363 468 OFFCURVE",
"360 480 CURVE",
"300 480 LINE"
);
},
{
closed = 1;
nodes = (
"269 68 OFFCURVE",
"268 51 OFFCURVE",
"268 40 CURVE SMOOTH",
"268 29 OFFCURVE",
"269 13 OFFCURVE",
"272 0 CURVE",
"332 0 LINE",
"335 13 OFFCURVE",
"336 29 OFFCURVE",
"336 40 CURVE SMOOTH",
"336 51 OFFCURVE",
"335 68 OFFCURVE",
"332 80 CURVE",
"272 80 LINE"
);
},
{
closed = 1;
nodes = (
"37 68 OFFCURVE",
"36 51 OFFCURVE",
"36 40 CURVE SMOOTH",
"36 29 OFFCURVE",
"37 13 OFFCURVE",
"40 0 CURVE",
"100 0 LINE",
"103 13 OFFCURVE",
"104 29 OFFCURVE",
"104 40 CURVE SMOOTH",
"104 51 OFFCURVE",
"103 68 OFFCURVE",
"100 80 CURVE",
"40 80 LINE"
);
},
{
closed = 1;
nodes = (
"37 148 OFFCURVE",
"36 131 OFFCURVE",
"36 120 CURVE SMOOTH",
"36 109 OFFCURVE",
"37 93 OFFCURVE",
"40 80 CURVE",
"100 80 LINE",
"103 93 OFFCURVE",
"104 109 OFFCURVE",
"104 120 CURVE SMOOTH",
"104 131 OFFCURVE",
"103 148 OFFCURVE",
"100 160 CURVE",
"40 160 LINE"
);
},
{
closed = 1;
nodes = (
"37 228 OFFCURVE",
"36 211 OFFCURVE",
"36 200 CURVE SMOOTH",
"36 189 OFFCURVE",
"37 173 OFFCURVE",
"40 160 CURVE",
"100 160 LINE",
"103 173 OFFCURVE",
"104 189 OFFCURVE",
"104 200 CURVE SMOOTH",
"104 211 OFFCURVE",
"103 228 OFFCURVE",
"100 240 CURVE",
"40 240 LINE"
);
},
{
closed = 1;
nodes = (
"112 388 OFFCURVE",
"111 371 OFFCURVE",
"111 360 CURVE SMOOTH",
"111 349 OFFCURVE",
"112 333 OFFCURVE",
"115 320 CURVE",
"155 320 LINE",
"158 333 OFFCURVE",
"159 349 OFFCURVE",
"159 360 CURVE SMOOTH",
"159 371 OFFCURVE",
"158 388 OFFCURVE",
"155 400 CURVE",
"115 400 LINE"
);
},
{
closed = 1;
nodes = (
"167 68 OFFCURVE",
"166 51 OFFCURVE",
"166 40 CURVE SMOOTH",
"166 29 OFFCURVE",
"167 13 OFFCURVE",
"170 0 CURVE",
"230 0 LINE",
"233 13 OFFCURVE",
"234 29 OFFCURVE",
"234 40 CURVE SMOOTH",
"234 51 OFFCURVE",
"233 68 OFFCURVE",
"230 80 CURVE",
"170 80 LINE"
);
},
{
closed = 1;
nodes = (
"167 148 OFFCURVE",
"166 131 OFFCURVE",
"166 120 CURVE SMOOTH",
"166 109 OFFCURVE",
"167 93 OFFCURVE",
"170 80 CURVE",
"230 80 LINE",
"233 93 OFFCURVE",
"234 109 OFFCURVE",
"234 120 CURVE SMOOTH",
"234 131 OFFCURVE",
"233 148 OFFCURVE",
"230 160 CURVE",
"170 160 LINE"
);
},
{
closed = 1;
nodes = (
"167 228 OFFCURVE",
"166 211 OFFCURVE",
"166 200 CURVE SMOOTH",
"166 189 OFFCURVE",
"167 173 OFFCURVE",
"170 160 CURVE",
"230 160 LINE",
"233 173 OFFCURVE",
"234 189 OFFCURVE",
"234 200 CURVE SMOOTH",
"234 211 OFFCURVE",
"233 228 OFFCURVE",
"230 240 CURVE",
"170 240 LINE"
);
},
{
closed = 1;
nodes = (
"147 308 OFFCURVE",
"146 291 OFFCURVE",
"146 280 CURVE SMOOTH",
"146 269 OFFCURVE",
"147 253 OFFCURVE",
"150 240 CURVE",
"230 240 LINE",
"233 253 OFFCURVE",
"234 269 OFFCURVE",
"234 280 CURVE SMOOTH",
"234 291 OFFCURVE",
"233 308 OFFCURVE",
"230 320 CURVE",
"150 320 LINE"
);
},
{
closed = 1;
nodes = (
"37 308 OFFCURVE",
"36 291 OFFCURVE",
"36 280 CURVE SMOOTH",
"36 269 OFFCURVE",
"37 253 OFFCURVE",
"40 240 CURVE",
"100 240 LINE",
"103 253 OFFCURVE",
"104 269 OFFCURVE",
"104 280 CURVE SMOOTH",
"104 291 OFFCURVE",
"103 308 OFFCURVE",
"100 320 CURVE",
"40 320 LINE"
);
},
{
closed = 1;
nodes = (
"177 388 OFFCURVE",
"176 371 OFFCURVE",
"176 360 CURVE SMOOTH",
"176 349 OFFCURVE",
"177 333 OFFCURVE",
"180 320 CURVE",
"230 320 LINE",
"233 333 OFFCURVE",
"234 349 OFFCURVE",
"234 360 CURVE SMOOTH",
"234 371 OFFCURVE",
"233 388 OFFCURVE",
"230 400 CURVE",
"180 400 LINE"
);
},
{
closed = 1;
nodes = (
"37 388 OFFCURVE",
"36 371 OFFCURVE",
"36 360 CURVE SMOOTH",
"36 349 OFFCURVE",
"37 333 OFFCURVE",
"40 320 CURVE",
"90 320 LINE",
"93 333 OFFCURVE",
"94 349 OFFCURVE",
"94 360 CURVE SMOOTH",
"94 371 OFFCURVE",
"93 388 OFFCURVE",
"90 400 CURVE",
"40 400 LINE"
);
},
{
closed = 1;
nodes = (
"167 468 OFFCURVE",
"166 451 OFFCURVE",
"166 440 CURVE SMOOTH",
"166 429 OFFCURVE",
"167 413 OFFCURVE",
"170 400 CURVE",
"230 400 LINE",
"233 413 OFFCURVE",
"234 429 OFFCURVE",
"234 440 CURVE SMOOTH",
"234 451 OFFCURVE",
"233 468 OFFCURVE",
"230 480 CURVE",
"170 480 LINE"
);
},
{
closed = 1;
nodes = (
"37 468 OFFCURVE",
"36 451 OFFCURVE",
"36 440 CURVE SMOOTH",
"36 429 OFFCURVE",
"37 413 OFFCURVE",
"40 400 CURVE",
"120 400 LINE",
"123 413 OFFCURVE",
"124 429 OFFCURVE",
"124 440 CURVE SMOOTH",
"124 451 OFFCURVE",
"123 468 OFFCURVE",
"120 480 CURVE",
"40 480 LINE"
);
},
{
closed = 1;
nodes = (
"167 548 OFFCURVE",
"166 531 OFFCURVE",
"166 520 CURVE SMOOTH",
"166 509 OFFCURVE",
"167 493 OFFCURVE",
"170 480 CURVE",
"230 480 LINE",
"233 493 OFFCURVE",
"234 509 OFFCURVE",
"234 520 CURVE SMOOTH",
"234 531 OFFCURVE",
"233 548 OFFCURVE",
"230 560 CURVE",
"170 560 LINE"
);
},
{
closed = 1;
nodes = (
"37 548 OFFCURVE",
"36 531 OFFCURVE",
"36 520 CURVE SMOOTH",
"36 509 OFFCURVE",
"37 493 OFFCURVE",
"40 480 CURVE",
"100 480 LINE",
"103 493 OFFCURVE",
"104 509 OFFCURVE",
"104 520 CURVE SMOOTH",
"104 531 OFFCURVE",
"103 548 OFFCURVE",
"100 560 CURVE",
"40 560 LINE"
);
},
{
closed = 1;
nodes = (
"277 548 OFFCURVE",
"276 531 OFFCURVE",
"276 520 CURVE SMOOTH",
"276 509 OFFCURVE",
"277 493 OFFCURVE",
"280 480 CURVE",
"360 480 LINE",
"363 493 OFFCURVE",
"364 509 OFFCURVE",
"364 520 CURVE SMOOTH",
"364 531 OFFCURVE",
"363 548 OFFCURVE",
"360 560 CURVE",
"280 560 LINE"
);
}
);
width = 400;
}
);
unicode = 01CA;
},
{
color = 3;
glyphname = Eng;
lastChange = "2016-07-06 09:11:00 +0000";
layers = (
{
layerId = "DA6254B3-9514-4A47-8309-1A9185AEAC97";
paths = (
{
closed = 1;
nodes = (
"37 388 OFFCURVE",
"36 371 OFFCURVE",
"36 360 CURVE SMOOTH",
"36 349 OFFCURVE",
"37 333 OFFCURVE",
"40 320 CURVE",
"200 320 LINE",
"203 333 OFFCURVE",
"204 349 OFFCURVE",
"204 360 CURVE SMOOTH",
"204 371 OFFCURVE",
"203 388 OFFCURVE",
"200 400 CURVE",
"40 400 LINE"
);
},
{
closed = 1;
nodes = (
"37 308 OFFCURVE",
"36 291 OFFCURVE",
"36 280 CURVE SMOOTH",
"36 269 OFFCURVE",
"37 253 OFFCURVE",
"40 240 CURVE",
"120 240 LINE",
"123 253 OFFCURVE",
"124 269 OFFCURVE",
"124 280 CURVE SMOOTH",
"124 291 OFFCURVE",
"123 308 OFFCURVE",
"120 320 CURVE",
"40 320 LINE"
);
},
{
closed = 1;
nodes = (
"37 548 OFFCURVE",
"36 531 OFFCURVE",
"36 520 CURVE SMOOTH",
"36 509 OFFCURVE",
"37 493 OFFCURVE",
"40 480 CURVE",
"140 480 LINE",
"143 493 OFFCURVE",
"144 509 OFFCURVE",
"144 520 CURVE SMOOTH",
"144 531 OFFCURVE",
"143 548 OFFCURVE",
"140 560 CURVE",
"40 560 LINE"
);
},
{
closed = 1;
nodes = (
"37 228 OFFCURVE",
"36 211 OFFCURVE",
"36 200 CURVE SMOOTH",
"36 189 OFFCURVE",
"37 173 OFFCURVE",
"40 160 CURVE",
"120 160 LINE",
"123 173 OFFCURVE",
"124 189 OFFCURVE",
"124 200 CURVE SMOOTH",
"124 211 OFFCURVE",
"123 228 OFFCURVE",
"120 240 CURVE",
"40 240 LINE"
);
},
{
closed = 1;
nodes = (
"37 148 OFFCURVE",
"36 131 OFFCURVE",
"36 120 CURVE SMOOTH",
"36 109 OFFCURVE",
"37 93 OFFCURVE",
"40 80 CURVE",
"120 80 LINE",
"123 93 OFFCURVE",
"124 109 OFFCURVE",
"124 120 CURVE SMOOTH",
"124 131 OFFCURVE",
"123 148 OFFCURVE",
"120 160 CURVE",
"40 160 LINE"
);
},
{
closed = 1;
nodes = (
"37 68 OFFCURVE",
"36 51 OFFCURVE",
"36 40 CURVE SMOOTH",
"36 29 OFFCURVE",
"37 13 OFFCURVE",
"40 0 CURVE",
"120 0 LINE",
"123 13 OFFCURVE",
"124 29 OFFCURVE",
"124 40 CURVE SMOOTH",
"124 51 OFFCURVE",
"123 68 OFFCURVE",
"120 80 CURVE",
"40 80 LINE"
);
},
{
closed = 1;
nodes = (
"37 468 OFFCURVE",
"36 451 OFFCURVE",
"36 440 CURVE SMOOTH",
"36 429 OFFCURVE",
"37 413 OFFCURVE",
"40 400 CURVE",
"170 400 LINE",
"173 413 OFFCURVE",
"174 429 OFFCURVE",
"174 440 CURVE SMOOTH",
"174 451 OFFCURVE",
"173 468 OFFCURVE",
"170 480 CURVE",
"40 480 LINE"
);
},
{
closed = 1;
nodes = (
"157 308 OFFCURVE",
"156 291 OFFCURVE",
"156 280 CURVE SMOOTH",
"156 269 OFFCURVE",
"157 253 OFFCURVE",
"160 240 CURVE",
"240 240 LINE",
"243 253 OFFCURVE",
"244 269 OFFCURVE",
"244 280 CURVE SMOOTH",
"244 291 OFFCURVE",
"243 308 OFFCURVE",
"240 320 CURVE",
"160 320 LINE"
);
},
{
closed = 1;
nodes = (
"197 228 OFFCURVE",
"196 211 OFFCURVE",
"196 200 CURVE SMOOTH",
"196 189 OFFCURVE",
"197 173 OFFCURVE",
"200 160 CURVE",
"360 160 LINE",
"363 173 OFFCURVE",
"364 189 OFFCURVE",
"364 200 CURVE SMOOTH",
"364 211 OFFCURVE",
"363 228 OFFCURVE",
"360 240 CURVE",
"200 240 LINE"
);
},
{
closed = 1;
nodes = (
"227 148 OFFCURVE",
"226 131 OFFCURVE",
"226 120 CURVE SMOOTH",
"226 109 OFFCURVE",
"227 93 OFFCURVE",
"230 80 CURVE",
"360 80 LINE",
"363 93 OFFCURVE",
"364 109 OFFCURVE",
"364 120 CURVE SMOOTH",
"364 131 OFFCURVE",
"363 148 OFFCURVE",
"360 160 CURVE",
"230 160 LINE"
);
},
{
closed = 1;
nodes = (
"277 308 OFFCURVE",
"276 291 OFFCURVE",
"276 280 CURVE SMOOTH",
"276 269 OFFCURVE",
"277 253 OFFCURVE",
"280 240 CURVE",
"360 240 LINE",
"363 253 OFFCURVE",
"364 269 OFFCURVE",
"364 280 CURVE SMOOTH",
"364 291 OFFCURVE",
"363 308 OFFCURVE",
"360 320 CURVE",
"280 320 LINE"
);
},
{
closed = 1;
nodes = (
"277 388 OFFCURVE",
"276 371 OFFCURVE",
"276 360 CURVE SMOOTH",
"276 349 OFFCURVE",
"277 333 OFFCURVE",
"280 320 CURVE",
"360 320 LINE",
"363 333 OFFCURVE",
"364 349 OFFCURVE",
"364 360 CURVE SMOOTH",
"364 371 OFFCURVE",
"363 388 OFFCURVE",
"360 400 CURVE",
"280 400 LINE"
);
},
{
closed = 1;
nodes = (
"277 468 OFFCURVE",
"276 451 OFFCURVE",
"276 440 CURVE SMOOTH",
"276 429 OFFCURVE",
"277 413 OFFCURVE",
"280 400 CURVE",
"360 400 LINE",
"363 413 OFFCURVE",
"364 429 OFFCURVE",
"364 440 CURVE SMOOTH",
"364 451 OFFCURVE",
"363 468 OFFCURVE",
"360 480 CURVE",
"280 480 LINE"
);
},
{
closed = 1;
nodes = (
"277 548 OFFCURVE",
"276 531 OFFCURVE",
"276 520 CURVE SMOOTH",
"276 509 OFFCURVE",
"277 493 OFFCURVE",
"280 480 CURVE",
"360 480 LINE",
"363 493 OFFCURVE",
"364 509 OFFCURVE",
"364 520 CURVE SMOOTH",
"364 531 OFFCURVE",
"363 548 OFFCURVE",
"360 560 CURVE",
"280 560 LINE"
);
},
{
closed = 1;
nodes = (
"277 68 OFFCURVE",
"276 51 OFFCURVE",
"276 40 CURVE SMOOTH",
"276 29 OFFCURVE",
"277 13 OFFCURVE",
"280 0 CURVE",
"360 0 LINE",
"363 13 OFFCURVE",
"364 29 OFFCURVE",
"364 40 CURVE SMOOTH",
"364 51 OFFCURVE",
"363 68 OFFCURVE",
"360 80 CURVE",
"280 80 LINE"
);
},
{
closed = 1;
nodes = (
"277 -12 OFFCURVE",
"276 -29 OFFCURVE",
"276 -40 CURVE SMOOTH",
"276 -51 OFFCURVE",
"277 -67 OFFCURVE",
"280 -80 CURVE",
"360 -80 LINE",
"363 -67 OFFCURVE",
"364 -51 OFFCURVE",
"364 -40 CURVE SMOOTH",
"364 -29 OFFCURVE",
"363 -12 OFFCURVE",
"360 0 CURVE",
"280 0 LINE"
);
},
{
closed = 1;
nodes = (
"177 -92 OFFCURVE",
"176 -109 OFFCURVE",
"176 -120 CURVE SMOOTH",
"176 -131 OFFCURVE",
"177 -147 OFFCURVE",
"180 -160 CURVE",
"320 -160 LINE",
"323 -147 OFFCURVE",
"324 -131 OFFCURVE",
"324 -120 CURVE SMOOTH",
"324 -109 OFFCURVE",
"323 -92 OFFCURVE",
"320 -80 CURVE",
"180 -80 LINE"
);
}
);
width = 400;
}
);
unicode = 014A;
},
{
color = 3;
glyphname = Nj;
lastChange = "2016-07-06 09:11:00 +0000";
layers = (
{
layerId = "DA6254B3-9514-4A47-8309-1A9185AEAC97";
paths = (
{
closed = 1;
nodes = (
"297 68 OFFCURVE",
"296 51 OFFCURVE",
"296 40 CURVE SMOOTH",
"296 29 OFFCURVE",
"297 13 OFFCURVE",
"300 0 CURVE",
"360 0 LINE",
"363 13 OFFCURVE",
"364 29 OFFCURVE",
"364 40 CURVE SMOOTH",
"364 51 OFFCURVE",
"363 68 OFFCURVE",
"360 80 CURVE",
"300 80 LINE"
);
},
{
closed = 1;
nodes = (
"297 148 OFFCURVE",
"296 131 OFFCURVE",
"296 120 CURVE SMOOTH",
"296 109 OFFCURVE",
"297 93 OFFCURVE",
"300 80 CURVE",
"360 80 LINE",
"363 93 OFFCURVE",
"364 109 OFFCURVE",
"364 120 CURVE SMOOTH",
"364 131 OFFCURVE",
"363 148 OFFCURVE",
"360 160 CURVE",
"300 160 LINE"
);
},
{
closed = 1;
nodes = (
"297 228 OFFCURVE",
"296 211 OFFCURVE",
"296 200 CURVE SMOOTH",
"296 189 OFFCURVE",
"297 173 OFFCURVE",
"300 160 CURVE",
"360 160 LINE",
"363 173 OFFCURVE",
"364 189 OFFCURVE",
"364 200 CURVE SMOOTH",
"364 211 OFFCURVE",
"363 228 OFFCURVE",
"360 240 CURVE",
"300 240 LINE"
);
},
{
closed = 1;
nodes = (
"297 308 OFFCURVE",
"296 291 OFFCURVE",
"296 280 CURVE SMOOTH",
"296 269 OFFCURVE",
"297 253 OFFCURVE",
"300 240 CURVE",
"360 240 LINE",
"363 253 OFFCURVE",
"364 269 OFFCURVE",
"364 280 CURVE SMOOTH",
"364 291 OFFCURVE",
"363 308 OFFCURVE",
"360 320 CURVE",
"300 320 LINE"
);
},
{
closed = 1;
nodes = (
"297 388 OFFCURVE",
"296 371 OFFCURVE",
"296 360 CURVE SMOOTH",
"296 349 OFFCURVE",
"297 333 OFFCURVE",
"300 320 CURVE",
"360 320 LINE",
"363 333 OFFCURVE",
"364 349 OFFCURVE",
"364 360 CURVE SMOOTH",
"364 371 OFFCURVE",
"363 388 OFFCURVE",
"360 400 CURVE",
"300 400 LINE"
);
},
{
closed = 1;
nodes = (
"299 548 OFFCURVE",
"298 531 OFFCURVE",
"298 520 CURVE SMOOTH",
"298 509 OFFCURVE",
"299 493 OFFCURVE",
"302 480 CURVE",
"362 480 LINE",
"365 493 OFFCURVE",
"366 509 OFFCURVE",
"366 520 CURVE SMOOTH",
"366 531 OFFCURVE",
"365 548 OFFCURVE",
"362 560 CURVE",
"302 560 LINE"
);
},
{
closed = 1;
nodes = (
"269 -12 OFFCURVE",
"268 -29 OFFCURVE",
"268 -40 CURVE SMOOTH",
"268 -51 OFFCURVE",
"269 -67 OFFCURVE",
"272 -80 CURVE",
"332 -80 LINE",
"335 -67 OFFCURVE",
"336 -51 OFFCURVE",
"336 -40 CURVE SMOOTH",
"336 -29 OFFCURVE",
"335 -12 OFFCURVE",
"332 0 CURVE",
"272 0 LINE"
);
},
{
closed = 1;
nodes = (
"229 -92 OFFCURVE",
"228 -109 OFFCURVE",
"228 -120 CURVE SMOOTH",
"228 -131 OFFCURVE",
"229 -147 OFFCURVE",
"232 -160 CURVE",
"312 -160 LINE",
"315 -147 OFFCURVE",
"316 -131 OFFCURVE",
"316 -120 CURVE SMOOTH",
"316 -109 OFFCURVE",
"315 -92 OFFCURVE",
"312 -80 CURVE",
"232 -80 LINE"
);
},
{
closed = 1;
nodes = (
"37 68 OFFCURVE",
"36 51 OFFCURVE",
"36 40 CURVE SMOOTH",
"36 29 OFFCURVE",
"37 13 OFFCURVE",
"40 0 CURVE",
"100 0 LINE",
"103 13 OFFCURVE",
"104 29 OFFCURVE",
"104 40 CURVE SMOOTH",
"104 51 OFFCURVE",
"103 68 OFFCURVE",
"100 80 CURVE",
"40 80 LINE"
);
},
{
closed = 1;
nodes = (
"37 148 OFFCURVE",
"36 131 OFFCURVE",
"36 120 CURVE SMOOTH",
"36 109 OFFCURVE",
"37 93 OFFCURVE",
"40 80 CURVE",
"100 80 LINE",
"103 93 OFFCURVE",
"104 109 OFFCURVE",
"104 120 CURVE SMOOTH",
"104 131 OFFCURVE",
"103 148 OFFCURVE",
"100 160 CURVE",
"40 160 LINE"
);
},
{
closed = 1;
nodes = (
"37 228 OFFCURVE",
"36 211 OFFCURVE",
"36 200 CURVE SMOOTH",
"36 189 OFFCURVE",
"37 173 OFFCURVE",
"40 160 CURVE",
"100 160 LINE",
"103 173 OFFCURVE",
"104 189 OFFCURVE",
"104 200 CURVE SMOOTH",
"104 211 OFFCURVE",
"103 228 OFFCURVE",
"100 240 CURVE",
"40 240 LINE"
);
},
{
closed = 1;
nodes = (
"112 388 OFFCURVE",
"111 371 OFFCURVE",
"111 360 CURVE SMOOTH",
"111 349 OFFCURVE",
"112 333 OFFCURVE",
"115 320 CURVE",
"155 320 LINE",
"158 333 OFFCURVE",
"159 349 OFFCURVE",
"159 360 CURVE SMOOTH",
"159 371 OFFCURVE",
"158 388 OFFCURVE",
"155 400 CURVE",
"115 400 LINE"
);
},
{
closed = 1;
nodes = (
"167 68 OFFCURVE",
"166 51 OFFCURVE",
"166 40 CURVE SMOOTH",
"166 29 OFFCURVE",
"167 13 OFFCURVE",
"170 0 CURVE",
"230 0 LINE",
"233 13 OFFCURVE",
"234 29 OFFCURVE",
"234 40 CURVE SMOOTH",
"234 51 OFFCURVE",
"233 68 OFFCURVE",
"230 80 CURVE",
"170 80 LINE"
);
},
{
closed = 1;
nodes = (
"167 148 OFFCURVE",
"166 131 OFFCURVE",
"166 120 CURVE SMOOTH",
"166 109 OFFCURVE",
"167 93 OFFCURVE",
"170 80 CURVE",
"230 80 LINE",
"233 93 OFFCURVE",
"234 109 OFFCURVE",
"234 120 CURVE SMOOTH",
"234 131 OFFCURVE",
"233 148 OFFCURVE",
"230 160 CURVE",
"170 160 LINE"
);
},
{
closed = 1;
nodes = (
"167 228 OFFCURVE",
"166 211 OFFCURVE",
"166 200 CURVE SMOOTH",
"166 189 OFFCURVE",
"167 173 OFFCURVE",
"170 160 CURVE",
"230 160 LINE",
"233 173 OFFCURVE",
"234 189 OFFCURVE",
"234 200 CURVE SMOOTH",
"234 211 OFFCURVE",
"233 228 OFFCURVE",
"230 240 CURVE",
"170 240 LINE"
);
},
{
closed = 1;
nodes = (
"147 308 OFFCURVE",
"146 291 OFFCURVE",
"146 280 CURVE SMOOTH",
"146 269 OFFCURVE",
"147 253 OFFCURVE",
"150 240 CURVE",
"230 240 LINE",
"233 253 OFFCURVE",
"234 269 OFFCURVE",
"234 280 CURVE SMOOTH",
"234 291 OFFCURVE",
"233 308 OFFCURVE",
"230 320 CURVE",
"150 320 LINE"
);
},
{
closed = 1;
nodes = (
"37 308 OFFCURVE",
"36 291 OFFCURVE",
"36 280 CURVE SMOOTH",
"36 269 OFFCURVE",
"37 253 OFFCURVE",
"40 240 CURVE",
"100 240 LINE",
"103 253 OFFCURVE",
"104 269 OFFCURVE",
"104 280 CURVE SMOOTH",
"104 291 OFFCURVE",
"103 308 OFFCURVE",
"100 320 CURVE",
"40 320 LINE"
);
},
{
closed = 1;
nodes = (
"177 388 OFFCURVE",
"176 371 OFFCURVE",
"176 360 CURVE SMOOTH",
"176 349 OFFCURVE",
"177 333 OFFCURVE",
"180 320 CURVE",
"230 320 LINE",
"233 333 OFFCURVE",
"234 349 OFFCURVE",
"234 360 CURVE SMOOTH",
"234 371 OFFCURVE",
"233 388 OFFCURVE",
"230 400 CURVE",
"180 400 LINE"
);
},
{
closed = 1;
nodes = (
"37 388 OFFCURVE",
"36 371 OFFCURVE",
"36 360 CURVE SMOOTH",
"36 349 OFFCURVE",
"37 333 OFFCURVE",
"40 320 CURVE",
"90 320 LINE",
"93 333 OFFCURVE",
"94 349 OFFCURVE",
"94 360 CURVE SMOOTH",
"94 371 OFFCURVE",
"93 388 OFFCURVE",
"90 400 CURVE",
"40 400 LINE"
);
},
{
closed = 1;
nodes = (
"167 468 OFFCURVE",
"166 451 OFFCURVE",
"166 440 CURVE SMOOTH",
"166 429 OFFCURVE",
"167 413 OFFCURVE",
"170 400 CURVE",
"230 400 LINE",
"233 413 OFFCURVE",
"234 429 OFFCURVE",
"234 440 CURVE SMOOTH",
"234 451 OFFCURVE",
"233 468 OFFCURVE",
"230 480 CURVE",
"170 480 LINE"
);
},
{
closed = 1;
nodes = (
"37 468 OFFCURVE",
"36 451 OFFCURVE",
"36 440 CURVE SMOOTH",
"36 429 OFFCURVE",
"37 413 OFFCURVE",
"40 400 CURVE",
"120 400 LINE",
"123 413 OFFCURVE",
"124 429 OFFCURVE",
"124 440 CURVE SMOOTH",
"124 451 OFFCURVE",
"123 468 OFFCURVE",
"120 480 CURVE",
"40 480 LINE"
);
},
{
closed = 1;
nodes = (
"167 548 OFFCURVE",
"166 531 OFFCURVE",
"166 520 CURVE SMOOTH",
"166 509 OFFCURVE",
"167 493 OFFCURVE",
"170 480 CURVE",
"230 480 LINE",
"233 493 OFFCURVE",
"234 509 OFFCURVE",
"234 520 CURVE SMOOTH",
"234 531 OFFCURVE",
"233 548 OFFCURVE",
"230 560 CURVE",
"170 560 LINE"
);
},
{
closed = 1;
nodes = (
"37 548 OFFCURVE",
"36 531 OFFCURVE",
"36 520 CURVE SMOOTH",
"36 509 OFFCURVE",
"37 493 OFFCURVE",
"40 480 CURVE",
"100 480 LINE",
"103 493 OFFCURVE",
"104 509 OFFCURVE",
"104 520 CURVE SMOOTH",
"104 531 OFFCURVE",
"103 548 OFFCURVE",
"100 560 CURVE",
"40 560 LINE"
);
}
);
width = 400;
}
);
unicode = 01CB;
},
{
color = 3;
glyphname = O;
lastChange = "2016-07-06 09:11:00 +0000";
layers = (
{
anchors = (
{
name = bottom;
position = "{200, 0}";
},
{
name = center;
position = "{200, 280}";
},
{
name = ogonek;
position = "{230, 10}";
},
{
name = top;
position = "{200, 560}";
},
{
name = topleft;
position = "{40, 560}";
},
{
name = topright;
position = "{280, 560}";
}
);
layerId = "DA6254B3-9514-4A47-8309-1A9185AEAC97";
paths = (
{
closed = 1;
nodes = (
"67 148 OFFCURVE",
"66 131 OFFCURVE",
"66 120 CURVE SMOOTH",
"66 109 OFFCURVE",
"67 93 OFFCURVE",
"70 80 CURVE",
"150 80 LINE",
"153 93 OFFCURVE",
"154 109 OFFCURVE",
"154 120 CURVE SMOOTH",
"154 131 OFFCURVE",
"153 148 OFFCURVE",
"150 160 CURVE",
"70 160 LINE"
);
},
{
closed = 1;
nodes = (
"37 228 OFFCURVE",
"36 211 OFFCURVE",
"36 200 CURVE SMOOTH",
"36 189 OFFCURVE",
"37 173 OFFCURVE",
"40 160 CURVE",
"120 160 LINE",
"123 173 OFFCURVE",
"124 189 OFFCURVE",
"124 200 CURVE SMOOTH",
"124 211 OFFCURVE",
"123 228 OFFCURVE",
"120 240 CURVE",
"40 240 LINE"
);
},
{
closed = 1;
nodes = (
"67 468 OFFCURVE",
"66 451 OFFCURVE",
"66 440 CURVE SMOOTH",
"66 429 OFFCURVE",
"67 413 OFFCURVE",
"70 400 CURVE",
"150 400 LINE",
"153 413 OFFCURVE",
"154 429 OFFCURVE",
"154 440 CURVE SMOOTH",
"154 451 OFFCURVE",
"153 468 OFFCURVE",
"150 480 CURVE",
"70 480 LINE"
);
},
{
closed = 1;
nodes = (
"247 148 OFFCURVE",
"246 131 OFFCURVE",
"246 120 CURVE SMOOTH",
"246 109 OFFCURVE",
"247 93 OFFCURVE",
"250 80 CURVE",
"330 80 LINE",
"333 93 OFFCURVE",
"334 109 OFFCURVE",
"334 120 CURVE SMOOTH",
"334 131 OFFCURVE",
"333 148 OFFCURVE",
"330 160 CURVE",
"250 160 LINE"
);
},
{
closed = 1;
nodes = (
"247 468 OFFCURVE",
"246 451 OFFCURVE",
"246 440 CURVE SMOOTH",
"246 429 OFFCURVE",
"247 413 OFFCURVE",
"250 400 CURVE",
"330 400 LINE",
"333 413 OFFCURVE",
"334 429 OFFCURVE",
"334 440 CURVE SMOOTH",
"334 451 OFFCURVE",
"333 468 OFFCURVE",
"330 480 CURVE",
"250 480 LINE"
);
},
{
closed = 1;
nodes = (
"117 68 OFFCURVE",
"116 51 OFFCURVE",
"116 40 CURVE SMOOTH",
"116 29 OFFCURVE",
"117 13 OFFCURVE",
"120 0 CURVE",
"280 0 LINE",
"283 13 OFFCURVE",
"284 29 OFFCURVE",
"284 40 CURVE SMOOTH",
"284 51 OFFCURVE",
"283 68 OFFCURVE",
"280 80 CURVE",
"120 80 LINE"
);
},
{
closed = 1;
nodes = (
"117 548 OFFCURVE",
"116 531 OFFCURVE",
"116 520 CURVE SMOOTH",
"116 509 OFFCURVE",
"117 493 OFFCURVE",
"120 480 CURVE",
"280 480 LINE",
"283 493 OFFCURVE",
"284 509 OFFCURVE",
"284 520 CURVE SMOOTH",
"284 531 OFFCURVE",
"283 548 OFFCURVE",
"280 560 CURVE",
"120 560 LINE"
);
},
{
closed = 1;
nodes = (
"277 228 OFFCURVE",
"276 211 OFFCURVE",
"276 200 CURVE SMOOTH",
"276 189 OFFCURVE",
"277 173 OFFCURVE",
"280 160 CURVE",
"360 160 LINE",
"363 173 OFFCURVE",
"364 189 OFFCURVE",
"364 200 CURVE SMOOTH",
"364 211 OFFCURVE",
"363 228 OFFCURVE",
"360 240 CURVE",
"280 240 LINE"
);
},
{
closed = 1;
nodes = (
"37 308 OFFCURVE",
"36 291 OFFCURVE",
"36 280 CURVE SMOOTH",
"36 269 OFFCURVE",
"37 253 OFFCURVE",
"40 240 CURVE",
"120 240 LINE",
"123 253 OFFCURVE",
"124 269 OFFCURVE",
"124 280 CURVE SMOOTH",
"124 291 OFFCURVE",
"123 308 OFFCURVE",
"120 320 CURVE",
"40 320 LINE"
);
},
{
closed = 1;
nodes = (
"277 308 OFFCURVE",
"276 291 OFFCURVE",
"276 280 CURVE SMOOTH",
"276 269 OFFCURVE",
"277 253 OFFCURVE",
"280 240 CURVE",
"360 240 LINE",
"363 253 OFFCURVE",
"364 269 OFFCURVE",
"364 280 CURVE SMOOTH",
"364 291 OFFCURVE",
"363 308 OFFCURVE",
"360 320 CURVE",
"280 320 LINE"
);
},
{
closed = 1;
nodes = (
"37 388 OFFCURVE",
"36 371 OFFCURVE",
"36 360 CURVE SMOOTH",
"36 349 OFFCURVE",
"37 333 OFFCURVE",
"40 320 CURVE",
"120 320 LINE",
"123 333 OFFCURVE",
"124 349 OFFCURVE",
"124 360 CURVE SMOOTH",
"124 371 OFFCURVE",
"123 388 OFFCURVE",
"120 400 CURVE",
"40 400 LINE"
);
},
{
closed = 1;
nodes = (
"277 388 OFFCURVE",
"276 371 OFFCURVE",
"276 360 CURVE SMOOTH",
"276 349 OFFCURVE",
"277 333 OFFCURVE",
"280 320 CURVE",
"360 320 LINE",
"363 333 OFFCURVE",
"364 349 OFFCURVE",
"364 360 CURVE SMOOTH",
"364 371 OFFCURVE",
"363 388 OFFCURVE",
"360 400 CURVE",
"280 400 LINE"
);
}
);
width = 400;
}
);
unicode = 004F;
},
{
color = 3;
glyphname = Oslash;
lastChange = "2016-07-06 09:11:00 +0000";
layers = (
{
anchors = (
{
name = bottom;
position = "{200, 0}";
},
{
name = top;
position = "{200, 560}";
}
);
layerId = "DA6254B3-9514-4A47-8309-1A9185AEAC97";
paths = (
{
closed = 1;
nodes = (
"37 308 OFFCURVE",
"36 291 OFFCURVE",
"36 280 CURVE SMOOTH",
"36 269 OFFCURVE",
"37 253 OFFCURVE",
"40 240 CURVE",
"120 240 LINE",
"123 253 OFFCURVE",
"124 269 OFFCURVE",
"124 280 CURVE SMOOTH",
"124 291 OFFCURVE",
"123 308 OFFCURVE",
"120 320 CURVE",
"40 320 LINE"
);
},
{
closed = 1;
nodes = (
"67 468 OFFCURVE",
"66 451 OFFCURVE",
"66 440 CURVE SMOOTH",
"66 429 OFFCURVE",
"67 413 OFFCURVE",
"70 400 CURVE",
"150 400 LINE",
"153 413 OFFCURVE",
"154 429 OFFCURVE",
"154 440 CURVE SMOOTH",
"154 451 OFFCURVE",
"153 468 OFFCURVE",
"150 480 CURVE",
"70 480 LINE"
);
},
{
closed = 1;
nodes = (
"247 148 OFFCURVE",
"246 131 OFFCURVE",
"246 120 CURVE SMOOTH",
"246 109 OFFCURVE",
"247 93 OFFCURVE",
"250 80 CURVE",
"330 80 LINE",
"333 93 OFFCURVE",
"334 109 OFFCURVE",
"334 120 CURVE SMOOTH",
"334 131 OFFCURVE",
"333 148 OFFCURVE",
"330 160 CURVE",
"250 160 LINE"
);
},
{
closed = 1;
nodes = (
"277 308 OFFCURVE",
"276 291 OFFCURVE",
"276 280 CURVE SMOOTH",
"276 269 OFFCURVE",
"277 253 OFFCURVE",
"280 240 CURVE",
"360 240 LINE",
"363 253 OFFCURVE",
"364 269 OFFCURVE",
"364 280 CURVE SMOOTH",
"364 291 OFFCURVE",
"363 308 OFFCURVE",
"360 320 CURVE",
"280 320 LINE"
);
},
{
closed = 1;
nodes = (
"67 68 OFFCURVE",
"66 51 OFFCURVE",
"66 40 CURVE SMOOTH",
"66 29 OFFCURVE",
"67 13 OFFCURVE",
"70 0 CURVE",
"200 0 LINE",
"203 13 OFFCURVE",
"204 29 OFFCURVE",
"204 40 CURVE SMOOTH",
"204 51 OFFCURVE",
"203 68 OFFCURVE",
"200 80 CURVE",
"70 80 LINE"
);
},
{
closed = 1;
nodes = (
"197 68 OFFCURVE",
"196 51 OFFCURVE",
"196 40 CURVE SMOOTH",
"196 29 OFFCURVE",
"197 13 OFFCURVE",
"200 0 CURVE",
"280 0 LINE",
"283 13 OFFCURVE",
"284 29 OFFCURVE",
"284 40 CURVE SMOOTH",
"284 51 OFFCURVE",
"283 68 OFFCURVE",
"280 80 CURVE",
"200 80 LINE"
);
},
{
closed = 1;
nodes = (
"197 548 OFFCURVE",
"196 531 OFFCURVE",
"196 520 CURVE SMOOTH",
"196 509 OFFCURVE",
"197 493 OFFCURVE",
"200 480 CURVE",
"330 480 LINE",
"333 493 OFFCURVE",
"334 509 OFFCURVE",
"334 520 CURVE SMOOTH",
"334 531 OFFCURVE",
"333 548 OFFCURVE",
"330 560 CURVE",
"200 560 LINE"
);
},
{
closed = 1;
nodes = (
"117 548 OFFCURVE",
"116 531 OFFCURVE",
"116 520 CURVE SMOOTH",
"116 509 OFFCURVE",
"117 493 OFFCURVE",
"120 480 CURVE",
"200 480 LINE",
"203 493 OFFCURVE",
"204 509 OFFCURVE",
"204 520 CURVE SMOOTH",
"204 531 OFFCURVE",
"203 548 OFFCURVE",
"200 560 CURVE",
"120 560 LINE"
);
},
{
closed = 1;
nodes = (
"37 388 OFFCURVE",
"36 371 OFFCURVE",
"36 360 CURVE SMOOTH",
"36 349 OFFCURVE",
"37 333 OFFCURVE",
"40 320 CURVE",
"120 320 LINE",
"123 333 OFFCURVE",
"124 349 OFFCURVE",
"124 360 CURVE SMOOTH",
"124 371 OFFCURVE",
"123 388 OFFCURVE",
"120 400 CURVE",
"40 400 LINE"
);
},
{
closed = 1;
nodes = (
"277 388 OFFCURVE",
"276 371 OFFCURVE",
"276 360 CURVE SMOOTH",
"276 349 OFFCURVE",
"277 333 OFFCURVE",
"280 320 CURVE",
"360 320 LINE",
"363 333 OFFCURVE",
"364 349 OFFCURVE",
"364 360 CURVE SMOOTH",
"364 371 OFFCURVE",
"363 388 OFFCURVE",
"360 400 CURVE",
"280 400 LINE"
);
},
{
closed = 1;
nodes = (
"37 228 OFFCURVE",
"36 211 OFFCURVE",
"36 200 CURVE SMOOTH",
"36 189 OFFCURVE",
"37 173 OFFCURVE",
"40 160 CURVE",
"120 160 LINE",
"123 173 OFFCURVE",
"124 189 OFFCURVE",
"124 200 CURVE SMOOTH",
"124 211 OFFCURVE",
"123 228 OFFCURVE",
"120 240 CURVE",
"40 240 LINE"
);
},
{
closed = 1;
nodes = (
"277 228 OFFCURVE",
"276 211 OFFCURVE",
"276 200 CURVE SMOOTH",
"276 189 OFFCURVE",
"277 173 OFFCURVE",
"280 160 CURVE",
"360 160 LINE",
"363 173 OFFCURVE",
"364 189 OFFCURVE",
"364 200 CURVE SMOOTH",
"364 211 OFFCURVE",
"363 228 OFFCURVE",
"360 240 CURVE",
"280 240 LINE"
);
},
{
closed = 1;
nodes = (
"152 228 OFFCURVE",
"151 211 OFFCURVE",
"151 200 CURVE SMOOTH",
"151 189 OFFCURVE",
"152 173 OFFCURVE",
"155 160 CURVE",
"205 160 LINE",
"208 173 OFFCURVE",
"209 189 OFFCURVE",
"209 200 CURVE SMOOTH",
"209 211 OFFCURVE",
"208 228 OFFCURVE",
"205 240 CURVE",
"155 240 LINE"
);
},
{
closed = 1;
nodes = (
"172 308 OFFCURVE",
"171 291 OFFCURVE",
"171 280 CURVE SMOOTH",
"171 269 OFFCURVE",
"172 253 OFFCURVE",
"175 240 CURVE",
"225 240 LINE",
"228 253 OFFCURVE",
"229 269 OFFCURVE",
"229 280 CURVE SMOOTH",
"229 291 OFFCURVE",
"228 308 OFFCURVE",
"225 320 CURVE",
"175 320 LINE"
);
},
{
closed = 1;
nodes = (
"192 388 OFFCURVE",
"191 371 OFFCURVE",
"191 360 CURVE SMOOTH",
"191 349 OFFCURVE",
"192 333 OFFCURVE",
"195 320 CURVE",
"245 320 LINE",
"248 333 OFFCURVE",
"249 349 OFFCURVE",
"249 360 CURVE SMOOTH",
"249 371 OFFCURVE",
"248 388 OFFCURVE",
"245 400 CURVE",
"195 400 LINE"
);
},
{
closed = 1;
nodes = (
"37 -12 OFFCURVE",
"36 -29 OFFCURVE",
"36 -40 CURVE SMOOTH",
"36 -51 OFFCURVE",
"37 -67 OFFCURVE",
"40 -80 CURVE",
"120 -80 LINE",
"123 -67 OFFCURVE",
"124 -51 OFFCURVE",
"124 -40 CURVE SMOOTH",
"124 -29 OFFCURVE",
"123 -12 OFFCURVE",
"120 0 CURVE",
"40 0 LINE"
);
},
{
closed = 1;
nodes = (
"277 628 OFFCURVE",
"276 611 OFFCURVE",
"276 600 CURVE SMOOTH",
"276 589 OFFCURVE",
"277 573 OFFCURVE",
"280 560 CURVE",
"360 560 LINE",
"363 573 OFFCURVE",
"364 589 OFFCURVE",
"364 600 CURVE SMOOTH",
"364 611 OFFCURVE",
"363 628 OFFCURVE",
"360 640 CURVE",
"280 640 LINE"
);
},
{
closed = 1;
nodes = (
"37 148 OFFCURVE",
"36 131 OFFCURVE",
"36 120 CURVE SMOOTH",
"36 109 OFFCURVE",
"37 93 OFFCURVE",
"40 80 CURVE",
"170 80 LINE",
"173 93 OFFCURVE",
"174 109 OFFCURVE",
"174 120 CURVE SMOOTH",
"174 131 OFFCURVE",
"173 148 OFFCURVE",
"170 160 CURVE",
"40 160 LINE"
);
},
{
closed = 1;
nodes = (
"227 468 OFFCURVE",
"226 451 OFFCURVE",
"226 440 CURVE SMOOTH",
"226 429 OFFCURVE",
"227 413 OFFCURVE",
"230 400 CURVE",
"360 400 LINE",
"363 413 OFFCURVE",
"364 429 OFFCURVE",
"364 440 CURVE SMOOTH",
"364 451 OFFCURVE",
"363 468 OFFCURVE",
"360 480 CURVE",
"230 480 LINE"
);
}
);
width = 400;
}
);
unicode = 00D8;
},
{
color = 3;
glyphname = OE;
lastChange = "2016-07-06 09:11:00 +0000";
layers = (
{
anchors = (
{
name = bottom;
position = "{200, 0}";
},
{
name = top;
position = "{200, 560}";
}
);
layerId = "DA6254B3-9514-4A47-8309-1A9185AEAC97";
paths = (
{
closed = 1;
nodes = (
"67 148 OFFCURVE",
"66 131 OFFCURVE",
"66 120 CURVE SMOOTH",
"66 109 OFFCURVE",
"67 93 OFFCURVE",
"70 80 CURVE",
"150 80 LINE",
"153 93 OFFCURVE",
"154 109 OFFCURVE",
"154 120 CURVE SMOOTH",
"154 131 OFFCURVE",
"153 148 OFFCURVE",
"150 160 CURVE",
"70 160 LINE"
);
},
{
closed = 1;
nodes = (
"37 228 OFFCURVE",
"36 211 OFFCURVE",
"36 200 CURVE SMOOTH",
"36 189 OFFCURVE",
"37 173 OFFCURVE",
"40 160 CURVE",
"120 160 LINE",
"123 173 OFFCURVE",
"124 189 OFFCURVE",
"124 200 CURVE SMOOTH",
"124 211 OFFCURVE",
"123 228 OFFCURVE",
"120 240 CURVE",
"40 240 LINE"
);
},
{
closed = 1;
nodes = (
"67 468 OFFCURVE",
"66 451 OFFCURVE",
"66 440 CURVE SMOOTH",
"66 429 OFFCURVE",
"67 413 OFFCURVE",
"70 400 CURVE",
"150 400 LINE",
"153 413 OFFCURVE",
"154 429 OFFCURVE",
"154 440 CURVE SMOOTH",
"154 451 OFFCURVE",
"153 468 OFFCURVE",
"150 480 CURVE",
"70 480 LINE"
);
},
{
closed = 1;
nodes = (
"117 68 OFFCURVE",
"116 51 OFFCURVE",
"116 40 CURVE SMOOTH",
"116 29 OFFCURVE",
"117 13 OFFCURVE",
"120 0 CURVE",
"200 0 LINE",
"203 13 OFFCURVE",
"204 29 OFFCURVE",
"204 40 CURVE SMOOTH",
"204 51 OFFCURVE",
"203 68 OFFCURVE",
"200 80 CURVE",
"120 80 LINE"
);
},
{
closed = 1;
nodes = (
"117 548 OFFCURVE",
"116 531 OFFCURVE",
"116 520 CURVE SMOOTH",
"116 509 OFFCURVE",
"117 493 OFFCURVE",
"120 480 CURVE",
"200 480 LINE",
"203 493 OFFCURVE",
"204 509 OFFCURVE",
"204 520 CURVE SMOOTH",
"204 531 OFFCURVE",
"203 548 OFFCURVE",
"200 560 CURVE",
"120 560 LINE"
);
},
{
closed = 1;
nodes = (
"37 308 OFFCURVE",
"36 291 OFFCURVE",
"36 280 CURVE SMOOTH",
"36 269 OFFCURVE",
"37 253 OFFCURVE",
"40 240 CURVE",
"120 240 LINE",
"123 253 OFFCURVE",
"124 269 OFFCURVE",
"124 280 CURVE SMOOTH",
"124 291 OFFCURVE",
"123 308 OFFCURVE",
"120 320 CURVE",
"40 320 LINE"
);
},
{
closed = 1;
nodes = (
"37 388 OFFCURVE",
"36 371 OFFCURVE",
"36 360 CURVE SMOOTH",
"36 349 OFFCURVE",
"37 333 OFFCURVE",
"40 320 CURVE",
"120 320 LINE",
"123 333 OFFCURVE",
"124 349 OFFCURVE",
"124 360 CURVE SMOOTH",
"124 371 OFFCURVE",
"123 388 OFFCURVE",
"120 400 CURVE",
"40 400 LINE"
);
},
{
closed = 1;
nodes = (
"197 68 OFFCURVE",
"196 51 OFFCURVE",
"196 40 CURVE SMOOTH",
"196 29 OFFCURVE",
"197 13 OFFCURVE",
"200 0 CURVE",
"360 0 LINE",
"363 13 OFFCURVE",
"364 29 OFFCURVE",
"364 40 CURVE SMOOTH",
"364 51 OFFCURVE",
"363 68 OFFCURVE",
"360 80 CURVE",
"200 80 LINE"
);
},
{
closed = 1;
nodes = (
"197 148 OFFCURVE",
"196 131 OFFCURVE",
"196 120 CURVE SMOOTH",
"196 109 OFFCURVE",
"197 93 OFFCURVE",
"200 80 CURVE",
"280 80 LINE",
"283 93 OFFCURVE",
"284 109 OFFCURVE",
"284 120 CURVE SMOOTH",
"284 131 OFFCURVE",
"283 148 OFFCURVE",
"280 160 CURVE",
"200 160 LINE"
);
},
{
closed = 1;
nodes = (
"197 228 OFFCURVE",
"196 211 OFFCURVE",
"196 200 CURVE SMOOTH",
"196 189 OFFCURVE",
"197 173 OFFCURVE",
"200 160 CURVE",
"280 160 LINE",
"283 173 OFFCURVE",
"284 189 OFFCURVE",
"284 200 CURVE SMOOTH",
"284 211 OFFCURVE",
"283 228 OFFCURVE",
"280 240 CURVE",
"200 240 LINE"
);
},
{
closed = 1;
nodes = (
"197 308 OFFCURVE",
"196 291 OFFCURVE",
"196 280 CURVE SMOOTH",
"196 269 OFFCURVE",
"197 253 OFFCURVE",
"200 240 CURVE",
"360 240 LINE",
"363 253 OFFCURVE",
"364 269 OFFCURVE",
"364 280 CURVE SMOOTH",
"364 291 OFFCURVE",
"363 308 OFFCURVE",
"360 320 CURVE",
"200 320 LINE"
);
},
{
closed = 1;
nodes = (
"197 388 OFFCURVE",
"196 371 OFFCURVE",
"196 360 CURVE SMOOTH",
"196 349 OFFCURVE",
"197 333 OFFCURVE",
"200 320 CURVE",
"280 320 LINE",
"283 333 OFFCURVE",
"284 349 OFFCURVE",
"284 360 CURVE SMOOTH",
"284 371 OFFCURVE",
"283 388 OFFCURVE",
"280 400 CURVE",
"200 400 LINE"
);
},
{
closed = 1;
nodes = (
"197 468 OFFCURVE",
"196 451 OFFCURVE",
"196 440 CURVE SMOOTH",
"196 429 OFFCURVE",
"197 413 OFFCURVE",
"200 400 CURVE",
"280 400 LINE",
"283 413 OFFCURVE",
"284 429 OFFCURVE",
"284 440 CURVE SMOOTH",
"284 451 OFFCURVE",
"283 468 OFFCURVE",
"280 480 CURVE",
"200 480 LINE"
);
},
{
closed = 1;
nodes = (
"197 548 OFFCURVE",
"196 531 OFFCURVE",
"196 520 CURVE SMOOTH",
"196 509 OFFCURVE",
"197 493 OFFCURVE",
"200 480 CURVE",
"360 480 LINE",
"363 493 OFFCURVE",
"364 509 OFFCURVE",
"364 520 CURVE SMOOTH",
"364 531 OFFCURVE",
"363 548 OFFCURVE",
"360 560 CURVE",
"200 560 LINE"
);
}
);
width = 400;
}
);
unicode = 0152;
},
{
color = 3;
glyphname = P;
lastChange = "2016-07-06 09:11:00 +0000";
layers = (
{
anchors = (
{
name = bottom;
position = "{200, 0}";
},
{
name = top;
position = "{200, 560}";
}
);
layerId = "DA6254B3-9514-4A47-8309-1A9185AEAC97";
paths = (
{
closed = 1;
nodes = (
"37 228 OFFCURVE",
"36 211 OFFCURVE",
"36 200 CURVE SMOOTH",
"36 189 OFFCURVE",
"37 173 OFFCURVE",
"40 160 CURVE",
"120 160 LINE",
"123 173 OFFCURVE",
"124 189 OFFCURVE",
"124 200 CURVE SMOOTH",
"124 211 OFFCURVE",
"123 228 OFFCURVE",
"120 240 CURVE",
"40 240 LINE"
);
},
{
closed = 1;
nodes = (
"37 388 OFFCURVE",
"36 371 OFFCURVE",
"36 360 CURVE SMOOTH",
"36 349 OFFCURVE",
"37 333 OFFCURVE",
"40 320 CURVE",
"120 320 LINE",
"123 333 OFFCURVE",
"124 349 OFFCURVE",
"124 360 CURVE SMOOTH",
"124 371 OFFCURVE",
"123 388 OFFCURVE",
"120 400 CURVE",
"40 400 LINE"
);
},
{
closed = 1;
nodes = (
"37 468 OFFCURVE",
"36 451 OFFCURVE",
"36 440 CURVE SMOOTH",
"36 429 OFFCURVE",
"37 413 OFFCURVE",
"40 400 CURVE",
"120 400 LINE",
"123 413 OFFCURVE",
"124 429 OFFCURVE",
"124 440 CURVE SMOOTH",
"124 451 OFFCURVE",
"123 468 OFFCURVE",
"120 480 CURVE",
"40 480 LINE"
);
},
{
closed = 1;
nodes = (
"197 308 OFFCURVE",
"196 291 OFFCURVE",
"196 280 CURVE SMOOTH",
"196 269 OFFCURVE",
"197 253 OFFCURVE",
"200 240 CURVE",
"320 240 LINE",
"323 253 OFFCURVE",
"324 269 OFFCURVE",
"324 280 CURVE SMOOTH",
"324 291 OFFCURVE",
"323 308 OFFCURVE",
"320 320 CURVE",
"200 320 LINE"
);
},
{
closed = 1;
nodes = (
"197 548 OFFCURVE",
"196 531 OFFCURVE",
"196 520 CURVE SMOOTH",
"196 509 OFFCURVE",
"197 493 OFFCURVE",
"200 480 CURVE",
"320 480 LINE",
"323 493 OFFCURVE",
"324 509 OFFCURVE",
"324 520 CURVE SMOOTH",
"324 531 OFFCURVE",
"323 548 OFFCURVE",
"320 560 CURVE",
"200 560 LINE"
);
},
{
closed = 1;
nodes = (
"277 388 OFFCURVE",
"276 371 OFFCURVE",
"276 360 CURVE SMOOTH",
"276 349 OFFCURVE",
"277 333 OFFCURVE",
"280 320 CURVE",
"360 320 LINE",
"363 333 OFFCURVE",
"364 349 OFFCURVE",
"364 360 CURVE SMOOTH",
"364 371 OFFCURVE",
"363 388 OFFCURVE",
"360 400 CURVE",
"280 400 LINE"
);
},
{
closed = 1;
nodes = (
"277 468 OFFCURVE",
"276 451 OFFCURVE",
"276 440 CURVE SMOOTH",
"276 429 OFFCURVE",
"277 413 OFFCURVE",
"280 400 CURVE",
"360 400 LINE",
"363 413 OFFCURVE",
"364 429 OFFCURVE",
"364 440 CURVE SMOOTH",
"364 451 OFFCURVE",
"363 468 OFFCURVE",
"360 480 CURVE",
"280 480 LINE"
);
},
{
closed = 1;
nodes = (
"37 68 OFFCURVE",
"36 51 OFFCURVE",
"36 40 CURVE SMOOTH",
"36 29 OFFCURVE",
"37 13 OFFCURVE",
"40 0 CURVE",
"120 0 LINE",
"123 13 OFFCURVE",
"124 29 OFFCURVE",
"124 40 CURVE SMOOTH",
"124 51 OFFCURVE",
"123 68 OFFCURVE",
"120 80 CURVE",
"40 80 LINE"
);
},
{
closed = 1;
nodes = (
"37 148 OFFCURVE",
"36 131 OFFCURVE",
"36 120 CURVE SMOOTH",
"36 109 OFFCURVE",
"37 93 OFFCURVE",
"40 80 CURVE",
"120 80 LINE",
"123 93 OFFCURVE",
"124 109 OFFCURVE",
"124 120 CURVE SMOOTH",
"124 131 OFFCURVE",
"123 148 OFFCURVE",
"120 160 CURVE",
"40 160 LINE"
);
},
{
closed = 1;
nodes = (
"37 308 OFFCURVE",
"36 291 OFFCURVE",
"36 280 CURVE SMOOTH",
"36 269 OFFCURVE",
"37 253 OFFCURVE",
"40 240 CURVE",
"200 240 LINE",
"203 253 OFFCURVE",
"204 269 OFFCURVE",
"204 280 CURVE SMOOTH",
"204 291 OFFCURVE",
"203 308 OFFCURVE",
"200 320 CURVE",
"40 320 LINE"
);
},
{
closed = 1;
nodes = (
"37 548 OFFCURVE",
"36 531 OFFCURVE",
"36 520 CURVE SMOOTH",
"36 509 OFFCURVE",
"37 493 OFFCURVE",
"40 480 CURVE",
"200 480 LINE",
"203 493 OFFCURVE",
"204 509 OFFCURVE",
"204 520 CURVE SMOOTH",
"204 531 OFFCURVE",
"203 548 OFFCURVE",
"200 560 CURVE",
"40 560 LINE"
);
}
);
width = 400;
}
);
unicode = 0050;
},
{
color = 3;
glyphname = Thorn;
lastChange = "2016-07-06 09:11:00 +0000";
layers = (
{
layerId = "DA6254B3-9514-4A47-8309-1A9185AEAC97";
paths = (
{
closed = 1;
nodes = (
"247 228 OFFCURVE",
"246 211 OFFCURVE",
"246 200 CURVE SMOOTH",
"246 189 OFFCURVE",
"247 173 OFFCURVE",
"250 160 CURVE",
"330 160 LINE",
"333 173 OFFCURVE",
"334 189 OFFCURVE",
"334 200 CURVE SMOOTH",
"334 211 OFFCURVE",
"333 228 OFFCURVE",
"330 240 CURVE",
"250 240 LINE"
);
},
{
closed = 1;
nodes = (
"247 388 OFFCURVE",
"246 371 OFFCURVE",
"246 360 CURVE SMOOTH",
"246 349 OFFCURVE",
"247 333 OFFCURVE",
"250 320 CURVE",
"330 320 LINE",
"333 333 OFFCURVE",
"334 349 OFFCURVE",
"334 360 CURVE SMOOTH",
"334 371 OFFCURVE",
"333 388 OFFCURVE",
"330 400 CURVE",
"250 400 LINE"
);
},
{
closed = 1;
nodes = (
"157 468 OFFCURVE",
"156 451 OFFCURVE",
"156 440 CURVE SMOOTH",
"156 429 OFFCURVE",
"157 413 OFFCURVE",
"160 400 CURVE",
"280 400 LINE",
"283 413 OFFCURVE",
"284 429 OFFCURVE",
"284 440 CURVE SMOOTH",
"284 451 OFFCURVE",
"283 468 OFFCURVE",
"280 480 CURVE",
"160 480 LINE"
);
},
{
closed = 1;
nodes = (
"277 308 OFFCURVE",
"276 291 OFFCURVE",
"276 280 CURVE SMOOTH",
"276 269 OFFCURVE",
"277 253 OFFCURVE",
"280 240 CURVE",
"360 240 LINE",
"363 253 OFFCURVE",
"364 269 OFFCURVE",
"364 280 CURVE SMOOTH",
"364 291 OFFCURVE",
"363 308 OFFCURVE",
"360 320 CURVE",
"280 320 LINE"
);
},
{
closed = 1;
nodes = (
"77 148 OFFCURVE",
"76 131 OFFCURVE",
"76 120 CURVE SMOOTH",
"76 109 OFFCURVE",
"77 93 OFFCURVE",
"80 80 CURVE",
"160 80 LINE",
"163 93 OFFCURVE",
"164 109 OFFCURVE",
"164 120 CURVE SMOOTH",
"164 131 OFFCURVE",
"163 148 OFFCURVE",
"160 160 CURVE",
"80 160 LINE"
);
},
{
closed = 1;
nodes = (
"77 228 OFFCURVE",
"76 211 OFFCURVE",
"76 200 CURVE SMOOTH",
"76 189 OFFCURVE",
"77 173 OFFCURVE",
"80 160 CURVE",
"160 160 LINE",
"163 173 OFFCURVE",
"164 189 OFFCURVE",
"164 200 CURVE SMOOTH",
"164 211 OFFCURVE",
"163 228 OFFCURVE",
"160 240 CURVE",
"80 240 LINE"
);
},
{
closed = 1;
nodes = (
"77 388 OFFCURVE",
"76 371 OFFCURVE",
"76 360 CURVE SMOOTH",
"76 349 OFFCURVE",
"77 333 OFFCURVE",
"80 320 CURVE",
"160 320 LINE",
"163 333 OFFCURVE",
"164 349 OFFCURVE",
"164 360 CURVE SMOOTH",
"164 371 OFFCURVE",
"163 388 OFFCURVE",
"160 400 CURVE",
"80 400 LINE"
);
},
{
closed = 1;
nodes = (
"77 468 OFFCURVE",
"76 451 OFFCURVE",
"76 440 CURVE SMOOTH",
"76 429 OFFCURVE",
"77 413 OFFCURVE",
"80 400 CURVE",
"160 400 LINE",
"163 413 OFFCURVE",
"164 429 OFFCURVE",
"164 440 CURVE SMOOTH",
"164 451 OFFCURVE",
"163 468 OFFCURVE",
"160 480 CURVE",
"80 480 LINE"
);
},
{
closed = 1;
nodes = (
"37 548 OFFCURVE",
"36 531 OFFCURVE",
"36 520 CURVE SMOOTH",
"36 509 OFFCURVE",
"37 493 OFFCURVE",
"40 480 CURVE",
"160 480 LINE",
"163 493 OFFCURVE",
"164 509 OFFCURVE",
"164 520 CURVE SMOOTH",
"164 531 OFFCURVE",
"163 548 OFFCURVE",
"160 560 CURVE",
"40 560 LINE"
);
},
{
closed = 1;
nodes = (
"77 308 OFFCURVE",
"76 291 OFFCURVE",
"76 280 CURVE SMOOTH",
"76 269 OFFCURVE",
"77 253 OFFCURVE",
"80 240 CURVE",
"160 240 LINE",
"163 253 OFFCURVE",
"164 269 OFFCURVE",
"164 280 CURVE SMOOTH",
"164 291 OFFCURVE",
"163 308 OFFCURVE",
"160 320 CURVE",
"80 320 LINE"
);
},
{
closed = 1;
nodes = (
"157 148 OFFCURVE",
"156 131 OFFCURVE",
"156 120 CURVE SMOOTH",
"156 109 OFFCURVE",
"157 93 OFFCURVE",
"160 80 CURVE",
"280 80 LINE",
"283 93 OFFCURVE",
"284 109 OFFCURVE",
"284 120 CURVE SMOOTH",
"284 131 OFFCURVE",
"283 148 OFFCURVE",
"280 160 CURVE",
"160 160 LINE"
);
},
{
closed = 1;
nodes = (
"37 68 OFFCURVE",
"36 51 OFFCURVE",
"36 40 CURVE SMOOTH",
"36 29 OFFCURVE",
"37 13 OFFCURVE",
"40 0 CURVE",
"160 0 LINE",
"163 13 OFFCURVE",
"164 29 OFFCURVE",
"164 40 CURVE SMOOTH",
"164 51 OFFCURVE",
"163 68 OFFCURVE",
"160 80 CURVE",
"40 80 LINE"
);
}
);
width = 400;
}
);
unicode = 00DE;
},
{
color = 3;
glyphname = Q;
lastChange = "2016-07-06 09:11:00 +0000";
layers = (
{
anchors = (
{
name = bottom;
position = "{200, 0}";
},
{
name = top;
position = "{200, 560}";
}
);
background = {
components = (
{
name = _part.pixel;
transform = "{1, 0, 0, 1, 30, 80}";
},
{
name = _part.pixel;
transform = "{1, 0, 0, 1, 0, 160}";
},
{
name = _part.pixel;
transform = "{1, 0, 0, 1, 30, 400}";
},
{
name = _part.pixeldbl;
transform = "{1, 0, 0, 1, 160, 80}";
piece = {
"Pixel width" = 120;
};
},
{
name = _part.pixel;
transform = "{1, 0, 0, 1, 210, 400}";
},
{
name = _part.pixeldbl;
transform = "{1, 0, 0, 1, 80, 0}";
piece = {
"Pixel width" = 159.748;
};
},
{
name = _part.pixeldbl;
transform = "{1, 0, 0, 1, 80, 480}";
piece = {
"Pixel width" = 159.748;
};
},
{
name = _part.pixel;
transform = "{1, 0, 0, 1, 240, 160}";
},
{
name = _part.pixel;
transform = "{1, 0, 0, 1, 0, 240}";
},
{
name = _part.pixel;
transform = "{1, 0, 0, 1, 240, 240}";
},
{
name = _part.pixel;
transform = "{1, 0, 0, 1, 0, 320}";
},
{
name = _part.pixel;
transform = "{1, 0, 0, 1, 240, 320}";
},
{
name = _part.pixel;
transform = "{1, 0, 0, 1, 140, 160}";
piece = {
Pixelwidth = 60;
};
},
{
name = _part.pixel;
transform = "{1, 0, 0, 1, 210, -80}";
piece = {
Pixelwidth = 60;
};
},
{
name = _part.pixel;
transform = "{1, 0, 0, 1, 240, -160}";
piece = {
Pixelwidth = 60;
};
}
);
};
layerId = "DA6254B3-9514-4A47-8309-1A9185AEAC97";
paths = (
{
closed = 1;
nodes = (
"67 148 OFFCURVE",
"66 131 OFFCURVE",
"66 120 CURVE SMOOTH",
"66 109 OFFCURVE",
"67 93 OFFCURVE",
"70 80 CURVE",
"150 80 LINE",
"153 93 OFFCURVE",
"154 109 OFFCURVE",
"154 120 CURVE SMOOTH",
"154 131 OFFCURVE",
"153 148 OFFCURVE",
"150 160 CURVE",
"70 160 LINE"
);
},
{
closed = 1;
nodes = (
"37 228 OFFCURVE",
"36 211 OFFCURVE",
"36 200 CURVE SMOOTH",
"36 189 OFFCURVE",
"37 173 OFFCURVE",
"40 160 CURVE",
"120 160 LINE",
"123 173 OFFCURVE",
"124 189 OFFCURVE",
"124 200 CURVE SMOOTH",
"124 211 OFFCURVE",
"123 228 OFFCURVE",
"120 240 CURVE",
"40 240 LINE"
);
},
{
closed = 1;
nodes = (
"67 468 OFFCURVE",
"66 451 OFFCURVE",
"66 440 CURVE SMOOTH",
"66 429 OFFCURVE",
"67 413 OFFCURVE",
"70 400 CURVE",
"150 400 LINE",
"153 413 OFFCURVE",
"154 429 OFFCURVE",
"154 440 CURVE SMOOTH",
"154 451 OFFCURVE",
"153 468 OFFCURVE",
"150 480 CURVE",
"70 480 LINE"
);
},
{
closed = 1;
nodes = (
"247 468 OFFCURVE",
"246 451 OFFCURVE",
"246 440 CURVE SMOOTH",
"246 429 OFFCURVE",
"247 413 OFFCURVE",
"250 400 CURVE",
"330 400 LINE",
"333 413 OFFCURVE",
"334 429 OFFCURVE",
"334 440 CURVE SMOOTH",
"334 451 OFFCURVE",
"333 468 OFFCURVE",
"330 480 CURVE",
"250 480 LINE"
);
},
{
closed = 1;
nodes = (
"117 68 OFFCURVE",
"116 51 OFFCURVE",
"116 40 CURVE SMOOTH",
"116 29 OFFCURVE",
"117 13 OFFCURVE",
"120 0 CURVE",
"280 0 LINE",
"283 13 OFFCURVE",
"284 29 OFFCURVE",
"284 40 CURVE SMOOTH",
"284 51 OFFCURVE",
"283 68 OFFCURVE",
"280 80 CURVE",
"120 80 LINE"
);
},
{
closed = 1;
nodes = (
"117 548 OFFCURVE",
"116 531 OFFCURVE",
"116 520 CURVE SMOOTH",
"116 509 OFFCURVE",
"117 493 OFFCURVE",
"120 480 CURVE",
"280 480 LINE",
"283 493 OFFCURVE",
"284 509 OFFCURVE",
"284 520 CURVE SMOOTH",
"284 531 OFFCURVE",
"283 548 OFFCURVE",
"280 560 CURVE",
"120 560 LINE"
);
},
{
closed = 1;
nodes = (
"277 228 OFFCURVE",
"276 211 OFFCURVE",
"276 200 CURVE SMOOTH",
"276 189 OFFCURVE",
"277 173 OFFCURVE",
"280 160 CURVE",
"360 160 LINE",
"363 173 OFFCURVE",
"364 189 OFFCURVE",
"364 200 CURVE SMOOTH",
"364 211 OFFCURVE",
"363 228 OFFCURVE",
"360 240 CURVE",
"280 240 LINE"
);
},
{
closed = 1;
nodes = (
"37 308 OFFCURVE",
"36 291 OFFCURVE",
"36 280 CURVE SMOOTH",
"36 269 OFFCURVE",
"37 253 OFFCURVE",
"40 240 CURVE",
"120 240 LINE",
"123 253 OFFCURVE",
"124 269 OFFCURVE",
"124 280 CURVE SMOOTH",
"124 291 OFFCURVE",
"123 308 OFFCURVE",
"120 320 CURVE",
"40 320 LINE"
);
},
{
closed = 1;
nodes = (
"277 308 OFFCURVE",
"276 291 OFFCURVE",
"276 280 CURVE SMOOTH",
"276 269 OFFCURVE",
"277 253 OFFCURVE",
"280 240 CURVE",
"360 240 LINE",
"363 253 OFFCURVE",
"364 269 OFFCURVE",
"364 280 CURVE SMOOTH",
"364 291 OFFCURVE",
"363 308 OFFCURVE",
"360 320 CURVE",
"280 320 LINE"
);
},
{
closed = 1;
nodes = (
"37 388 OFFCURVE",
"36 371 OFFCURVE",
"36 360 CURVE SMOOTH",
"36 349 OFFCURVE",
"37 333 OFFCURVE",
"40 320 CURVE",
"120 320 LINE",
"123 333 OFFCURVE",
"124 349 OFFCURVE",
"124 360 CURVE SMOOTH",
"124 371 OFFCURVE",
"123 388 OFFCURVE",
"120 400 CURVE",
"40 400 LINE"
);
},
{
closed = 1;
nodes = (
"277 388 OFFCURVE",
"276 371 OFFCURVE",
"276 360 CURVE SMOOTH",
"276 349 OFFCURVE",
"277 333 OFFCURVE",
"280 320 CURVE",
"360 320 LINE",
"363 333 OFFCURVE",
"364 349 OFFCURVE",
"364 360 CURVE SMOOTH",
"364 371 OFFCURVE",
"363 388 OFFCURVE",
"360 400 CURVE",
"280 400 LINE"
);
},
{
closed = 1;
nodes = (
"247 148 OFFCURVE",
"246 131 OFFCURVE",
"246 120 CURVE SMOOTH",
"246 109 OFFCURVE",
"247 93 OFFCURVE",
"250 80 CURVE",
"330 80 LINE",
"333 93 OFFCURVE",
"334 109 OFFCURVE",
"334 120 CURVE SMOOTH",
"334 131 OFFCURVE",
"333 148 OFFCURVE",
"330 160 CURVE",
"250 160 LINE"
);
},
{
closed = 1;
nodes = (
"237 -12 OFFCURVE",
"236 -29 OFFCURVE",
"236 -40 CURVE SMOOTH",
"236 -51 OFFCURVE",
"237 -67 OFFCURVE",
"240 -80 CURVE",
"320 -80 LINE",
"323 -67 OFFCURVE",
"324 -51 OFFCURVE",
"324 -40 CURVE SMOOTH",
"324 -29 OFFCURVE",
"323 -12 OFFCURVE",
"320 0 CURVE",
"240 0 LINE"
);
},
{
closed = 1;
nodes = (
"277 -92 OFFCURVE",
"276 -109 OFFCURVE",
"276 -120 CURVE SMOOTH",
"276 -131 OFFCURVE",
"277 -147 OFFCURVE",
"280 -160 CURVE",
"360 -160 LINE",
"363 -147 OFFCURVE",
"364 -131 OFFCURVE",
"364 -120 CURVE SMOOTH",
"364 -109 OFFCURVE",
"363 -92 OFFCURVE",
"360 -80 CURVE",
"280 -80 LINE"
);
}
);
width = 400;
}
);
unicode = 0051;
},
{
color = 3;
glyphname = R;
lastChange = "2016-07-06 09:11:00 +0000";
layers = (
{
anchors = (
{
name = bottom;
position = "{200, 0}";
},
{
name = top;
position = "{200, 560}";
}
);
layerId = "DA6254B3-9514-4A47-8309-1A9185AEAC97";
paths = (
{
closed = 1;
nodes = (
"37 148 OFFCURVE",
"36 131 OFFCURVE",
"36 120 CURVE SMOOTH",
"36 109 OFFCURVE",
"37 93 OFFCURVE",
"40 80 CURVE",
"120 80 LINE",
"123 93 OFFCURVE",
"124 109 OFFCURVE",
"124 120 CURVE SMOOTH",
"124 131 OFFCURVE",
"123 148 OFFCURVE",
"120 160 CURVE",
"40 160 LINE"
);
},
{
closed = 1;
nodes = (
"37 228 OFFCURVE",
"36 211 OFFCURVE",
"36 200 CURVE SMOOTH",
"36 189 OFFCURVE",
"37 173 OFFCURVE",
"40 160 CURVE",
"120 160 LINE",
"123 173 OFFCURVE",
"124 189 OFFCURVE",
"124 200 CURVE SMOOTH",
"124 211 OFFCURVE",
"123 228 OFFCURVE",
"120 240 CURVE",
"40 240 LINE"
);
},
{
closed = 1;
nodes = (
"37 308 OFFCURVE",
"36 291 OFFCURVE",
"36 280 CURVE SMOOTH",
"36 269 OFFCURVE",
"37 253 OFFCURVE",
"40 240 CURVE",
"200 240 LINE",
"203 253 OFFCURVE",
"204 269 OFFCURVE",
"204 280 CURVE SMOOTH",
"204 291 OFFCURVE",
"203 308 OFFCURVE",
"200 320 CURVE",
"40 320 LINE"
);
},
{
closed = 1;
nodes = (
"37 388 OFFCURVE",
"36 371 OFFCURVE",
"36 360 CURVE SMOOTH",
"36 349 OFFCURVE",
"37 333 OFFCURVE",
"40 320 CURVE",
"120 320 LINE",
"123 333 OFFCURVE",
"124 349 OFFCURVE",
"124 360 CURVE SMOOTH",
"124 371 OFFCURVE",
"123 388 OFFCURVE",
"120 400 CURVE",
"40 400 LINE"
);
},
{
closed = 1;
nodes = (
"37 468 OFFCURVE",
"36 451 OFFCURVE",
"36 440 CURVE SMOOTH",
"36 429 OFFCURVE",
"37 413 OFFCURVE",
"40 400 CURVE",
"120 400 LINE",
"123 413 OFFCURVE",
"124 429 OFFCURVE",
"124 440 CURVE SMOOTH",
"124 451 OFFCURVE",
"123 468 OFFCURVE",
"120 480 CURVE",
"40 480 LINE"
);
},
{
closed = 1;
nodes = (
"197 308 OFFCURVE",
"196 291 OFFCURVE",
"196 280 CURVE SMOOTH",
"196 269 OFFCURVE",
"197 253 OFFCURVE",
"200 240 CURVE",
"280 240 LINE",
"283 253 OFFCURVE",
"284 269 OFFCURVE",
"284 280 CURVE SMOOTH",
"284 291 OFFCURVE",
"283 308 OFFCURVE",
"280 320 CURVE",
"200 320 LINE"
);
},
{
closed = 1;
nodes = (
"37 548 OFFCURVE",
"36 531 OFFCURVE",
"36 520 CURVE SMOOTH",
"36 509 OFFCURVE",
"37 493 OFFCURVE",
"40 480 CURVE",
"200 480 LINE",
"203 493 OFFCURVE",
"204 509 OFFCURVE",
"204 520 CURVE SMOOTH",
"204 531 OFFCURVE",
"203 548 OFFCURVE",
"200 560 CURVE",
"40 560 LINE"
);
},
{
closed = 1;
nodes = (
"197 548 OFFCURVE",
"196 531 OFFCURVE",
"196 520 CURVE SMOOTH",
"196 509 OFFCURVE",
"197 493 OFFCURVE",
"200 480 CURVE",
"320 480 LINE",
"323 493 OFFCURVE",
"324 509 OFFCURVE",
"324 520 CURVE SMOOTH",
"324 531 OFFCURVE",
"323 548 OFFCURVE",
"320 560 CURVE",
"200 560 LINE"
);
},
{
closed = 1;
nodes = (
"257 388 OFFCURVE",
"256 371 OFFCURVE",
"256 360 CURVE SMOOTH",
"256 349 OFFCURVE",
"257 333 OFFCURVE",
"260 320 CURVE",
"340 320 LINE",
"343 333 OFFCURVE",
"344 349 OFFCURVE",
"344 360 CURVE SMOOTH",
"344 371 OFFCURVE",
"343 388 OFFCURVE",
"340 400 CURVE",
"260 400 LINE"
);
},
{
closed = 1;
nodes = (
"37 68 OFFCURVE",
"36 51 OFFCURVE",
"36 40 CURVE SMOOTH",
"36 29 OFFCURVE",
"37 13 OFFCURVE",
"40 0 CURVE",
"120 0 LINE",
"123 13 OFFCURVE",
"124 29 OFFCURVE",
"124 40 CURVE SMOOTH",
"124 51 OFFCURVE",
"123 68 OFFCURVE",
"120 80 CURVE",
"40 80 LINE"
);
},
{
closed = 1;
nodes = (
"257 468 OFFCURVE",
"256 451 OFFCURVE",
"256 440 CURVE SMOOTH",
"256 429 OFFCURVE",
"257 413 OFFCURVE",
"260 400 CURVE",
"360 400 LINE",
"363 413 OFFCURVE",
"364 429 OFFCURVE",
"364 440 CURVE SMOOTH",
"364 451 OFFCURVE",
"363 468 OFFCURVE",
"360 480 CURVE",
"260 480 LINE"
);
},
{
closed = 1;
nodes = (
"217 228 OFFCURVE",
"216 211 OFFCURVE",
"216 200 CURVE SMOOTH",
"216 189 OFFCURVE",
"217 173 OFFCURVE",
"220 160 CURVE",
"300 160 LINE",
"303 173 OFFCURVE",
"304 189 OFFCURVE",
"304 200 CURVE SMOOTH",
"304 211 OFFCURVE",
"303 228 OFFCURVE",
"300 240 CURVE",
"220 240 LINE"
);
},
{
closed = 1;
nodes = (
"247 148 OFFCURVE",
"246 131 OFFCURVE",
"246 120 CURVE SMOOTH",
"246 109 OFFCURVE",
"247 93 OFFCURVE",
"250 80 CURVE",
"330 80 LINE",
"333 93 OFFCURVE",
"334 109 OFFCURVE",
"334 120 CURVE SMOOTH",
"334 131 OFFCURVE",
"333 148 OFFCURVE",
"330 160 CURVE",
"250 160 LINE"
);
},
{
closed = 1;
nodes = (
"277 68 OFFCURVE",
"276 51 OFFCURVE",
"276 40 CURVE SMOOTH",
"276 29 OFFCURVE",
"277 13 OFFCURVE",
"280 0 CURVE",
"360 0 LINE",
"363 13 OFFCURVE",
"364 29 OFFCURVE",
"364 40 CURVE SMOOTH",
"364 51 OFFCURVE",
"363 68 OFFCURVE",
"360 80 CURVE",
"280 80 LINE"
);
}
);
width = 400;
}
);
unicode = 0052;
},
{
color = 3;
glyphname = S;
lastChange = "2016-07-06 09:11:00 +0000";
layers = (
{
anchors = (
{
name = bottom;
position = "{200, 0}";
},
{
name = top;
position = "{200, 560}";
}
);
layerId = "DA6254B3-9514-4A47-8309-1A9185AEAC97";
paths = (
{
closed = 1;
nodes = (
"37 388 OFFCURVE",
"36 371 OFFCURVE",
"36 360 CURVE SMOOTH",
"36 349 OFFCURVE",
"37 333 OFFCURVE",
"40 320 CURVE",
"120 320 LINE",
"123 333 OFFCURVE",
"124 349 OFFCURVE",
"124 360 CURVE SMOOTH",
"124 371 OFFCURVE",
"123 388 OFFCURVE",
"120 400 CURVE",
"40 400 LINE"
);
},
{
closed = 1;
nodes = (
"277 228 OFFCURVE",
"276 211 OFFCURVE",
"276 200 CURVE SMOOTH",
"276 189 OFFCURVE",
"277 173 OFFCURVE",
"280 160 CURVE",
"360 160 LINE",
"363 173 OFFCURVE",
"364 189 OFFCURVE",
"364 200 CURVE SMOOTH",
"364 211 OFFCURVE",
"363 228 OFFCURVE",
"360 240 CURVE",
"280 240 LINE"
);
},
{
closed = 1;
nodes = (
"197 308 OFFCURVE",
"196 291 OFFCURVE",
"196 280 CURVE SMOOTH",
"196 269 OFFCURVE",
"197 253 OFFCURVE",
"200 240 CURVE",
"320 240 LINE",
"323 253 OFFCURVE",
"324 269 OFFCURVE",
"324 280 CURVE SMOOTH",
"324 291 OFFCURVE",
"323 308 OFFCURVE",
"320 320 CURVE",
"200 320 LINE"
);
},
{
closed = 1;
nodes = (
"77 308 OFFCURVE",
"76 291 OFFCURVE",
"76 280 CURVE SMOOTH",
"76 269 OFFCURVE",
"77 253 OFFCURVE",
"80 240 CURVE",
"200 240 LINE",
"203 253 OFFCURVE",
"204 269 OFFCURVE",
"204 280 CURVE SMOOTH",
"204 291 OFFCURVE",
"203 308 OFFCURVE",
"200 320 CURVE",
"80 320 LINE"
);
},
{
closed = 1;
nodes = (
"37 468 OFFCURVE",
"36 451 OFFCURVE",
"36 440 CURVE SMOOTH",
"36 429 OFFCURVE",
"37 413 OFFCURVE",
"40 400 CURVE",
"120 400 LINE",
"123 413 OFFCURVE",
"124 429 OFFCURVE",
"124 440 CURVE SMOOTH",
"124 451 OFFCURVE",
"123 468 OFFCURVE",
"120 480 CURVE",
"40 480 LINE"
);
},
{
closed = 1;
nodes = (
"277 148 OFFCURVE",
"276 131 OFFCURVE",
"276 120 CURVE SMOOTH",
"276 109 OFFCURVE",
"277 93 OFFCURVE",
"280 80 CURVE",
"360 80 LINE",
"363 93 OFFCURVE",
"364 109 OFFCURVE",
"364 120 CURVE SMOOTH",
"364 131 OFFCURVE",
"363 148 OFFCURVE",
"360 160 CURVE",
"280 160 LINE"
);
},
{
closed = 1;
nodes = (
"277 468 OFFCURVE",
"276 451 OFFCURVE",
"276 440 CURVE SMOOTH",
"276 429 OFFCURVE",
"277 413 OFFCURVE",
"280 400 CURVE",
"360 400 LINE",
"363 413 OFFCURVE",
"364 429 OFFCURVE",
"364 440 CURVE SMOOTH",
"364 451 OFFCURVE",
"363 468 OFFCURVE",
"360 480 CURVE",
"280 480 LINE"
);
},
{
closed = 1;
nodes = (
"37 148 OFFCURVE",
"36 131 OFFCURVE",
"36 120 CURVE SMOOTH",
"36 109 OFFCURVE",
"37 93 OFFCURVE",
"40 80 CURVE",
"120 80 LINE",
"123 93 OFFCURVE",
"124 109 OFFCURVE",
"124 120 CURVE SMOOTH",
"124 131 OFFCURVE",
"123 148 OFFCURVE",
"120 160 CURVE",
"40 160 LINE"
);
},
{
closed = 1;
nodes = (
"197 548 OFFCURVE",
"196 531 OFFCURVE",
"196 520 CURVE SMOOTH",
"196 509 OFFCURVE",
"197 493 OFFCURVE",
"200 480 CURVE",
"320 480 LINE",
"323 493 OFFCURVE",
"324 509 OFFCURVE",
"324 520 CURVE SMOOTH",
"324 531 OFFCURVE",
"323 548 OFFCURVE",
"320 560 CURVE",
"200 560 LINE"
);
},
{
closed = 1;
nodes = (
"77 548 OFFCURVE",
"76 531 OFFCURVE",
"76 520 CURVE SMOOTH",
"76 509 OFFCURVE",
"77 493 OFFCURVE",
"80 480 CURVE",
"200 480 LINE",
"203 493 OFFCURVE",
"204 509 OFFCURVE",
"204 520 CURVE SMOOTH",
"204 531 OFFCURVE",
"203 548 OFFCURVE",
"200 560 CURVE",
"80 560 LINE"
);
},
{
closed = 1;
nodes = (
"197 68 OFFCURVE",
"196 51 OFFCURVE",
"196 40 CURVE SMOOTH",
"196 29 OFFCURVE",
"197 13 OFFCURVE",
"200 0 CURVE",
"320 0 LINE",
"323 13 OFFCURVE",
"324 29 OFFCURVE",
"324 40 CURVE SMOOTH",
"324 51 OFFCURVE",
"323 68 OFFCURVE",
"320 80 CURVE",
"200 80 LINE"
);
},
{
closed = 1;
nodes = (
"77 68 OFFCURVE",
"76 51 OFFCURVE",
"76 40 CURVE SMOOTH",
"76 29 OFFCURVE",
"77 13 OFFCURVE",
"80 0 CURVE",
"200 0 LINE",
"203 13 OFFCURVE",
"204 29 OFFCURVE",
"204 40 CURVE SMOOTH",
"204 51 OFFCURVE",
"203 68 OFFCURVE",
"200 80 CURVE",
"80 80 LINE"
);
}
);
width = 400;
}
);
unicode = 0053;
},
{
color = 3;
glyphname = Germandbls;
lastChange = "2016-07-06 09:11:00 +0000";
layers = (
{
layerId = "DA6254B3-9514-4A47-8309-1A9185AEAC97";
paths = (
{
closed = 1;
nodes = (
"37 148 OFFCURVE",
"36 131 OFFCURVE",
"36 120 CURVE SMOOTH",
"36 109 OFFCURVE",
"37 93 OFFCURVE",
"40 80 CURVE",
"120 80 LINE",
"123 93 OFFCURVE",
"124 109 OFFCURVE",
"124 120 CURVE SMOOTH",
"124 131 OFFCURVE",
"123 148 OFFCURVE",
"120 160 CURVE",
"40 160 LINE"
);
},
{
closed = 1;
nodes = (
"37 228 OFFCURVE",
"36 211 OFFCURVE",
"36 200 CURVE SMOOTH",
"36 189 OFFCURVE",
"37 173 OFFCURVE",
"40 160 CURVE",
"120 160 LINE",
"123 173 OFFCURVE",
"124 189 OFFCURVE",
"124 200 CURVE SMOOTH",
"124 211 OFFCURVE",
"123 228 OFFCURVE",
"120 240 CURVE",
"40 240 LINE"
);
},
{
closed = 1;
nodes = (
"37 388 OFFCURVE",
"36 371 OFFCURVE",
"36 360 CURVE SMOOTH",
"36 349 OFFCURVE",
"37 333 OFFCURVE",
"40 320 CURVE",
"120 320 LINE",
"123 333 OFFCURVE",
"124 349 OFFCURVE",
"124 360 CURVE SMOOTH",
"124 371 OFFCURVE",
"123 388 OFFCURVE",
"120 400 CURVE",
"40 400 LINE"
);
},
{
closed = 1;
nodes = (
"37 468 OFFCURVE",
"36 451 OFFCURVE",
"36 440 CURVE SMOOTH",
"36 429 OFFCURVE",
"37 413 OFFCURVE",
"40 400 CURVE",
"120 400 LINE",
"123 413 OFFCURVE",
"124 429 OFFCURVE",
"124 440 CURVE SMOOTH",
"124 451 OFFCURVE",
"123 468 OFFCURVE",
"120 480 CURVE",
"40 480 LINE"
);
},
{
closed = 1;
nodes = (
"197 308 OFFCURVE",
"196 291 OFFCURVE",
"196 280 CURVE SMOOTH",
"196 269 OFFCURVE",
"197 253 OFFCURVE",
"200 240 CURVE",
"320 240 LINE",
"323 253 OFFCURVE",
"324 269 OFFCURVE",
"324 280 CURVE SMOOTH",
"324 291 OFFCURVE",
"323 308 OFFCURVE",
"320 320 CURVE",
"200 320 LINE"
);
},
{
closed = 1;
nodes = (
"37 548 OFFCURVE",
"36 531 OFFCURVE",
"36 520 CURVE SMOOTH",
"36 509 OFFCURVE",
"37 493 OFFCURVE",
"40 480 CURVE",
"200 480 LINE",
"203 493 OFFCURVE",
"204 509 OFFCURVE",
"204 520 CURVE SMOOTH",
"204 531 OFFCURVE",
"203 548 OFFCURVE",
"200 560 CURVE",
"40 560 LINE"
);
},
{
closed = 1;
nodes = (
"197 548 OFFCURVE",
"196 531 OFFCURVE",
"196 520 CURVE SMOOTH",
"196 509 OFFCURVE",
"197 493 OFFCURVE",
"200 480 CURVE",
"320 480 LINE",
"323 493 OFFCURVE",
"324 509 OFFCURVE",
"324 520 CURVE SMOOTH",
"324 531 OFFCURVE",
"323 548 OFFCURVE",
"320 560 CURVE",
"200 560 LINE"
);
},
{
closed = 1;
nodes = (
"197 68 OFFCURVE",
"196 51 OFFCURVE",
"196 40 CURVE SMOOTH",
"196 29 OFFCURVE",
"197 13 OFFCURVE",
"200 0 CURVE",
"320 0 LINE",
"323 13 OFFCURVE",
"324 29 OFFCURVE",
"324 40 CURVE SMOOTH",
"324 51 OFFCURVE",
"323 68 OFFCURVE",
"320 80 CURVE",
"200 80 LINE"
);
},
{
closed = 1;
nodes = (
"277 148 OFFCURVE",
"276 131 OFFCURVE",
"276 120 CURVE SMOOTH",
"276 109 OFFCURVE",
"277 93 OFFCURVE",
"280 80 CURVE",
"360 80 LINE",
"363 93 OFFCURVE",
"364 109 OFFCURVE",
"364 120 CURVE SMOOTH",
"364 131 OFFCURVE",
"363 148 OFFCURVE",
"360 160 CURVE",
"280 160 LINE"
);
},
{
closed = 1;
nodes = (
"277 228 OFFCURVE",
"276 211 OFFCURVE",
"276 200 CURVE SMOOTH",
"276 189 OFFCURVE",
"277 173 OFFCURVE",
"280 160 CURVE",
"360 160 LINE",
"363 173 OFFCURVE",
"364 189 OFFCURVE",
"364 200 CURVE SMOOTH",
"364 211 OFFCURVE",
"363 228 OFFCURVE",
"360 240 CURVE",
"280 240 LINE"
);
},
{
closed = 1;
nodes = (
"277 388 OFFCURVE",
"276 371 OFFCURVE",
"276 360 CURVE SMOOTH",
"276 349 OFFCURVE",
"277 333 OFFCURVE",
"280 320 CURVE",
"360 320 LINE",
"363 333 OFFCURVE",
"364 349 OFFCURVE",
"364 360 CURVE SMOOTH",
"364 371 OFFCURVE",
"363 388 OFFCURVE",
"360 400 CURVE",
"280 400 LINE"
);
},
{
closed = 1;
nodes = (
"277 468 OFFCURVE",
"276 451 OFFCURVE",
"276 440 CURVE SMOOTH",
"276 429 OFFCURVE",
"277 413 OFFCURVE",
"280 400 CURVE",
"360 400 LINE",
"363 413 OFFCURVE",
"364 429 OFFCURVE",
"364 440 CURVE SMOOTH",
"364 451 OFFCURVE",
"363 468 OFFCURVE",
"360 480 CURVE",
"280 480 LINE"
);
},
{
closed = 1;
nodes = (
"37 308 OFFCURVE",
"36 291 OFFCURVE",
"36 280 CURVE SMOOTH",
"36 269 OFFCURVE",
"37 253 OFFCURVE",
"40 240 CURVE",
"120 240 LINE",
"123 253 OFFCURVE",
"124 269 OFFCURVE",
"124 280 CURVE SMOOTH",
"124 291 OFFCURVE",
"123 308 OFFCURVE",
"120 320 CURVE",
"40 320 LINE"
);
},
{
closed = 1;
nodes = (
"37 68 OFFCURVE",
"36 51 OFFCURVE",
"36 40 CURVE SMOOTH",
"36 29 OFFCURVE",
"37 13 OFFCURVE",
"40 0 CURVE",
"120 0 LINE",
"123 13 OFFCURVE",
"124 29 OFFCURVE",
"124 40 CURVE SMOOTH",
"124 51 OFFCURVE",
"123 68 OFFCURVE",
"120 80 CURVE",
"40 80 LINE"
);
},
{
closed = 1;
nodes = (
"157 148 OFFCURVE",
"156 131 OFFCURVE",
"156 120 CURVE SMOOTH",
"156 109 OFFCURVE",
"157 93 OFFCURVE",
"160 80 CURVE",
"240 80 LINE",
"243 93 OFFCURVE",
"244 109 OFFCURVE",
"244 120 CURVE SMOOTH",
"244 131 OFFCURVE",
"243 148 OFFCURVE",
"240 160 CURVE",
"160 160 LINE"
);
}
);
width = 400;
}
);
unicode = 1E9E;
},
{
color = 3;
glyphname = Schwa;
lastChange = "2016-07-06 09:11:00 +0000";
layers = (
{
anchors = (
{
name = bottom;
position = "{200, 0}";
},
{
name = top;
position = "{200, 560}";
}
);
layerId = "DA6254B3-9514-4A47-8309-1A9185AEAC97";
paths = (
{
closed = 1;
nodes = (
"67 148 OFFCURVE",
"66 131 OFFCURVE",
"66 120 CURVE SMOOTH",
"66 109 OFFCURVE",
"67 93 OFFCURVE",
"70 80 CURVE",
"150 80 LINE",
"153 93 OFFCURVE",
"154 109 OFFCURVE",
"154 120 CURVE SMOOTH",
"154 131 OFFCURVE",
"153 148 OFFCURVE",
"150 160 CURVE",
"70 160 LINE"
);
},
{
closed = 1;
nodes = (
"37 228 OFFCURVE",
"36 211 OFFCURVE",
"36 200 CURVE SMOOTH",
"36 189 OFFCURVE",
"37 173 OFFCURVE",
"40 160 CURVE",
"120 160 LINE",
"123 173 OFFCURVE",
"124 189 OFFCURVE",
"124 200 CURVE SMOOTH",
"124 211 OFFCURVE",
"123 228 OFFCURVE",
"120 240 CURVE",
"40 240 LINE"
);
},
{
closed = 1;
nodes = (
"37 468 OFFCURVE",
"36 451 OFFCURVE",
"36 440 CURVE SMOOTH",
"36 429 OFFCURVE",
"37 413 OFFCURVE",
"40 400 CURVE",
"120 400 LINE",
"123 413 OFFCURVE",
"124 429 OFFCURVE",
"124 440 CURVE SMOOTH",
"124 451 OFFCURVE",
"123 468 OFFCURVE",
"120 480 CURVE",
"40 480 LINE"
);
},
{
closed = 1;
nodes = (
"247 148 OFFCURVE",
"246 131 OFFCURVE",
"246 120 CURVE SMOOTH",
"246 109 OFFCURVE",
"247 93 OFFCURVE",
"250 80 CURVE",
"330 80 LINE",
"333 93 OFFCURVE",
"334 109 OFFCURVE",
"334 120 CURVE SMOOTH",
"334 131 OFFCURVE",
"333 148 OFFCURVE",
"330 160 CURVE",
"250 160 LINE"
);
},
{
closed = 1;
nodes = (
"247 468 OFFCURVE",
"246 451 OFFCURVE",
"246 440 CURVE SMOOTH",
"246 429 OFFCURVE",
"247 413 OFFCURVE",
"250 400 CURVE",
"330 400 LINE",
"333 413 OFFCURVE",
"334 429 OFFCURVE",
"334 440 CURVE SMOOTH",
"334 451 OFFCURVE",
"333 468 OFFCURVE",
"330 480 CURVE",
"250 480 LINE"
);
},
{
closed = 1;
nodes = (
"117 68 OFFCURVE",
"116 51 OFFCURVE",
"116 40 CURVE SMOOTH",
"116 29 OFFCURVE",
"117 13 OFFCURVE",
"120 0 CURVE",
"280 0 LINE",
"283 13 OFFCURVE",
"284 29 OFFCURVE",
"284 40 CURVE SMOOTH",
"284 51 OFFCURVE",
"283 68 OFFCURVE",
"280 80 CURVE",
"120 80 LINE"
);
},
{
closed = 1;
nodes = (
"77 548 OFFCURVE",
"76 531 OFFCURVE",
"76 520 CURVE SMOOTH",
"76 509 OFFCURVE",
"77 493 OFFCURVE",
"80 480 CURVE",
"200 480 LINE",
"203 493 OFFCURVE",
"204 509 OFFCURVE",
"204 520 CURVE SMOOTH",
"204 531 OFFCURVE",
"203 548 OFFCURVE",
"200 560 CURVE",
"80 560 LINE"
);
},
{
closed = 1;
nodes = (
"277 228 OFFCURVE",
"276 211 OFFCURVE",
"276 200 CURVE SMOOTH",
"276 189 OFFCURVE",
"277 173 OFFCURVE",
"280 160 CURVE",
"360 160 LINE",
"363 173 OFFCURVE",
"364 189 OFFCURVE",
"364 200 CURVE SMOOTH",
"364 211 OFFCURVE",
"363 228 OFFCURVE",
"360 240 CURVE",
"280 240 LINE"
);
},
{
closed = 1;
nodes = (
"37 308 OFFCURVE",
"36 291 OFFCURVE",
"36 280 CURVE SMOOTH",
"36 269 OFFCURVE",
"37 253 OFFCURVE",
"40 240 CURVE",
"200 240 LINE",
"203 253 OFFCURVE",
"204 269 OFFCURVE",
"204 280 CURVE SMOOTH",
"204 291 OFFCURVE",
"203 308 OFFCURVE",
"200 320 CURVE",
"40 320 LINE"
);
},
{
closed = 1;
nodes = (
"277 388 OFFCURVE",
"276 371 OFFCURVE",
"276 360 CURVE SMOOTH",
"276 349 OFFCURVE",
"277 333 OFFCURVE",
"280 320 CURVE",
"360 320 LINE",
"363 333 OFFCURVE",
"364 349 OFFCURVE",
"364 360 CURVE SMOOTH",
"364 371 OFFCURVE",
"363 388 OFFCURVE",
"360 400 CURVE",
"280 400 LINE"
);
},
{
closed = 1;
nodes = (
"197 548 OFFCURVE",
"196 531 OFFCURVE",
"196 520 CURVE SMOOTH",
"196 509 OFFCURVE",
"197 493 OFFCURVE",
"200 480 CURVE",
"280 480 LINE",
"283 493 OFFCURVE",
"284 509 OFFCURVE",
"284 520 CURVE SMOOTH",
"284 531 OFFCURVE",
"283 548 OFFCURVE",
"280 560 CURVE",
"200 560 LINE"
);
},
{
closed = 1;
nodes = (
"197 308 OFFCURVE",
"196 291 OFFCURVE",
"196 280 CURVE SMOOTH",
"196 269 OFFCURVE",
"197 253 OFFCURVE",
"200 240 CURVE",
"360 240 LINE",
"363 253 OFFCURVE",
"364 269 OFFCURVE",
"364 280 CURVE SMOOTH",
"364 291 OFFCURVE",
"363 308 OFFCURVE",
"360 320 CURVE",
"200 320 LINE"
);
}
);
width = 400;
}
);
unicode = 018F;
},
{
color = 3;
glyphname = T;
lastChange = "2016-07-06 09:11:00 +0000";
layers = (
{
anchors = (
{
name = bottom;
position = "{200, 0}";
},
{
name = center;
position = "{200, 280}";
},
{
name = ogonek;
position = "{230, 20}";
},
{
name = top;
position = "{200, 560}";
}
);
layerId = "DA6254B3-9514-4A47-8309-1A9185AEAC97";
paths = (
{
closed = 1;
nodes = (
"157 308 OFFCURVE",
"156 291 OFFCURVE",
"156 280 CURVE SMOOTH",
"156 269 OFFCURVE",
"157 253 OFFCURVE",
"160 240 CURVE",
"240 240 LINE",
"243 253 OFFCURVE",
"244 269 OFFCURVE",
"244 280 CURVE SMOOTH",
"244 291 OFFCURVE",
"243 308 OFFCURVE",
"240 320 CURVE",
"160 320 LINE"
);
},
{
closed = 1;
nodes = (
"157 388 OFFCURVE",
"156 371 OFFCURVE",
"156 360 CURVE SMOOTH",
"156 349 OFFCURVE",
"157 333 OFFCURVE",
"160 320 CURVE",
"240 320 LINE",
"243 333 OFFCURVE",
"244 349 OFFCURVE",
"244 360 CURVE SMOOTH",
"244 371 OFFCURVE",
"243 388 OFFCURVE",
"240 400 CURVE",
"160 400 LINE"
);
},
{
closed = 1;
nodes = (
"157 468 OFFCURVE",
"156 451 OFFCURVE",
"156 440 CURVE SMOOTH",
"156 429 OFFCURVE",
"157 413 OFFCURVE",
"160 400 CURVE",
"240 400 LINE",
"243 413 OFFCURVE",
"244 429 OFFCURVE",
"244 440 CURVE SMOOTH",
"244 451 OFFCURVE",
"243 468 OFFCURVE",
"240 480 CURVE",
"160 480 LINE"
);
},
{
closed = 1;
nodes = (
"237 548 OFFCURVE",
"236 531 OFFCURVE",
"236 520 CURVE SMOOTH",
"236 509 OFFCURVE",
"237 493 OFFCURVE",
"240 480 CURVE",
"360 480 LINE",
"363 493 OFFCURVE",
"364 509 OFFCURVE",
"364 520 CURVE SMOOTH",
"364 531 OFFCURVE",
"363 548 OFFCURVE",
"360 560 CURVE",
"240 560 LINE"
);
},
{
closed = 1;
nodes = (
"157 148 OFFCURVE",
"156 131 OFFCURVE",
"156 120 CURVE SMOOTH",
"156 109 OFFCURVE",
"157 93 OFFCURVE",
"160 80 CURVE",
"240 80 LINE",
"243 93 OFFCURVE",
"244 109 OFFCURVE",
"244 120 CURVE SMOOTH",
"244 131 OFFCURVE",
"243 148 OFFCURVE",
"240 160 CURVE",
"160 160 LINE"
);
},
{
closed = 1;
nodes = (
"157 228 OFFCURVE",
"156 211 OFFCURVE",
"156 200 CURVE SMOOTH",
"156 189 OFFCURVE",
"157 173 OFFCURVE",
"160 160 CURVE",
"240 160 LINE",
"243 173 OFFCURVE",
"244 189 OFFCURVE",
"244 200 CURVE SMOOTH",
"244 211 OFFCURVE",
"243 228 OFFCURVE",
"240 240 CURVE",
"160 240 LINE"
);
},
{
closed = 1;
nodes = (
"37 548 OFFCURVE",
"36 531 OFFCURVE",
"36 520 CURVE SMOOTH",
"36 509 OFFCURVE",
"37 493 OFFCURVE",
"40 480 CURVE",
"160 480 LINE",
"163 493 OFFCURVE",
"164 509 OFFCURVE",
"164 520 CURVE SMOOTH",
"164 531 OFFCURVE",
"163 548 OFFCURVE",
"160 560 CURVE",
"40 560 LINE"
);
},
{
closed = 1;
nodes = (
"157 548 OFFCURVE",
"156 531 OFFCURVE",
"156 520 CURVE SMOOTH",
"156 509 OFFCURVE",
"157 493 OFFCURVE",
"160 480 CURVE",
"240 480 LINE",
"243 493 OFFCURVE",
"244 509 OFFCURVE",
"244 520 CURVE SMOOTH",
"244 531 OFFCURVE",
"243 548 OFFCURVE",
"240 560 CURVE",
"160 560 LINE"
);
},
{
closed = 1;
nodes = (
"157 68 OFFCURVE",
"156 51 OFFCURVE",
"156 40 CURVE SMOOTH",
"156 29 OFFCURVE",
"157 13 OFFCURVE",
"160 0 CURVE",
"240 0 LINE",
"243 13 OFFCURVE",
"244 29 OFFCURVE",
"244 40 CURVE SMOOTH",
"244 51 OFFCURVE",
"243 68 OFFCURVE",
"240 80 CURVE",
"160 80 LINE"
);
}
);
width = 400;
}
);
unicode = 0054;
},
{
color = 3;
glyphname = Tbar;
lastChange = "2016-07-06 09:11:00 +0000";
layers = (
{
layerId = "DA6254B3-9514-4A47-8309-1A9185AEAC97";
paths = (
{
closed = 1;
nodes = (
"77 308 OFFCURVE",
"76 291 OFFCURVE",
"76 280 CURVE SMOOTH",
"76 269 OFFCURVE",
"77 253 OFFCURVE",
"80 240 CURVE",
"200 240 LINE",
"203 253 OFFCURVE",
"204 269 OFFCURVE",
"204 280 CURVE SMOOTH",
"204 291 OFFCURVE",
"203 308 OFFCURVE",
"200 320 CURVE",
"80 320 LINE"
);
},
{
closed = 1;
nodes = (
"157 388 OFFCURVE",
"156 371 OFFCURVE",
"156 360 CURVE SMOOTH",
"156 349 OFFCURVE",
"157 333 OFFCURVE",
"160 320 CURVE",
"240 320 LINE",
"243 333 OFFCURVE",
"244 349 OFFCURVE",
"244 360 CURVE SMOOTH",
"244 371 OFFCURVE",
"243 388 OFFCURVE",
"240 400 CURVE",
"160 400 LINE"
);
},
{
closed = 1;
nodes = (
"157 468 OFFCURVE",
"156 451 OFFCURVE",
"156 440 CURVE SMOOTH",
"156 429 OFFCURVE",
"157 413 OFFCURVE",
"160 400 CURVE",
"240 400 LINE",
"243 413 OFFCURVE",
"244 429 OFFCURVE",
"244 440 CURVE SMOOTH",
"244 451 OFFCURVE",
"243 468 OFFCURVE",
"240 480 CURVE",
"160 480 LINE"
);
},
{
closed = 1;
nodes = (
"237 548 OFFCURVE",
"236 531 OFFCURVE",
"236 520 CURVE SMOOTH",
"236 509 OFFCURVE",
"237 493 OFFCURVE",
"240 480 CURVE",
"360 480 LINE",
"363 493 OFFCURVE",
"364 509 OFFCURVE",
"364 520 CURVE SMOOTH",
"364 531 OFFCURVE",
"363 548 OFFCURVE",
"360 560 CURVE",
"240 560 LINE"
);
},
{
closed = 1;
nodes = (
"157 148 OFFCURVE",
"156 131 OFFCURVE",
"156 120 CURVE SMOOTH",
"156 109 OFFCURVE",
"157 93 OFFCURVE",
"160 80 CURVE",
"240 80 LINE",
"243 93 OFFCURVE",
"244 109 OFFCURVE",
"244 120 CURVE SMOOTH",
"244 131 OFFCURVE",
"243 148 OFFCURVE",
"240 160 CURVE",
"160 160 LINE"
);
},
{
closed = 1;
nodes = (
"157 228 OFFCURVE",
"156 211 OFFCURVE",
"156 200 CURVE SMOOTH",
"156 189 OFFCURVE",
"157 173 OFFCURVE",
"160 160 CURVE",
"240 160 LINE",
"243 173 OFFCURVE",
"244 189 OFFCURVE",
"244 200 CURVE SMOOTH",
"244 211 OFFCURVE",
"243 228 OFFCURVE",
"240 240 CURVE",
"160 240 LINE"
);
},
{
closed = 1;
nodes = (
"37 548 OFFCURVE",
"36 531 OFFCURVE",
"36 520 CURVE SMOOTH",
"36 509 OFFCURVE",
"37 493 OFFCURVE",
"40 480 CURVE",
"160 480 LINE",
"163 493 OFFCURVE",
"164 509 OFFCURVE",
"164 520 CURVE SMOOTH",
"164 531 OFFCURVE",
"163 548 OFFCURVE",
"160 560 CURVE",
"40 560 LINE"
);
},
{
closed = 1;
nodes = (
"157 548 OFFCURVE",
"156 531 OFFCURVE",
"156 520 CURVE SMOOTH",
"156 509 OFFCURVE",
"157 493 OFFCURVE",
"160 480 CURVE",
"240 480 LINE",
"243 493 OFFCURVE",
"244 509 OFFCURVE",
"244 520 CURVE SMOOTH",
"244 531 OFFCURVE",
"243 548 OFFCURVE",
"240 560 CURVE",
"160 560 LINE"
);
},
{
closed = 1;
nodes = (
"157 68 OFFCURVE",
"156 51 OFFCURVE",
"156 40 CURVE SMOOTH",
"156 29 OFFCURVE",
"157 13 OFFCURVE",
"160 0 CURVE",
"240 0 LINE",
"243 13 OFFCURVE",
"244 29 OFFCURVE",
"244 40 CURVE SMOOTH",
"244 51 OFFCURVE",
"243 68 OFFCURVE",
"240 80 CURVE",
"160 80 LINE"
);
},
{
closed = 1;
nodes = (
"197 308 OFFCURVE",
"196 291 OFFCURVE",
"196 280 CURVE SMOOTH",
"196 269 OFFCURVE",
"197 253 OFFCURVE",
"200 240 CURVE",
"320 240 LINE",
"323 253 OFFCURVE",
"324 269 OFFCURVE",
"324 280 CURVE SMOOTH",
"324 291 OFFCURVE",
"323 308 OFFCURVE",
"320 320 CURVE",
"200 320 LINE"
);
}
);
width = 400;
}
);
unicode = 0166;
},
{
color = 3;
glyphname = U;
lastChange = "2016-07-06 09:11:00 +0000";
layers = (
{
anchors = (
{
name = bottom;
position = "{200, 0}";
},
{
name = ogonek;
position = "{230, 10}";
},
{
name = top;
position = "{200, 560}";
},
{
name = topright;
position = "{320, 560}";
}
);
layerId = "DA6254B3-9514-4A47-8309-1A9185AEAC97";
paths = (
{
closed = 1;
nodes = (
"197 68 OFFCURVE",
"196 51 OFFCURVE",
"196 40 CURVE SMOOTH",
"196 29 OFFCURVE",
"197 13 OFFCURVE",
"200 0 CURVE",
"320 0 LINE",
"323 13 OFFCURVE",
"324 29 OFFCURVE",
"324 40 CURVE SMOOTH",
"324 51 OFFCURVE",
"323 68 OFFCURVE",
"320 80 CURVE",
"200 80 LINE"
);
},
{
closed = 1;
nodes = (
"277 148 OFFCURVE",
"276 131 OFFCURVE",
"276 120 CURVE SMOOTH",
"276 109 OFFCURVE",
"277 93 OFFCURVE",
"280 80 CURVE",
"360 80 LINE",
"363 93 OFFCURVE",
"364 109 OFFCURVE",
"364 120 CURVE SMOOTH",
"364 131 OFFCURVE",
"363 148 OFFCURVE",
"360 160 CURVE",
"280 160 LINE"
);
},
{
closed = 1;
nodes = (
"277 228 OFFCURVE",
"276 211 OFFCURVE",
"276 200 CURVE SMOOTH",
"276 189 OFFCURVE",
"277 173 OFFCURVE",
"280 160 CURVE",
"360 160 LINE",
"363 173 OFFCURVE",
"364 189 OFFCURVE",
"364 200 CURVE SMOOTH",
"364 211 OFFCURVE",
"363 228 OFFCURVE",
"360 240 CURVE",
"280 240 LINE"
);
},
{
closed = 1;
nodes = (
"277 308 OFFCURVE",
"276 291 OFFCURVE",
"276 280 CURVE SMOOTH",
"276 269 OFFCURVE",
"277 253 OFFCURVE",
"280 240 CURVE",
"360 240 LINE",
"363 253 OFFCURVE",
"364 269 OFFCURVE",
"364 280 CURVE SMOOTH",
"364 291 OFFCURVE",
"363 308 OFFCURVE",
"360 320 CURVE",
"280 320 LINE"
);
},
{
closed = 1;
nodes = (
"277 388 OFFCURVE",
"276 371 OFFCURVE",
"276 360 CURVE SMOOTH",
"276 349 OFFCURVE",
"277 333 OFFCURVE",
"280 320 CURVE",
"360 320 LINE",
"363 333 OFFCURVE",
"364 349 OFFCURVE",
"364 360 CURVE SMOOTH",
"364 371 OFFCURVE",
"363 388 OFFCURVE",
"360 400 CURVE",
"280 400 LINE"
);
},
{
closed = 1;
nodes = (
"277 468 OFFCURVE",
"276 451 OFFCURVE",
"276 440 CURVE SMOOTH",
"276 429 OFFCURVE",
"277 413 OFFCURVE",
"280 400 CURVE",
"360 400 LINE",
"363 413 OFFCURVE",
"364 429 OFFCURVE",
"364 440 CURVE SMOOTH",
"364 451 OFFCURVE",
"363 468 OFFCURVE",
"360 480 CURVE",
"280 480 LINE"
);
},
{
closed = 1;
nodes = (
"277 548 OFFCURVE",
"276 531 OFFCURVE",
"276 520 CURVE SMOOTH",
"276 509 OFFCURVE",
"277 493 OFFCURVE",
"280 480 CURVE",
"360 480 LINE",
"363 493 OFFCURVE",
"364 509 OFFCURVE",
"364 520 CURVE SMOOTH",
"364 531 OFFCURVE",
"363 548 OFFCURVE",
"360 560 CURVE",
"280 560 LINE"
);
},
{
closed = 1;
nodes = (
"77 68 OFFCURVE",
"76 51 OFFCURVE",
"76 40 CURVE SMOOTH",
"76 29 OFFCURVE",
"77 13 OFFCURVE",
"80 0 CURVE",
"200 0 LINE",
"203 13 OFFCURVE",
"204 29 OFFCURVE",
"204 40 CURVE SMOOTH",
"204 51 OFFCURVE",
"203 68 OFFCURVE",
"200 80 CURVE",
"80 80 LINE"
);
},
{
closed = 1;
nodes = (
"37 148 OFFCURVE",
"36 131 OFFCURVE",
"36 120 CURVE SMOOTH",
"36 109 OFFCURVE",
"37 93 OFFCURVE",
"40 80 CURVE",
"120 80 LINE",
"123 93 OFFCURVE",
"124 109 OFFCURVE",
"124 120 CURVE SMOOTH",
"124 131 OFFCURVE",
"123 148 OFFCURVE",
"120 160 CURVE",
"40 160 LINE"
);
},
{
closed = 1;
nodes = (
"37 228 OFFCURVE",
"36 211 OFFCURVE",
"36 200 CURVE SMOOTH",
"36 189 OFFCURVE",
"37 173 OFFCURVE",
"40 160 CURVE",
"120 160 LINE",
"123 173 OFFCURVE",
"124 189 OFFCURVE",
"124 200 CURVE SMOOTH",
"124 211 OFFCURVE",
"123 228 OFFCURVE",
"120 240 CURVE",
"40 240 LINE"
);
},
{
closed = 1;
nodes = (
"37 308 OFFCURVE",
"36 291 OFFCURVE",
"36 280 CURVE SMOOTH",
"36 269 OFFCURVE",
"37 253 OFFCURVE",
"40 240 CURVE",
"120 240 LINE",
"123 253 OFFCURVE",
"124 269 OFFCURVE",
"124 280 CURVE SMOOTH",
"124 291 OFFCURVE",
"123 308 OFFCURVE",
"120 320 CURVE",
"40 320 LINE"
);
},
{
closed = 1;
nodes = (
"37 388 OFFCURVE",
"36 371 OFFCURVE",
"36 360 CURVE SMOOTH",
"36 349 OFFCURVE",
"37 333 OFFCURVE",
"40 320 CURVE",
"120 320 LINE",
"123 333 OFFCURVE",
"124 349 OFFCURVE",
"124 360 CURVE SMOOTH",
"124 371 OFFCURVE",
"123 388 OFFCURVE",
"120 400 CURVE",
"40 400 LINE"
);
},
{
closed = 1;
nodes = (
"37 468 OFFCURVE",
"36 451 OFFCURVE",
"36 440 CURVE SMOOTH",
"36 429 OFFCURVE",
"37 413 OFFCURVE",
"40 400 CURVE",
"120 400 LINE",
"123 413 OFFCURVE",
"124 429 OFFCURVE",
"124 440 CURVE SMOOTH",
"124 451 OFFCURVE",
"123 468 OFFCURVE",
"120 480 CURVE",
"40 480 LINE"
);
},
{
closed = 1;
nodes = (
"37 548 OFFCURVE",
"36 531 OFFCURVE",
"36 520 CURVE SMOOTH",
"36 509 OFFCURVE",
"37 493 OFFCURVE",
"40 480 CURVE",
"120 480 LINE",
"123 493 OFFCURVE",
"124 509 OFFCURVE",
"124 520 CURVE SMOOTH",
"124 531 OFFCURVE",
"123 548 OFFCURVE",
"120 560 CURVE",
"40 560 LINE"
);
}
);
width = 400;
}
);
unicode = 0055;
},
{
color = 3;
glyphname = V;
lastChange = "2016-07-06 09:11:00 +0000";
layers = (
{
anchors = (
{
name = bottom;
position = "{200, 0}";
},
{
name = top;
position = "{200, 560}";
}
);
layerId = "DA6254B3-9514-4A47-8309-1A9185AEAC97";
paths = (
{
closed = 1;
nodes = (
"157 68 OFFCURVE",
"156 51 OFFCURVE",
"156 40 CURVE SMOOTH",
"156 29 OFFCURVE",
"157 13 OFFCURVE",
"160 0 CURVE",
"240 0 LINE",
"243 13 OFFCURVE",
"244 29 OFFCURVE",
"244 40 CURVE SMOOTH",
"244 51 OFFCURVE",
"243 68 OFFCURVE",
"240 80 CURVE",
"160 80 LINE"
);
},
{
closed = 1;
nodes = (
"117 148 OFFCURVE",
"116 131 OFFCURVE",
"116 120 CURVE SMOOTH",
"116 109 OFFCURVE",
"117 93 OFFCURVE",
"120 80 CURVE",
"280 80 LINE",
"283 93 OFFCURVE",
"284 109 OFFCURVE",
"284 120 CURVE SMOOTH",
"284 131 OFFCURVE",
"283 148 OFFCURVE",
"280 160 CURVE",
"120 160 LINE"
);
},
{
closed = 1;
nodes = (
"97 228 OFFCURVE",
"96 211 OFFCURVE",
"96 200 CURVE SMOOTH",
"96 189 OFFCURVE",
"97 173 OFFCURVE",
"100 160 CURVE",
"180 160 LINE",
"183 173 OFFCURVE",
"184 189 OFFCURVE",
"184 200 CURVE SMOOTH",
"184 211 OFFCURVE",
"183 228 OFFCURVE",
"180 240 CURVE",
"100 240 LINE"
);
},
{
closed = 1;
nodes = (
"217 228 OFFCURVE",
"216 211 OFFCURVE",
"216 200 CURVE SMOOTH",
"216 189 OFFCURVE",
"217 173 OFFCURVE",
"220 160 CURVE",
"300 160 LINE",
"303 173 OFFCURVE",
"304 189 OFFCURVE",
"304 200 CURVE SMOOTH",
"304 211 OFFCURVE",
"303 228 OFFCURVE",
"300 240 CURVE",
"220 240 LINE"
);
},
{
closed = 1;
nodes = (
"247 308 OFFCURVE",
"246 291 OFFCURVE",
"246 280 CURVE SMOOTH",
"246 269 OFFCURVE",
"247 253 OFFCURVE",
"250 240 CURVE",
"330 240 LINE",
"333 253 OFFCURVE",
"334 269 OFFCURVE",
"334 280 CURVE SMOOTH",
"334 291 OFFCURVE",
"333 308 OFFCURVE",
"330 320 CURVE",
"250 320 LINE"
);
},
{
closed = 1;
nodes = (
"67 308 OFFCURVE",
"66 291 OFFCURVE",
"66 280 CURVE SMOOTH",
"66 269 OFFCURVE",
"67 253 OFFCURVE",
"70 240 CURVE",
"150 240 LINE",
"153 253 OFFCURVE",
"154 269 OFFCURVE",
"154 280 CURVE SMOOTH",
"154 291 OFFCURVE",
"153 308 OFFCURVE",
"150 320 CURVE",
"70 320 LINE"
);
},
{
closed = 1;
nodes = (
"37 388 OFFCURVE",
"36 371 OFFCURVE",
"36 360 CURVE SMOOTH",
"36 349 OFFCURVE",
"37 333 OFFCURVE",
"40 320 CURVE",
"120 320 LINE",
"123 333 OFFCURVE",
"124 349 OFFCURVE",
"124 360 CURVE SMOOTH",
"124 371 OFFCURVE",
"123 388 OFFCURVE",
"120 400 CURVE",
"40 400 LINE"
);
},
{
closed = 1;
nodes = (
"277 388 OFFCURVE",
"276 371 OFFCURVE",
"276 360 CURVE SMOOTH",
"276 349 OFFCURVE",
"277 333 OFFCURVE",
"280 320 CURVE",
"360 320 LINE",
"363 333 OFFCURVE",
"364 349 OFFCURVE",
"364 360 CURVE SMOOTH",
"364 371 OFFCURVE",
"363 388 OFFCURVE",
"360 400 CURVE",
"280 400 LINE"
);
},
{
closed = 1;
nodes = (
"37 468 OFFCURVE",
"36 451 OFFCURVE",
"36 440 CURVE SMOOTH",
"36 429 OFFCURVE",
"37 413 OFFCURVE",
"40 400 CURVE",
"120 400 LINE",
"123 413 OFFCURVE",
"124 429 OFFCURVE",
"124 440 CURVE SMOOTH",
"124 451 OFFCURVE",
"123 468 OFFCURVE",
"120 480 CURVE",
"40 480 LINE"
);
},
{
closed = 1;
nodes = (
"277 468 OFFCURVE",
"276 451 OFFCURVE",
"276 440 CURVE SMOOTH",
"276 429 OFFCURVE",
"277 413 OFFCURVE",
"280 400 CURVE",
"360 400 LINE",
"363 413 OFFCURVE",
"364 429 OFFCURVE",
"364 440 CURVE SMOOTH",
"364 451 OFFCURVE",
"363 468 OFFCURVE",
"360 480 CURVE",
"280 480 LINE"
);
},
{
closed = 1;
nodes = (
"37 548 OFFCURVE",
"36 531 OFFCURVE",
"36 520 CURVE SMOOTH",
"36 509 OFFCURVE",
"37 493 OFFCURVE",
"40 480 CURVE",
"120 480 LINE",
"123 493 OFFCURVE",
"124 509 OFFCURVE",
"124 520 CURVE SMOOTH",
"124 531 OFFCURVE",
"123 548 OFFCURVE",
"120 560 CURVE",
"40 560 LINE"
);
},
{
closed = 1;
nodes = (
"277 548 OFFCURVE",
"276 531 OFFCURVE",
"276 520 CURVE SMOOTH",
"276 509 OFFCURVE",
"277 493 OFFCURVE",
"280 480 CURVE",
"360 480 LINE",
"363 493 OFFCURVE",
"364 509 OFFCURVE",
"364 520 CURVE SMOOTH",
"364 531 OFFCURVE",
"363 548 OFFCURVE",
"360 560 CURVE",
"280 560 LINE"
);
}
);
width = 400;
}
);
unicode = 0056;
},
{
color = 3;
glyphname = W;
lastChange = "2016-07-06 09:11:00 +0000";
layers = (
{
anchors = (
{
name = bottom;
position = "{200, 0}";
},
{
name = top;
position = "{200, 560}";
}
);
layerId = "DA6254B3-9514-4A47-8309-1A9185AEAC97";
paths = (
{
closed = 1;
nodes = (
"37 388 OFFCURVE",
"36 371 OFFCURVE",
"36 360 CURVE SMOOTH",
"36 349 OFFCURVE",
"37 333 OFFCURVE",
"40 320 CURVE",
"120 320 LINE",
"123 333 OFFCURVE",
"124 349 OFFCURVE",
"124 360 CURVE SMOOTH",
"124 371 OFFCURVE",
"123 388 OFFCURVE",
"120 400 CURVE",
"40 400 LINE"
);
},
{
closed = 1;
nodes = (
"277 388 OFFCURVE",
"276 371 OFFCURVE",
"276 360 CURVE SMOOTH",
"276 349 OFFCURVE",
"277 333 OFFCURVE",
"280 320 CURVE",
"360 320 LINE",
"363 333 OFFCURVE",
"364 349 OFFCURVE",
"364 360 CURVE SMOOTH",
"364 371 OFFCURVE",
"363 388 OFFCURVE",
"360 400 CURVE",
"280 400 LINE"
);
},
{
closed = 1;
nodes = (
"167 388 OFFCURVE",
"166 371 OFFCURVE",
"166 360 CURVE SMOOTH",
"166 349 OFFCURVE",
"167 333 OFFCURVE",
"170 320 CURVE",
"230 320 LINE",
"233 333 OFFCURVE",
"234 349 OFFCURVE",
"234 360 CURVE SMOOTH",
"234 371 OFFCURVE",
"233 388 OFFCURVE",
"230 400 CURVE",
"170 400 LINE"
);
},
{
closed = 1;
nodes = (
"37 308 OFFCURVE",
"36 291 OFFCURVE",
"36 280 CURVE SMOOTH",
"36 269 OFFCURVE",
"37 253 OFFCURVE",
"40 240 CURVE",
"120 240 LINE",
"123 253 OFFCURVE",
"124 269 OFFCURVE",
"124 280 CURVE SMOOTH",
"124 291 OFFCURVE",
"123 308 OFFCURVE",
"120 320 CURVE",
"40 320 LINE"
);
},
{
closed = 1;
nodes = (
"277 308 OFFCURVE",
"276 291 OFFCURVE",
"276 280 CURVE SMOOTH",
"276 269 OFFCURVE",
"277 253 OFFCURVE",
"280 240 CURVE",
"360 240 LINE",
"363 253 OFFCURVE",
"364 269 OFFCURVE",
"364 280 CURVE SMOOTH",
"364 291 OFFCURVE",
"363 308 OFFCURVE",
"360 320 CURVE",
"280 320 LINE"
);
},
{
closed = 1;
nodes = (
"167 308 OFFCURVE",
"166 291 OFFCURVE",
"166 280 CURVE SMOOTH",
"166 269 OFFCURVE",
"167 253 OFFCURVE",
"170 240 CURVE",
"230 240 LINE",
"233 253 OFFCURVE",
"234 269 OFFCURVE",
"234 280 CURVE SMOOTH",
"234 291 OFFCURVE",
"233 308 OFFCURVE",
"230 320 CURVE",
"170 320 LINE"
);
},
{
closed = 1;
nodes = (
"67 228 OFFCURVE",
"66 211 OFFCURVE",
"66 200 CURVE SMOOTH",
"66 189 OFFCURVE",
"67 173 OFFCURVE",
"70 160 CURVE",
"120 160 LINE",
"123 173 OFFCURVE",
"124 189 OFFCURVE",
"124 200 CURVE SMOOTH",
"124 211 OFFCURVE",
"123 228 OFFCURVE",
"120 240 CURVE",
"70 240 LINE"
);
},
{
closed = 1;
nodes = (
"277 228 OFFCURVE",
"276 211 OFFCURVE",
"276 200 CURVE SMOOTH",
"276 189 OFFCURVE",
"277 173 OFFCURVE",
"280 160 CURVE",
"330 160 LINE",
"333 173 OFFCURVE",
"334 189 OFFCURVE",
"334 200 CURVE SMOOTH",
"334 211 OFFCURVE",
"333 228 OFFCURVE",
"330 240 CURVE",
"280 240 LINE"
);
},
{
closed = 1;
nodes = (
"147 228 OFFCURVE",
"146 211 OFFCURVE",
"146 200 CURVE SMOOTH",
"146 189 OFFCURVE",
"147 173 OFFCURVE",
"150 160 CURVE",
"250 160 LINE",
"253 173 OFFCURVE",
"254 189 OFFCURVE",
"254 200 CURVE SMOOTH",
"254 211 OFFCURVE",
"253 228 OFFCURVE",
"250 240 CURVE",
"150 240 LINE"
);
},
{
closed = 1;
nodes = (
"67 148 OFFCURVE",
"66 131 OFFCURVE",
"66 120 CURVE SMOOTH",
"66 109 OFFCURVE",
"67 93 OFFCURVE",
"70 80 CURVE",
"170 80 LINE",
"173 93 OFFCURVE",
"174 109 OFFCURVE",
"174 120 CURVE SMOOTH",
"174 131 OFFCURVE",
"173 148 OFFCURVE",
"170 160 CURVE",
"70 160 LINE"
);
},
{
closed = 1;
nodes = (
"227 148 OFFCURVE",
"226 131 OFFCURVE",
"226 120 CURVE SMOOTH",
"226 109 OFFCURVE",
"227 93 OFFCURVE",
"230 80 CURVE",
"330 80 LINE",
"333 93 OFFCURVE",
"334 109 OFFCURVE",
"334 120 CURVE SMOOTH",
"334 131 OFFCURVE",
"333 148 OFFCURVE",
"330 160 CURVE",
"230 160 LINE"
);
},
{
closed = 1;
nodes = (
"87 68 OFFCURVE",
"86 51 OFFCURVE",
"86 40 CURVE SMOOTH",
"86 29 OFFCURVE",
"87 13 OFFCURVE",
"90 0 CURVE",
"150 0 LINE",
"153 13 OFFCURVE",
"154 29 OFFCURVE",
"154 40 CURVE SMOOTH",
"154 51 OFFCURVE",
"153 68 OFFCURVE",
"150 80 CURVE",
"90 80 LINE"
);
},
{
closed = 1;
nodes = (
"247 68 OFFCURVE",
"246 51 OFFCURVE",
"246 40 CURVE SMOOTH",
"246 29 OFFCURVE",
"247 13 OFFCURVE",
"250 0 CURVE",
"310 0 LINE",
"313 13 OFFCURVE",
"314 29 OFFCURVE",
"314 40 CURVE SMOOTH",
"314 51 OFFCURVE",
"313 68 OFFCURVE",
"310 80 CURVE",
"250 80 LINE"
);
},
{
closed = 1;
nodes = (
"37 468 OFFCURVE",
"36 451 OFFCURVE",
"36 440 CURVE SMOOTH",
"36 429 OFFCURVE",
"37 413 OFFCURVE",
"40 400 CURVE",
"120 400 LINE",
"123 413 OFFCURVE",
"124 429 OFFCURVE",
"124 440 CURVE SMOOTH",
"124 451 OFFCURVE",
"123 468 OFFCURVE",
"120 480 CURVE",
"40 480 LINE"
);
},
{
closed = 1;
nodes = (
"277 468 OFFCURVE",
"276 451 OFFCURVE",
"276 440 CURVE SMOOTH",
"276 429 OFFCURVE",
"277 413 OFFCURVE",
"280 400 CURVE",
"360 400 LINE",
"363 413 OFFCURVE",
"364 429 OFFCURVE",
"364 440 CURVE SMOOTH",
"364 451 OFFCURVE",
"363 468 OFFCURVE",
"360 480 CURVE",
"280 480 LINE"
);
},
{
closed = 1;
nodes = (
"167 468 OFFCURVE",
"166 451 OFFCURVE",
"166 440 CURVE SMOOTH",
"166 429 OFFCURVE",
"167 413 OFFCURVE",
"170 400 CURVE",
"230 400 LINE",
"233 413 OFFCURVE",
"234 429 OFFCURVE",
"234 440 CURVE SMOOTH",
"234 451 OFFCURVE",
"233 468 OFFCURVE",
"230 480 CURVE",
"170 480 LINE"
);
},
{
closed = 1;
nodes = (
"37 548 OFFCURVE",
"36 531 OFFCURVE",
"36 520 CURVE SMOOTH",
"36 509 OFFCURVE",
"37 493 OFFCURVE",
"40 480 CURVE",
"120 480 LINE",
"123 493 OFFCURVE",
"124 509 OFFCURVE",
"124 520 CURVE SMOOTH",
"124 531 OFFCURVE",
"123 548 OFFCURVE",
"120 560 CURVE",
"40 560 LINE"
);
},
{
closed = 1;
nodes = (
"277 548 OFFCURVE",
"276 531 OFFCURVE",
"276 520 CURVE SMOOTH",
"276 509 OFFCURVE",
"277 493 OFFCURVE",
"280 480 CURVE",
"360 480 LINE",
"363 493 OFFCURVE",
"364 509 OFFCURVE",
"364 520 CURVE SMOOTH",
"364 531 OFFCURVE",
"363 548 OFFCURVE",
"360 560 CURVE",
"280 560 LINE"
);
},
{
closed = 1;
nodes = (
"167 548 OFFCURVE",
"166 531 OFFCURVE",
"166 520 CURVE SMOOTH",
"166 509 OFFCURVE",
"167 493 OFFCURVE",
"170 480 CURVE",
"230 480 LINE",
"233 493 OFFCURVE",
"234 509 OFFCURVE",
"234 520 CURVE SMOOTH",
"234 531 OFFCURVE",
"233 548 OFFCURVE",
"230 560 CURVE",
"170 560 LINE"
);
}
);
width = 400;
}
);
unicode = 0057;
},
{
color = 3;
glyphname = X;
lastChange = "2016-07-06 09:11:00 +0000";
layers = (
{
anchors = (
{
name = bottom;
position = "{200, 0}";
},
{
name = top;
position = "{200, 560}";
}
);
layerId = "DA6254B3-9514-4A47-8309-1A9185AEAC97";
paths = (
{
closed = 1;
nodes = (
"137 308 OFFCURVE",
"136 291 OFFCURVE",
"136 280 CURVE SMOOTH",
"136 269 OFFCURVE",
"137 253 OFFCURVE",
"140 240 CURVE",
"260 240 LINE",
"263 253 OFFCURVE",
"264 269 OFFCURVE",
"264 280 CURVE SMOOTH",
"264 291 OFFCURVE",
"263 308 OFFCURVE",
"260 320 CURVE",
"140 320 LINE"
);
},
{
closed = 1;
nodes = (
"227 388 OFFCURVE",
"226 371 OFFCURVE",
"226 360 CURVE SMOOTH",
"226 349 OFFCURVE",
"227 333 OFFCURVE",
"230 320 CURVE",
"290 320 LINE",
"293 333 OFFCURVE",
"294 349 OFFCURVE",
"294 360 CURVE SMOOTH",
"294 371 OFFCURVE",
"293 388 OFFCURVE",
"290 400 CURVE",
"230 400 LINE"
);
},
{
closed = 1;
nodes = (
"107 388 OFFCURVE",
"106 371 OFFCURVE",
"106 360 CURVE SMOOTH",
"106 349 OFFCURVE",
"107 333 OFFCURVE",
"110 320 CURVE",
"170 320 LINE",
"173 333 OFFCURVE",
"174 349 OFFCURVE",
"174 360 CURVE SMOOTH",
"174 371 OFFCURVE",
"173 388 OFFCURVE",
"170 400 CURVE",
"110 400 LINE"
);
},
{
closed = 1;
nodes = (
"67 468 OFFCURVE",
"66 451 OFFCURVE",
"66 440 CURVE SMOOTH",
"66 429 OFFCURVE",
"67 413 OFFCURVE",
"70 400 CURVE",
"150 400 LINE",
"153 413 OFFCURVE",
"154 429 OFFCURVE",
"154 440 CURVE SMOOTH",
"154 451 OFFCURVE",
"153 468 OFFCURVE",
"150 480 CURVE",
"70 480 LINE"
);
},
{
closed = 1;
nodes = (
"247 468 OFFCURVE",
"246 451 OFFCURVE",
"246 440 CURVE SMOOTH",
"246 429 OFFCURVE",
"247 413 OFFCURVE",
"250 400 CURVE",
"330 400 LINE",
"333 413 OFFCURVE",
"334 429 OFFCURVE",
"334 440 CURVE SMOOTH",
"334 451 OFFCURVE",
"333 468 OFFCURVE",
"330 480 CURVE",
"250 480 LINE"
);
},
{
closed = 1;
nodes = (
"227 228 OFFCURVE",
"226 211 OFFCURVE",
"226 200 CURVE SMOOTH",
"226 189 OFFCURVE",
"227 173 OFFCURVE",
"230 160 CURVE",
"290 160 LINE",
"293 173 OFFCURVE",
"294 189 OFFCURVE",
"294 200 CURVE SMOOTH",
"294 211 OFFCURVE",
"293 228 OFFCURVE",
"290 240 CURVE",
"230 240 LINE"
);
},
{
closed = 1;
nodes = (
"107 228 OFFCURVE",
"106 211 OFFCURVE",
"106 200 CURVE SMOOTH",
"106 189 OFFCURVE",
"107 173 OFFCURVE",
"110 160 CURVE",
"170 160 LINE",
"173 173 OFFCURVE",
"174 189 OFFCURVE",
"174 200 CURVE SMOOTH",
"174 211 OFFCURVE",
"173 228 OFFCURVE",
"170 240 CURVE",
"110 240 LINE"
);
},
{
closed = 1;
nodes = (
"67 148 OFFCURVE",
"66 131 OFFCURVE",
"66 120 CURVE SMOOTH",
"66 109 OFFCURVE",
"67 93 OFFCURVE",
"70 80 CURVE",
"150 80 LINE",
"153 93 OFFCURVE",
"154 109 OFFCURVE",
"154 120 CURVE SMOOTH",
"154 131 OFFCURVE",
"153 148 OFFCURVE",
"150 160 CURVE",
"70 160 LINE"
);
},
{
closed = 1;
nodes = (
"247 148 OFFCURVE",
"246 131 OFFCURVE",
"246 120 CURVE SMOOTH",
"246 109 OFFCURVE",
"247 93 OFFCURVE",
"250 80 CURVE",
"330 80 LINE",
"333 93 OFFCURVE",
"334 109 OFFCURVE",
"334 120 CURVE SMOOTH",
"334 131 OFFCURVE",
"333 148 OFFCURVE",
"330 160 CURVE",
"250 160 LINE"
);
},
{
closed = 1;
nodes = (
"37 548 OFFCURVE",
"36 531 OFFCURVE",
"36 520 CURVE SMOOTH",
"36 509 OFFCURVE",
"37 493 OFFCURVE",
"40 480 CURVE",
"120 480 LINE",
"123 493 OFFCURVE",
"124 509 OFFCURVE",
"124 520 CURVE SMOOTH",
"124 531 OFFCURVE",
"123 548 OFFCURVE",
"120 560 CURVE",
"40 560 LINE"
);
},
{
closed = 1;
nodes = (
"37 68 OFFCURVE",
"36 51 OFFCURVE",
"36 40 CURVE SMOOTH",
"36 29 OFFCURVE",
"37 13 OFFCURVE",
"40 0 CURVE",
"120 0 LINE",
"123 13 OFFCURVE",
"124 29 OFFCURVE",
"124 40 CURVE SMOOTH",
"124 51 OFFCURVE",
"123 68 OFFCURVE",
"120 80 CURVE",
"40 80 LINE"
);
},
{
closed = 1;
nodes = (
"277 68 OFFCURVE",
"276 51 OFFCURVE",
"276 40 CURVE SMOOTH",
"276 29 OFFCURVE",
"277 13 OFFCURVE",
"280 0 CURVE",
"360 0 LINE",
"363 13 OFFCURVE",
"364 29 OFFCURVE",
"364 40 CURVE SMOOTH",
"364 51 OFFCURVE",
"363 68 OFFCURVE",
"360 80 CURVE",
"280 80 LINE"
);
},
{
closed = 1;
nodes = (
"277 548 OFFCURVE",
"276 531 OFFCURVE",
"276 520 CURVE SMOOTH",
"276 509 OFFCURVE",
"277 493 OFFCURVE",
"280 480 CURVE",
"360 480 LINE",
"363 493 OFFCURVE",
"364 509 OFFCURVE",
"364 520 CURVE SMOOTH",
"364 531 OFFCURVE",
"363 548 OFFCURVE",
"360 560 CURVE",
"280 560 LINE"
);
}
);
width = 400;
}
);
unicode = 0058;
},
{
color = 3;
glyphname = Y;
lastChange = "2016-07-06 09:11:00 +0000";
layers = (
{
anchors = (
{
name = bottom;
position = "{200, 0}";
},
{
name = top;
position = "{200, 560}";
},
{
name = topleft;
position = "{40, 560}";
}
);
layerId = "DA6254B3-9514-4A47-8309-1A9185AEAC97";
paths = (
{
closed = 1;
nodes = (
"37 468 OFFCURVE",
"36 451 OFFCURVE",
"36 440 CURVE SMOOTH",
"36 429 OFFCURVE",
"37 413 OFFCURVE",
"40 400 CURVE",
"120 400 LINE",
"123 413 OFFCURVE",
"124 429 OFFCURVE",
"124 440 CURVE SMOOTH",
"124 451 OFFCURVE",
"123 468 OFFCURVE",
"120 480 CURVE",
"40 480 LINE"
);
},
{
closed = 1;
nodes = (
"37 548 OFFCURVE",
"36 531 OFFCURVE",
"36 520 CURVE SMOOTH",
"36 509 OFFCURVE",
"37 493 OFFCURVE",
"40 480 CURVE",
"120 480 LINE",
"123 493 OFFCURVE",
"124 509 OFFCURVE",
"124 520 CURVE SMOOTH",
"124 531 OFFCURVE",
"123 548 OFFCURVE",
"120 560 CURVE",
"40 560 LINE"
);
},
{
closed = 1;
nodes = (
"77 388 OFFCURVE",
"76 371 OFFCURVE",
"76 360 CURVE SMOOTH",
"76 349 OFFCURVE",
"77 333 OFFCURVE",
"80 320 CURVE",
"160 320 LINE",
"163 333 OFFCURVE",
"164 349 OFFCURVE",
"164 360 CURVE SMOOTH",
"164 371 OFFCURVE",
"163 388 OFFCURVE",
"160 400 CURVE",
"80 400 LINE"
);
},
{
closed = 1;
nodes = (
"117 308 OFFCURVE",
"116 291 OFFCURVE",
"116 280 CURVE SMOOTH",
"116 269 OFFCURVE",
"117 253 OFFCURVE",
"120 240 CURVE",
"280 240 LINE",
"283 253 OFFCURVE",
"284 269 OFFCURVE",
"284 280 CURVE SMOOTH",
"284 291 OFFCURVE",
"283 308 OFFCURVE",
"280 320 CURVE",
"120 320 LINE"
);
},
{
closed = 1;
nodes = (
"237 388 OFFCURVE",
"236 371 OFFCURVE",
"236 360 CURVE SMOOTH",
"236 349 OFFCURVE",
"237 333 OFFCURVE",
"240 320 CURVE",
"320 320 LINE",
"323 333 OFFCURVE",
"324 349 OFFCURVE",
"324 360 CURVE SMOOTH",
"324 371 OFFCURVE",
"323 388 OFFCURVE",
"320 400 CURVE",
"240 400 LINE"
);
},
{
closed = 1;
nodes = (
"277 468 OFFCURVE",
"276 451 OFFCURVE",
"276 440 CURVE SMOOTH",
"276 429 OFFCURVE",
"277 413 OFFCURVE",
"280 400 CURVE",
"360 400 LINE",
"363 413 OFFCURVE",
"364 429 OFFCURVE",
"364 440 CURVE SMOOTH",
"364 451 OFFCURVE",
"363 468 OFFCURVE",
"360 480 CURVE",
"280 480 LINE"
);
},
{
closed = 1;
nodes = (
"277 548 OFFCURVE",
"276 531 OFFCURVE",
"276 520 CURVE SMOOTH",
"276 509 OFFCURVE",
"277 493 OFFCURVE",
"280 480 CURVE",
"360 480 LINE",
"363 493 OFFCURVE",
"364 509 OFFCURVE",
"364 520 CURVE SMOOTH",
"364 531 OFFCURVE",
"363 548 OFFCURVE",
"360 560 CURVE",
"280 560 LINE"
);
},
{
closed = 1;
nodes = (
"157 148 OFFCURVE",
"156 131 OFFCURVE",
"156 120 CURVE SMOOTH",
"156 109 OFFCURVE",
"157 93 OFFCURVE",
"160 80 CURVE",
"240 80 LINE",
"243 93 OFFCURVE",
"244 109 OFFCURVE",
"244 120 CURVE SMOOTH",
"244 131 OFFCURVE",
"243 148 OFFCURVE",
"240 160 CURVE",
"160 160 LINE"
);
},
{
closed = 1;
nodes = (
"157 228 OFFCURVE",
"156 211 OFFCURVE",
"156 200 CURVE SMOOTH",
"156 189 OFFCURVE",
"157 173 OFFCURVE",
"160 160 CURVE",
"240 160 LINE",
"243 173 OFFCURVE",
"244 189 OFFCURVE",
"244 200 CURVE SMOOTH",
"244 211 OFFCURVE",
"243 228 OFFCURVE",
"240 240 CURVE",
"160 240 LINE"
);
},
{
closed = 1;
nodes = (
"157 68 OFFCURVE",
"156 51 OFFCURVE",
"156 40 CURVE SMOOTH",
"156 29 OFFCURVE",
"157 13 OFFCURVE",
"160 0 CURVE",
"240 0 LINE",
"243 13 OFFCURVE",
"244 29 OFFCURVE",
"244 40 CURVE SMOOTH",
"244 51 OFFCURVE",
"243 68 OFFCURVE",
"240 80 CURVE",
"160 80 LINE"
);
}
);
width = 400;
}
);
unicode = 0059;
},
{
color = 3;
glyphname = Z;
lastChange = "2016-07-06 09:11:00 +0000";
layers = (
{
anchors = (
{
name = bottom;
position = "{200, 0}";
},
{
name = top;
position = "{200, 560}";
}
);
layerId = "DA6254B3-9514-4A47-8309-1A9185AEAC97";
paths = (
{
closed = 1;
nodes = (
"57 148 OFFCURVE",
"56 131 OFFCURVE",
"56 120 CURVE SMOOTH",
"56 109 OFFCURVE",
"57 93 OFFCURVE",
"60 80 CURVE",
"140 80 LINE",
"143 93 OFFCURVE",
"144 109 OFFCURVE",
"144 120 CURVE SMOOTH",
"144 131 OFFCURVE",
"143 148 OFFCURVE",
"140 160 CURVE",
"60 160 LINE"
);
},
{
closed = 1;
nodes = (
"57 68 OFFCURVE",
"56 51 OFFCURVE",
"56 40 CURVE SMOOTH",
"56 29 OFFCURVE",
"57 13 OFFCURVE",
"60 0 CURVE",
"220 0 LINE",
"223 13 OFFCURVE",
"224 29 OFFCURVE",
"224 40 CURVE SMOOTH",
"224 51 OFFCURVE",
"223 68 OFFCURVE",
"220 80 CURVE",
"60 80 LINE"
);
},
{
closed = 1;
nodes = (
"217 68 OFFCURVE",
"216 51 OFFCURVE",
"216 40 CURVE SMOOTH",
"216 29 OFFCURVE",
"217 13 OFFCURVE",
"220 0 CURVE",
"340 0 LINE",
"343 13 OFFCURVE",
"344 29 OFFCURVE",
"344 40 CURVE SMOOTH",
"344 51 OFFCURVE",
"343 68 OFFCURVE",
"340 80 CURVE",
"220 80 LINE"
);
},
{
closed = 1;
nodes = (
"107 228 OFFCURVE",
"106 211 OFFCURVE",
"106 200 CURVE SMOOTH",
"106 189 OFFCURVE",
"107 173 OFFCURVE",
"110 160 CURVE",
"190 160 LINE",
"193 173 OFFCURVE",
"194 189 OFFCURVE",
"194 200 CURVE SMOOTH",
"194 211 OFFCURVE",
"193 228 OFFCURVE",
"190 240 CURVE",
"110 240 LINE"
);
},
{
closed = 1;
nodes = (
"167 308 OFFCURVE",
"166 291 OFFCURVE",
"166 280 CURVE SMOOTH",
"166 269 OFFCURVE",
"167 253 OFFCURVE",
"170 240 CURVE",
"250 240 LINE",
"253 253 OFFCURVE",
"254 269 OFFCURVE",
"254 280 CURVE SMOOTH",
"254 291 OFFCURVE",
"253 308 OFFCURVE",
"250 320 CURVE",
"170 320 LINE"
);
},
{
closed = 1;
nodes = (
"257 468 OFFCURVE",
"256 451 OFFCURVE",
"256 440 CURVE SMOOTH",
"256 429 OFFCURVE",
"257 413 OFFCURVE",
"260 400 CURVE",
"340 400 LINE",
"343 413 OFFCURVE",
"344 429 OFFCURVE",
"344 440 CURVE SMOOTH",
"344 451 OFFCURVE",
"343 468 OFFCURVE",
"340 480 CURVE",
"260 480 LINE"
);
},
{
closed = 1;
nodes = (
"57 548 OFFCURVE",
"56 531 OFFCURVE",
"56 520 CURVE SMOOTH",
"56 509 OFFCURVE",
"57 493 OFFCURVE",
"60 480 CURVE",
"220 480 LINE",
"223 493 OFFCURVE",
"224 509 OFFCURVE",
"224 520 CURVE SMOOTH",
"224 531 OFFCURVE",
"223 548 OFFCURVE",
"220 560 CURVE",
"60 560 LINE"
);
},
{
closed = 1;
nodes = (
"217 548 OFFCURVE",
"216 531 OFFCURVE",
"216 520 CURVE SMOOTH",
"216 509 OFFCURVE",
"217 493 OFFCURVE",
"220 480 CURVE",
"340 480 LINE",
"343 493 OFFCURVE",
"344 509 OFFCURVE",
"344 520 CURVE SMOOTH",
"344 531 OFFCURVE",
"343 548 OFFCURVE",
"340 560 CURVE",
"220 560 LINE"
);
},
{
closed = 1;
nodes = (
"227 388 OFFCURVE",
"226 371 OFFCURVE",
"226 360 CURVE SMOOTH",
"226 349 OFFCURVE",
"227 333 OFFCURVE",
"230 320 CURVE",
"310 320 LINE",
"313 333 OFFCURVE",
"314 349 OFFCURVE",
"314 360 CURVE SMOOTH",
"314 371 OFFCURVE",
"313 388 OFFCURVE",
"310 400 CURVE",
"230 400 LINE"
);
}
);
width = 400;
}
);
unicode = 005A;
},
